999
DXF created by UltiBoard 14.0.0.0
0
SECTION
2
HEADER
9
$ACADVER
1
AC1014
9
$EXTMIN
10
-3.672400
20
-3.672400
30
0.0
9
$EXTMAX
10
75.672400
20
31.672400
30
0.0
9
$LUNITS
70
2
9
$HANDSEED
5
1D7
0
ENDSEC
0
SECTION
2
TABLES
0
TABLE
2
VPORT
5
1
100
AcDbSymbolTable
70
1
0
VPORT
5
2
100
AcDbSymbolTableRecord
100
AcDbViewportTableRecord
2
*ACTIVE
70
0
0
ENDTAB
0
TABLE
2
LTYPE
5
3
100
AcDbSymbolTable
70
1
0
LTYPE
5
4
100
AcDbSymbolTableRecord
100
AcDbLinetypeTableRecord
2
BYBLOCK
70
0
3

72
65
73
0
40
0.0
0
LTYPE
5
5
100
AcDbSymbolTableRecord
100
AcDbLinetypeTableRecord
2
BYLAYER
70
0
3

72
65
73
0
40
0.0
0
LTYPE
5
6
100
AcDbSymbolTableRecord
100
AcDbLinetypeTableRecord
2
CONTINUOUS
70
0
3
Solid line
72
65
73
0
40
0.0
0
ENDTAB
0
TABLE
2
LAYER
5
7
100
AcDbSymbolTable
70
8
0
LAYER
5
8
100
AcDbSymbolTableRecord
100
AcDbLayerTableRecord
2
0
70
0
62
7
6
CONTINUOUS
0
LAYER
5
9
100
AcDbSymbolTableRecord
100
AcDbLayerTableRecord
2
LEITERPLATTENUMRISS
70
0
62
2
6
CONTINUOUS
0
LAYER
5
A
100
AcDbSymbolTableRecord
100
AcDbLayerTableRecord
2
COPPER_TOP
70
0
62
3
6
CONTINUOUS
0
LAYER
5
B
100
AcDbSymbolTableRecord
100
AcDbLayerTableRecord
2
COPPER_BOTTOM
70
0
62
1
6
CONTINUOUS
0
LAYER
5
C
100
AcDbSymbolTableRecord
100
AcDbLayerTableRecord
2
KUPFERINNENLAGE_2
70
0
62
254
6
CONTINUOUS
0
LAYER
5
D
100
AcDbSymbolTableRecord
100
AcDbLayerTableRecord
2
KUPFERLAGE_UNTEN
70
0
62
1
6
CONTINUOUS
0
LAYER
5
E
100
AcDbSymbolTableRecord
100
AcDbLayerTableRecord
2
SIEBDRUCK_OBEN
70
0
62
4
6
CONTINUOUS
0
LAYER
5
F
100
AcDbSymbolTableRecord
100
AcDbLayerTableRecord
2
SIEBDRUCK_UNTEN
70
0
62
6
6
CONTINUOUS
0
ENDTAB
0
TABLE
2
STYLE
5
10
100
AcDbSymbolTable
70
2
0
STYLE
5
11
100
AcDbSymbolTableRecord
100
AcDbTextStyleTableRecord
2
MONOTxtStyle
70
0
40
0.0
41
1.0
50
0.0
71
0
42
0.2
3
monotxt
4

0
ENDTAB
0
TABLE
2
VIEW
5
12
100
AcDbSymbolTable
70
0
0
ENDTAB
0
TABLE
2
UCS
5
13
100
AcDbSymbolTable
70
0
0
ENDTAB
0
TABLE
2
APPID
5
14
100
AcDbSymbolTable
70
1
0
APPID
5
15
100
AcDbSymbolTableRecord
100
AcDbRegAppTableRecord
2
ACAD
70
0
0
ENDTAB
0
TABLE
2
DIMSTYLE
5
16
100
AcDbSymbolTable
70
1
0
DIMSTYLE
105
17
100
AcDbSymbolTableRecord
100
AcDbDimStyleTableRecord
2
STANDARD
70
0
0
ENDTAB
0
TABLE
2
BLOCK_RECORD
5
18
100
AcDbSymbolTable
70
0
0
BLOCK_RECORD
5
19
100
AcDbSymbolTableRecord
100
AcDbBlockTableRecord
2
*MODEL_SPACE
0
BLOCK_RECORD
5
1A
100
AcDbSymbolTableRecord
100
AcDbBlockTableRecord
2
*PAPER_SPACE
0
ENDTAB
0
ENDSEC
0
SECTION
2
BLOCKS
0
BLOCK
5
1B
100
AcDbEntity
8
0
100
AcDbBlockBegin
2
*MODEL_SPACE
70
0
0
ENDBLK
5
1C
100
AcDbEntity
8
0
100
AcDbBlockEnd
0
BLOCK
5
1D
100
AcDbEntity
8
0
100
AcDbBlockBegin
2
*PAPER_SPACE
70
0
0
ENDBLK
5
1E
100
AcDbEntity
8
0
100
AcDbBlockEnd
0
ENDSEC
0
SECTION
2
ENTITIES
0
LWPOLYLINE
5
1F
100
AcDbEntity
8
LEITERPLATTENUMRISS
62
2
100
AcDbPolyline
90
2
70
0
43
0.000001
39
0.000001
10
0.000000
20
0.000000
10
72.000000
20
0.000000
0
LWPOLYLINE
5
20
100
AcDbEntity
8
LEITERPLATTENUMRISS
62
2
100
AcDbPolyline
90
2
70
0
43
0.000001
39
0.000001
10
72.000000
20
0.000000
10
72.000000
20
28.000000
0
LWPOLYLINE
5
21
100
AcDbEntity
8
LEITERPLATTENUMRISS
62
2
100
AcDbPolyline
90
2
70
0
43
0.000001
39
0.000001
10
72.000000
20
28.000000
10
0.000000
20
28.000000
0
LWPOLYLINE
5
22
100
AcDbEntity
8
LEITERPLATTENUMRISS
62
2
100
AcDbPolyline
90
2
70
0
43
0.000001
39
0.000001
10
0.000000
20
28.000000
10
0.000000
20
0.000000
0
HATCH
5
23
100
AcDbEntity
8
LEITERPLATTENUMRISS
62
255
100
AcDbHatch
10
0.0
20
0.0
30
0.0
210
0.0
220
0.0
230
1.0
2
SOLID
70
1
71
0
91
1
92
1
93
1
72
2
10
4.000000
20
4.000000
40
1.600000
50
0.000000
51
360.000000
73
1
97
0
75
0
76
0
98
1
10
0.0
20
0.0
0
CIRCLE
5
24
100
AcDbEntity
8
LEITERPLATTENUMRISS
62
255
100
AcDbCircle
39
0.000001
10
4.000000
20
4.000000
30
0
40
1.600000
0
HATCH
5
25
100
AcDbEntity
8
LEITERPLATTENUMRISS
62
255
100
AcDbHatch
10
0.0
20
0.0
30
0.0
210
0.0
220
0.0
230
1.0
2
SOLID
70
1
71
0
91
1
92
1
93
1
72
2
10
4.000000
20
24.000000
40
1.600000
50
0.000000
51
360.000000
73
1
97
0
75
0
76
0
98
1
10
0.0
20
0.0
0
CIRCLE
5
26
100
AcDbEntity
8
LEITERPLATTENUMRISS
62
255
100
AcDbCircle
39
0.000001
10
4.000000
20
24.000000
30
0
40
1.600000
0
HATCH
5
27
100
AcDbEntity
8
LEITERPLATTENUMRISS
62
255
100
AcDbHatch
10
0.0
20
0.0
30
0.0
210
0.0
220
0.0
230
1.0
2
SOLID
70
1
71
0
91
1
92
1
93
1
72
2
10
68.000000
20
4.000000
40
1.600000
50
0.000000
51
360.000000
73
1
97
0
75
0
76
0
98
1
10
0.0
20
0.0
0
CIRCLE
5
28
100
AcDbEntity
8
LEITERPLATTENUMRISS
62
255
100
AcDbCircle
39
0.000001
10
68.000000
20
4.000000
30
0
40
1.600000
0
HATCH
5
29
100
AcDbEntity
8
LEITERPLATTENUMRISS
62
255
100
AcDbHatch
10
0.0
20
0.0
30
0.0
210
0.0
220
0.0
230
1.0
2
SOLID
70
1
71
0
91
1
92
1
93
1
72
2
10
68.000000
20
24.000000
40
1.600000
50
0.000000
51
360.000000
73
1
97
0
75
0
76
0
98
1
10
0.0
20
0.0
0
CIRCLE
5
2A
100
AcDbEntity
8
LEITERPLATTENUMRISS
62
255
100
AcDbCircle
39
0.000001
10
68.000000
20
24.000000
30
0
40
1.600000
0
HATCH
5
2B
100
AcDbEntity
8
COPPER_TOP
62
255
100
AcDbHatch
10
0.0
20
0.0
30
0.0
210
0.0
220
0.0
230
1.0
2
SOLID
70
1
71
0
91
1
92
1
93
1
72
2
10
4.000000
20
4.000000
40
1.600000
50
0.000000
51
360.000000
73
1
97
0
75
0
76
0
98
1
10
0.0
20
0.0
0
CIRCLE
5
2C
100
AcDbEntity
8
COPPER_TOP
62
255
100
AcDbCircle
39
0.000001
10
4.000000
20
4.000000
30
0
40
1.600000
0
HATCH
5
2D
100
AcDbEntity
8
COPPER_TOP
62
255
100
AcDbHatch
10
0.0
20
0.0
30
0.0
210
0.0
220
0.0
230
1.0
2
SOLID
70
1
71
0
91
1
92
1
93
1
72
2
10
4.000000
20
24.000000
40
1.600000
50
0.000000
51
360.000000
73
1
97
0
75
0
76
0
98
1
10
0.0
20
0.0
0
CIRCLE
5
2E
100
AcDbEntity
8
COPPER_TOP
62
255
100
AcDbCircle
39
0.000001
10
4.000000
20
24.000000
30
0
40
1.600000
0
HATCH
5
2F
100
AcDbEntity
8
COPPER_TOP
62
255
100
AcDbHatch
10
0.0
20
0.0
30
0.0
210
0.0
220
0.0
230
1.0
2
SOLID
70
1
71
0
91
1
92
1
93
1
72
2
10
68.000000
20
4.000000
40
1.600000
50
0.000000
51
360.000000
73
1
97
0
75
0
76
0
98
1
10
0.0
20
0.0
0
CIRCLE
5
30
100
AcDbEntity
8
COPPER_TOP
62
255
100
AcDbCircle
39
0.000001
10
68.000000
20
4.000000
30
0
40
1.600000
0
HATCH
5
31
100
AcDbEntity
8
COPPER_TOP
62
255
100
AcDbHatch
10
0.0
20
0.0
30
0.0
210
0.0
220
0.0
230
1.0
2
SOLID
70
1
71
0
91
1
92
1
93
1
72
2
10
68.000000
20
24.000000
40
1.600000
50
0.000000
51
360.000000
73
1
97
0
75
0
76
0
98
1
10
0.0
20
0.0
0
CIRCLE
5
32
100
AcDbEntity
8
COPPER_TOP
62
255
100
AcDbCircle
39
0.000001
10
68.000000
20
24.000000
30
0
40
1.600000
0
HATCH
5
33
100
AcDbEntity
8
COPPER_TOP
62
3
100
AcDbHatch
10
0.0
20
0.0
30
0.0
210
0.0
220
0.0
230
1.0
2
SOLID
70
1
71
0
91
1
92
1
93
3
72
1
10
0.730517
20
25.263133
11
0.730517
21
27.269483
72
1
10
0.730517
20
27.269483
11
2.736867
21
27.269483
72
2
10
4.000000
20
24.000000
40
3.505000
50
111.123561
51
158.876439
73
1
97
0
75
0
76
0
98
1
10
0.0
20
0.0
0
LWPOLYLINE
5
34
100
AcDbEntity
8
COPPER_TOP
62
3
100
AcDbPolyline
90
3
70
0
43
0.254000
39
0.254000
10
0.730517
20
25.263133
10
0.730517
20
27.269483
10
2.736867
20
27.269483
0
ARC
5
35
100
AcDbEntity
8
COPPER_TOP
62
3
100
AcDbCircle
39
0.254000
10
4.000000
20
24.000000
30
0.0
40
3.505000
100
AcDbArc
50
111.123561
51
158.876439
0
HATCH
5
36
100
AcDbEntity
8
COPPER_TOP
62
3
100
AcDbHatch
10
0.0
20
0.0
30
0.0
210
0.0
220
0.0
230
1.0
2
SOLID
70
1
71
0
91
1
92
1
93
3
72
1
10
71.269483
20
2.736867
11
71.269483
21
0.730517
72
1
10
71.269483
20
0.730517
11
69.263133
21
0.730517
72
2
10
68.000000
20
4.000000
40
3.505000
50
291.123561
51
338.876439
73
1
97
0
75
0
76
0
98
1
10
0.0
20
0.0
0
LWPOLYLINE
5
37
100
AcDbEntity
8
COPPER_TOP
62
3
100
AcDbPolyline
90
3
70
0
43
0.254000
39
0.254000
10
71.269483
20
2.736867
10
71.269483
20
0.730517
10
69.263133
20
0.730517
0
ARC
5
38
100
AcDbEntity
8
COPPER_TOP
62
3
100
AcDbCircle
39
0.254000
10
68.000000
20
4.000000
30
0.0
40
3.505000
100
AcDbArc
50
291.123561
51
338.876439
0
HATCH
5
39
100
AcDbEntity
8
COPPER_TOP
62
3
100
AcDbHatch
10
0.0
20
0.0
30
0.0
210
0.0
220
0.0
230
1.0
2
SOLID
70
1
71
0
91
1
92
1
93
3
72
1
10
0.730517
20
2.736867
11
0.730517
21
0.730517
72
1
10
0.730517
20
0.730517
11
2.736867
21
0.730517
72
2
10
4.000000
20
4.000000
40
3.505000
50
111.123561
51
158.876439
73
0
97
0
75
0
76
0
98
1
10
0.0
20
0.0
0
LWPOLYLINE
5
3A
100
AcDbEntity
8
COPPER_TOP
62
3
100
AcDbPolyline
90
3
70
0
43
0.254000
39
0.254000
10
0.730517
20
2.736867
10
0.730517
20
0.730517
10
2.736867
20
0.730517
0
ARC
5
3B
100
AcDbEntity
8
COPPER_TOP
62
3
100
AcDbCircle
39
0.254000
10
4.000000
20
4.000000
30
0.0
40
3.505000
100
AcDbArc
50
201.123561
51
248.876439
0
HATCH
5
3C
100
AcDbEntity
8
COPPER_TOP
62
3
100
AcDbHatch
10
0.0
20
0.0
30
0.0
210
0.0
220
0.0
230
1.0
2
SOLID
70
1
71
0
91
37
92
1
93
8
72
1
10
66.736867
20
27.269483
11
5.263133
21
27.269483
72
2
10
4.000000
20
24.000000
40
3.505000
50
291.123561
51
158.876439
73
0
72
1
10
0.730517
20
22.736867
11
0.730517
21
5.263133
72
2
10
4.000000
20
4.000000
40
3.505000
50
201.123561
51
68.876439
73
0
72
1
10
5.263133
20
0.730517
11
66.736867
21
0.730517
72
2
10
68.000000
20
4.000000
40
3.505000
50
111.123561
51
338.876439
73
0
72
1
10
71.269483
20
5.263133
11
71.269483
21
22.736867
72
2
10
68.000000
20
24.000000
40
3.505000
50
21.123561
51
248.876439
73
0
97
0
92
1
93
1
72
2
10
11.176000
20
6.604000
40
1.527000
50
0.000000
51
360.000000
73
1
97
0
92
1
93
3
72
2
10
16.256000
20
6.604000
40
1.527000
50
200.769485
51
249.230515
73
0
72
1
10
15.714512
20
8.031767
11
15.714512
21
7.145488
72
1
10
15.714512
20
7.145488
11
14.828233
21
7.145488
97
0
92
1
93
3
72
2
10
16.256000
20
6.604000
40
1.527000
50
290.769485
51
339.230515
73
0
72
1
10
17.683767
20
7.145488
11
16.797488
21
7.145488
72
1
10
16.797488
20
7.145488
11
16.797488
21
8.031767
97
0
92
1
93
3
72
2
10
16.256000
20
6.604000
40
1.527000
50
20.769485
51
69.230515
73
0
72
1
10
16.797488
20
5.176233
11
16.797488
21
6.062512
72
1
10
16.797488
20
6.062512
11
17.683767
21
6.062512
97
0
92
1
93
3
72
2
10
16.256000
20
6.604000
40
1.527000
50
110.769485
51
159.230515
73
0
72
1
10
14.828233
20
6.062512
11
15.714512
21
6.062512
72
1
10
15.714512
20
6.062512
11
15.714512
21
5.176233
97
0
92
1
93
1
72
2
10
16.256000
20
6.604000
40
0.500000
50
0.000000
51
360.000000
73
1
97
0
92
1
93
1
72
2
10
21.336000
20
6.604000
40
1.527000
50
0.000000
51
360.000000
73
1
97
0
92
1
93
3
72
2
10
26.416000
20
6.604000
40
1.527000
50
200.769485
51
249.230515
73
0
72
1
10
25.874512
20
8.031767
11
25.874512
21
7.145488
72
1
10
25.874512
20
7.145488
11
24.988233
21
7.145488
97
0
92
1
93
3
72
2
10
26.416000
20
6.604000
40
1.527000
50
290.769485
51
339.230515
73
0
72
1
10
27.843767
20
7.145488
11
26.957488
21
7.145488
72
1
10
26.957488
20
7.145488
11
26.957488
21
8.031767
97
0
92
1
93
3
72
2
10
26.416000
20
6.604000
40
1.527000
50
20.769485
51
69.230515
73
0
72
1
10
26.957488
20
5.176233
11
26.957488
21
6.062512
72
1
10
26.957488
20
6.062512
11
27.843767
21
6.062512
97
0
92
1
93
3
72
2
10
26.416000
20
6.604000
40
1.527000
50
110.769485
51
159.230515
73
0
72
1
10
24.988233
20
6.062512
11
25.874512
21
6.062512
72
1
10
25.874512
20
6.062512
11
25.874512
21
5.176233
97
0
92
1
93
1
72
2
10
26.416000
20
6.604000
40
0.500000
50
0.000000
51
360.000000
73
1
97
0
92
1
93
1
72
2
10
31.496000
20
6.604000
40
1.527000
50
0.000000
51
360.000000
73
1
97
0
92
1
93
1
72
2
10
36.576000
20
6.604000
40
1.527000
50
0.000000
51
360.000000
73
1
97
0
92
1
93
1
72
2
10
43.932000
20
3.810000
40
1.527000
50
0.000000
51
360.000000
73
1
97
0
92
1
93
1
72
2
10
49.012000
20
3.810000
40
1.527000
50
0.000000
51
360.000000
73
1
97
0
92
1
93
1
72
2
10
54.092000
20
3.810000
40
1.527000
50
0.000000
51
360.000000
73
1
97
0
92
1
93
1
72
2
10
61.712000
20
3.810000
40
1.527000
50
0.000000
51
360.000000
73
1
97
0
92
1
93
3
72
2
10
43.932000
20
11.430000
40
1.527000
50
200.769485
51
249.230515
73
0
72
1
10
43.390512
20
12.857767
11
43.390512
21
11.971488
72
1
10
43.390512
20
11.971488
11
42.504233
21
11.971488
97
0
92
1
93
3
72
2
10
43.932000
20
11.430000
40
1.527000
50
290.769485
51
339.230515
73
0
72
1
10
45.359767
20
11.971488
11
44.473488
21
11.971488
72
1
10
44.473488
20
11.971488
11
44.473488
21
12.857767
97
0
92
1
93
3
72
2
10
43.932000
20
11.430000
40
1.527000
50
20.769485
51
69.230515
73
0
72
1
10
44.473488
20
10.002233
11
44.473488
21
10.888512
72
1
10
44.473488
20
10.888512
11
45.359767
21
10.888512
97
0
92
1
93
3
72
2
10
43.932000
20
11.430000
40
1.527000
50
110.769485
51
159.230515
73
0
72
1
10
42.504233
20
10.888512
11
43.390512
21
10.888512
72
1
10
43.390512
20
10.888512
11
43.390512
21
10.002233
97
0
92
1
93
1
72
2
10
43.932000
20
11.430000
40
0.500000
50
0.000000
51
360.000000
73
1
97
0
92
1
93
1
72
2
10
49.012000
20
11.430000
40
1.527000
50
0.000000
51
360.000000
73
1
97
0
92
1
93
1
72
2
10
54.092000
20
11.430000
40
1.527000
50
0.000000
51
360.000000
73
1
97
0
92
1
93
3
72
2
10
61.712000
20
11.430000
40
1.527000
50
200.769485
51
249.230515
73
0
72
1
10
61.170512
20
12.857767
11
61.170512
21
11.971488
72
1
10
61.170512
20
11.971488
11
60.284233
21
11.971488
97
0
92
1
93
3
72
2
10
61.712000
20
11.430000
40
1.527000
50
290.769485
51
339.230515
73
0
72
1
10
63.139767
20
11.971488
11
62.253488
21
11.971488
72
1
10
62.253488
20
11.971488
11
62.253488
21
12.857767
97
0
92
1
93
3
72
2
10
61.712000
20
11.430000
40
1.527000
50
20.769485
51
69.230515
73
0
72
1
10
62.253488
20
10.002233
11
62.253488
21
10.888512
72
1
10
62.253488
20
10.888512
11
63.139767
21
10.888512
97
0
92
1
93
3
72
2
10
61.712000
20
11.430000
40
1.527000
50
110.769485
51
159.230515
73
0
72
1
10
60.284233
20
10.888512
11
61.170512
21
10.888512
72
1
10
61.170512
20
10.888512
11
61.170512
21
10.002233
97
0
92
1
93
1
72
2
10
61.712000
20
11.430000
40
0.500000
50
0.000000
51
360.000000
73
1
97
0
92
1
93
22
72
1
10
18.205000
20
14.359883
11
18.205000
21
14.771452
72
2
10
18.682468
20
14.771452
40
0.477468
50
180.000000
51
270.000000
73
0
72
1
10
18.682468
20
15.248920
11
23.989532
21
15.248920
72
2
10
23.989532
20
14.771452
40
0.477468
50
270.000000
51
360.000000
73
0
72
1
10
24.467000
20
14.771452
11
24.467000
21
10.472388
72
2
10
23.989532
20
10.472388
40
0.477468
50
360.000000
51
90.000000
73
0
72
1
10
23.989532
20
9.994920
11
18.682468
21
9.994920
72
2
10
18.682468
20
10.472388
40
0.477468
50
90.000000
51
180.000000
73
0
72
1
10
18.205000
20
10.472388
11
18.205000
21
10.883957
72
2
10
17.910228
20
11.267692
40
0.483883
50
52.469742
51
90.000000
73
0
72
1
10
17.910228
20
10.783809
11
13.361772
21
10.783809
72
2
10
13.361772
20
11.267692
40
0.483883
50
90.000000
51
124.744273
73
0
72
2
10
12.810228
20
11.267692
40
0.483883
50
55.255727
51
90.000000
73
0
72
1
10
12.810228
20
10.783809
11
9.541772
21
10.783809
72
2
10
9.541772
20
11.267692
40
0.483883
50
90.000000
51
180.000000
73
0
72
1
10
9.057889
20
11.267692
11
9.057889
21
13.976148
72
2
10
9.541772
20
13.976148
40
0.483883
50
180.000000
51
270.000000
73
0
72
1
10
9.541772
20
14.460031
11
12.810228
21
14.460031
72
2
10
12.810228
20
13.976148
40
0.483883
50
270.000000
51
304.744273
73
0
72
2
10
13.361772
20
13.976148
40
0.483883
50
235.255727
51
270.000000
73
0
72
1
10
13.361772
20
14.460031
11
17.910228
21
14.460031
72
2
10
17.910228
20
13.976148
40
0.483883
50
270.000000
51
307.530258
73
0
97
0
92
1
93
12
72
2
10
34.301772
20
14.976148
40
0.483883
50
214.313091
51
270.000000
73
0
72
1
10
34.301772
20
15.460031
11
38.850228
21
15.460031
72
2
10
38.850228
20
14.976148
40
0.483883
50
270.000000
51
360.000000
73
0
72
1
10
39.334111
20
14.976148
11
39.334111
21
10.267692
72
2
10
38.850228
20
10.267692
40
0.483883
50
360.000000
51
90.000000
73
0
72
1
10
38.850228
20
9.783809
11
34.301772
21
9.783809
72
2
10
34.301772
20
10.267692
40
0.483883
50
90.000000
51
145.686909
73
0
72
1
10
33.902099
20
9.994920
11
28.842468
21
9.994920
72
2
10
28.842468
20
10.472388
40
0.477468
50
90.000000
51
180.000000
73
0
72
1
10
28.365000
20
10.472388
11
28.365000
21
14.771452
72
2
10
28.842468
20
14.771452
40
0.477468
50
180.000000
51
270.000000
73
0
72
1
10
28.842468
20
15.248920
11
33.902099
21
15.248920
97
0
92
1
93
8
72
2
10
2.900811
20
18.709189
40
0.548033
50
180.000000
51
270.000000
73
0
72
1
10
2.900811
20
19.257222
11
7.703189
21
19.257222
72
2
10
7.703189
20
18.709189
40
0.548033
50
270.000000
51
360.000000
73
0
72
1
10
8.251222
20
18.709189
11
8.251222
21
15.346811
72
2
10
7.703189
20
15.346811
40
0.548033
50
360.000000
51
90.000000
73
0
72
1
10
7.703189
20
14.798778
11
2.900811
21
14.798778
72
2
10
2.900811
20
15.346811
40
0.548033
50
90.000000
51
180.000000
73
0
72
1
10
2.352778
20
15.346811
11
2.352778
21
18.709189
97
0
92
1
93
1
72
2
10
11.010000
20
20.828000
40
1.827000
50
0.000000
51
360.000000
73
1
97
0
92
1
93
1
72
2
10
60.110000
20
20.828000
40
1.827000
50
0.000000
51
360.000000
73
1
97
0
92
1
93
8
72
2
10
63.860811
20
18.455189
40
0.548033
50
180.000000
51
270.000000
73
0
72
1
10
63.860811
20
19.003222
11
68.663189
21
19.003222
72
2
10
68.663189
20
18.455189
40
0.548033
50
270.000000
51
360.000000
73
0
72
1
10
69.211222
20
18.455189
11
69.211222
21
15.092811
72
2
10
68.663189
20
15.092811
40
0.548033
50
360.000000
51
90.000000
73
0
72
1
10
68.663189
20
14.544778
11
63.860811
21
14.544778
72
2
10
63.860811
20
15.092811
40
0.548033
50
90.000000
51
180.000000
73
0
72
1
10
63.312778
20
15.092811
11
63.312778
21
18.455189
97
0
75
0
76
0
98
1
10
0.0
20
0.0
0
CIRCLE
5
3D
100
AcDbEntity
8
COPPER_TOP
62
3
100
AcDbCircle
39
0.254000
10
11.176000
20
6.604000
30
0
40
1.527000
0
ARC
5
3E
100
AcDbEntity
8
COPPER_TOP
62
3
100
AcDbCircle
39
0.254000
10
16.256000
20
6.604000
30
0.0
40
1.527000
100
AcDbArc
50
110.769485
51
159.230515
0
LWPOLYLINE
5
3F
100
AcDbEntity
8
COPPER_TOP
62
3
100
AcDbPolyline
90
3
70
0
43
0.254000
39
0.254000
10
15.714512
20
8.031767
10
15.714512
20
7.145488
10
14.828233
20
7.145488
0
ARC
5
40
100
AcDbEntity
8
COPPER_TOP
62
3
100
AcDbCircle
39
0.254000
10
16.256000
20
6.604000
30
0.0
40
1.527000
100
AcDbArc
50
20.769485
51
69.230515
0
LWPOLYLINE
5
41
100
AcDbEntity
8
COPPER_TOP
62
3
100
AcDbPolyline
90
3
70
0
43
0.254000
39
0.254000
10
17.683767
20
7.145488
10
16.797488
20
7.145488
10
16.797488
20
8.031767
0
ARC
5
42
100
AcDbEntity
8
COPPER_TOP
62
3
100
AcDbCircle
39
0.254000
10
16.256000
20
6.604000
30
0.0
40
1.527000
100
AcDbArc
50
290.769485
51
339.230515
0
LWPOLYLINE
5
43
100
AcDbEntity
8
COPPER_TOP
62
3
100
AcDbPolyline
90
3
70
0
43
0.254000
39
0.254000
10
16.797488
20
5.176233
10
16.797488
20
6.062512
10
17.683767
20
6.062512
0
ARC
5
44
100
AcDbEntity
8
COPPER_TOP
62
3
100
AcDbCircle
39
0.254000
10
16.256000
20
6.604000
30
0.0
40
1.527000
100
AcDbArc
50
200.769485
51
249.230515
0
LWPOLYLINE
5
45
100
AcDbEntity
8
COPPER_TOP
62
3
100
AcDbPolyline
90
3
70
0
43
0.254000
39
0.254000
10
14.828233
20
6.062512
10
15.714512
20
6.062512
10
15.714512
20
5.176233
0
CIRCLE
5
46
100
AcDbEntity
8
COPPER_TOP
62
3
100
AcDbCircle
39
0.254000
10
16.256000
20
6.604000
30
0
40
0.500000
0
CIRCLE
5
47
100
AcDbEntity
8
COPPER_TOP
62
3
100
AcDbCircle
39
0.254000
10
21.336000
20
6.604000
30
0
40
1.527000
0
ARC
5
48
100
AcDbEntity
8
COPPER_TOP
62
3
100
AcDbCircle
39
0.254000
10
26.416000
20
6.604000
30
0.0
40
1.527000
100
AcDbArc
50
110.769485
51
159.230515
0
LWPOLYLINE
5
49
100
AcDbEntity
8
COPPER_TOP
62
3
100
AcDbPolyline
90
3
70
0
43
0.254000
39
0.254000
10
25.874512
20
8.031767
10
25.874512
20
7.145488
10
24.988233
20
7.145488
0
ARC
5
4A
100
AcDbEntity
8
COPPER_TOP
62
3
100
AcDbCircle
39
0.254000
10
26.416000
20
6.604000
30
0.0
40
1.527000
100
AcDbArc
50
20.769485
51
69.230515
0
LWPOLYLINE
5
4B
100
AcDbEntity
8
COPPER_TOP
62
3
100
AcDbPolyline
90
3
70
0
43
0.254000
39
0.254000
10
27.843767
20
7.145488
10
26.957488
20
7.145488
10
26.957488
20
8.031767
0
ARC
5
4C
100
AcDbEntity
8
COPPER_TOP
62
3
100
AcDbCircle
39
0.254000
10
26.416000
20
6.604000
30
0.0
40
1.527000
100
AcDbArc
50
290.769485
51
339.230515
0
LWPOLYLINE
5
4D
100
AcDbEntity
8
COPPER_TOP
62
3
100
AcDbPolyline
90
3
70
0
43
0.254000
39
0.254000
10
26.957488
20
5.176233
10
26.957488
20
6.062512
10
27.843767
20
6.062512
0
ARC
5
4E
100
AcDbEntity
8
COPPER_TOP
62
3
100
AcDbCircle
39
0.254000
10
26.416000
20
6.604000
30
0.0
40
1.527000
100
AcDbArc
50
200.769485
51
249.230515
0
LWPOLYLINE
5
4F
100
AcDbEntity
8
COPPER_TOP
62
3
100
AcDbPolyline
90
3
70
0
43
0.254000
39
0.254000
10
24.988233
20
6.062512
10
25.874512
20
6.062512
10
25.874512
20
5.176233
0
CIRCLE
5
50
100
AcDbEntity
8
COPPER_TOP
62
3
100
AcDbCircle
39
0.254000
10
26.416000
20
6.604000
30
0
40
0.500000
0
CIRCLE
5
51
100
AcDbEntity
8
COPPER_TOP
62
3
100
AcDbCircle
39
0.254000
10
31.496000
20
6.604000
30
0
40
1.527000
0
CIRCLE
5
52
100
AcDbEntity
8
COPPER_TOP
62
3
100
AcDbCircle
39
0.254000
10
36.576000
20
6.604000
30
0
40
1.527000
0
CIRCLE
5
53
100
AcDbEntity
8
COPPER_TOP
62
3
100
AcDbCircle
39
0.254000
10
43.932000
20
3.810000
30
0
40
1.527000
0
CIRCLE
5
54
100
AcDbEntity
8
COPPER_TOP
62
3
100
AcDbCircle
39
0.254000
10
49.012000
20
3.810000
30
0
40
1.527000
0
CIRCLE
5
55
100
AcDbEntity
8
COPPER_TOP
62
3
100
AcDbCircle
39
0.254000
10
54.092000
20
3.810000
30
0
40
1.527000
0
CIRCLE
5
56
100
AcDbEntity
8
COPPER_TOP
62
3
100
AcDbCircle
39
0.254000
10
61.712000
20
3.810000
30
0
40
1.527000
0
ARC
5
57
100
AcDbEntity
8
COPPER_TOP
62
3
100
AcDbCircle
39
0.254000
10
43.932000
20
11.430000
30
0.0
40
1.527000
100
AcDbArc
50
110.769485
51
159.230515
0
LWPOLYLINE
5
58
100
AcDbEntity
8
COPPER_TOP
62
3
100
AcDbPolyline
90
3
70
0
43
0.254000
39
0.254000
10
43.390512
20
12.857767
10
43.390512
20
11.971488
10
42.504233
20
11.971488
0
ARC
5
59
100
AcDbEntity
8
COPPER_TOP
62
3
100
AcDbCircle
39
0.254000
10
43.932000
20
11.430000
30
0.0
40
1.527000
100
AcDbArc
50
20.769485
51
69.230515
0
LWPOLYLINE
5
5A
100
AcDbEntity
8
COPPER_TOP
62
3
100
AcDbPolyline
90
3
70
0
43
0.254000
39
0.254000
10
45.359767
20
11.971488
10
44.473488
20
11.971488
10
44.473488
20
12.857767
0
ARC
5
5B
100
AcDbEntity
8
COPPER_TOP
62
3
100
AcDbCircle
39
0.254000
10
43.932000
20
11.430000
30
0.0
40
1.527000
100
AcDbArc
50
290.769485
51
339.230515
0
LWPOLYLINE
5
5C
100
AcDbEntity
8
COPPER_TOP
62
3
100
AcDbPolyline
90
3
70
0
43
0.254000
39
0.254000
10
44.473488
20
10.002233
10
44.473488
20
10.888512
10
45.359767
20
10.888512
0
ARC
5
5D
100
AcDbEntity
8
COPPER_TOP
62
3
100
AcDbCircle
39
0.254000
10
43.932000
20
11.430000
30
0.0
40
1.527000
100
AcDbArc
50
200.769485
51
249.230515
0
LWPOLYLINE
5
5E
100
AcDbEntity
8
COPPER_TOP
62
3
100
AcDbPolyline
90
3
70
0
43
0.254000
39
0.254000
10
42.504233
20
10.888512
10
43.390512
20
10.888512
10
43.390512
20
10.002233
0
CIRCLE
5
5F
100
AcDbEntity
8
COPPER_TOP
62
3
100
AcDbCircle
39
0.254000
10
43.932000
20
11.430000
30
0
40
0.500000
0
CIRCLE
5
60
100
AcDbEntity
8
COPPER_TOP
62
3
100
AcDbCircle
39
0.254000
10
49.012000
20
11.430000
30
0
40
1.527000
0
CIRCLE
5
61
100
AcDbEntity
8
COPPER_TOP
62
3
100
AcDbCircle
39
0.254000
10
54.092000
20
11.430000
30
0
40
1.527000
0
ARC
5
62
100
AcDbEntity
8
COPPER_TOP
62
3
100
AcDbCircle
39
0.254000
10
61.712000
20
11.430000
30
0.0
40
1.527000
100
AcDbArc
50
110.769485
51
159.230515
0
LWPOLYLINE
5
63
100
AcDbEntity
8
COPPER_TOP
62
3
100
AcDbPolyline
90
3
70
0
43
0.254000
39
0.254000
10
61.170512
20
12.857767
10
61.170512
20
11.971488
10
60.284233
20
11.971488
0
ARC
5
64
100
AcDbEntity
8
COPPER_TOP
62
3
100
AcDbCircle
39
0.254000
10
61.712000
20
11.430000
30
0.0
40
1.527000
100
AcDbArc
50
20.769485
51
69.230515
0
LWPOLYLINE
5
65
100
AcDbEntity
8
COPPER_TOP
62
3
100
AcDbPolyline
90
3
70
0
43
0.254000
39
0.254000
10
63.139767
20
11.971488
10
62.253488
20
11.971488
10
62.253488
20
12.857767
0
ARC
5
66
100
AcDbEntity
8
COPPER_TOP
62
3
100
AcDbCircle
39
0.254000
10
61.712000
20
11.430000
30
0.0
40
1.527000
100
AcDbArc
50
290.769485
51
339.230515
0
LWPOLYLINE
5
67
100
AcDbEntity
8
COPPER_TOP
62
3
100
AcDbPolyline
90
3
70
0
43
0.254000
39
0.254000
10
62.253488
20
10.002233
10
62.253488
20
10.888512
10
63.139767
20
10.888512
0
ARC
5
68
100
AcDbEntity
8
COPPER_TOP
62
3
100
AcDbCircle
39
0.254000
10
61.712000
20
11.430000
30
0.0
40
1.527000
100
AcDbArc
50
200.769485
51
249.230515
0
LWPOLYLINE
5
69
100
AcDbEntity
8
COPPER_TOP
62
3
100
AcDbPolyline
90
3
70
0
43
0.254000
39
0.254000
10
60.284233
20
10.888512
10
61.170512
20
10.888512
10
61.170512
20
10.002233
0
CIRCLE
5
6A
100
AcDbEntity
8
COPPER_TOP
62
3
100
AcDbCircle
39
0.254000
10
61.712000
20
11.430000
30
0
40
0.500000
0
LWPOLYLINE
5
6B
100
AcDbEntity
8
COPPER_TOP
62
3
100
AcDbPolyline
90
2
70
0
43
0.254000
39
0.254000
10
18.205000
20
14.359883
10
18.205000
20
14.771452
0
ARC
5
6C
100
AcDbEntity
8
COPPER_TOP
62
3
100
AcDbCircle
39
0.254000
10
18.682468
20
14.771452
30
0.0
40
0.477468
100
AcDbArc
50
90.000000
51
180.000000
0
LWPOLYLINE
5
6D
100
AcDbEntity
8
COPPER_TOP
62
3
100
AcDbPolyline
90
2
70
0
43
0.254000
39
0.254000
10
18.682468
20
15.248920
10
23.989532
20
15.248920
0
ARC
5
6E
100
AcDbEntity
8
COPPER_TOP
62
3
100
AcDbCircle
39
0.254000
10
23.989532
20
14.771452
30
0.0
40
0.477468
100
AcDbArc
50
0.000000
51
90.000000
0
LWPOLYLINE
5
6F
100
AcDbEntity
8
COPPER_TOP
62
3
100
AcDbPolyline
90
2
70
0
43
0.254000
39
0.254000
10
24.467000
20
14.771452
10
24.467000
20
10.472388
0
ARC
5
70
100
AcDbEntity
8
COPPER_TOP
62
3
100
AcDbCircle
39
0.254000
10
23.989532
20
10.472388
30
0.0
40
0.477468
100
AcDbArc
50
270.000000
51
0.000000
0
LWPOLYLINE
5
71
100
AcDbEntity
8
COPPER_TOP
62
3
100
AcDbPolyline
90
2
70
0
43
0.254000
39
0.254000
10
23.989532
20
9.994920
10
18.682468
20
9.994920
0
ARC
5
72
100
AcDbEntity
8
COPPER_TOP
62
3
100
AcDbCircle
39
0.254000
10
18.682468
20
10.472388
30
0.0
40
0.477468
100
AcDbArc
50
180.000000
51
270.000000
0
LWPOLYLINE
5
73
100
AcDbEntity
8
COPPER_TOP
62
3
100
AcDbPolyline
90
2
70
0
43
0.254000
39
0.254000
10
18.205000
20
10.472388
10
18.205000
20
10.883957
0
ARC
5
74
100
AcDbEntity
8
COPPER_TOP
62
3
100
AcDbCircle
39
0.254000
10
17.910228
20
11.267692
30
0.0
40
0.483883
100
AcDbArc
50
270.000000
51
307.530258
0
LWPOLYLINE
5
75
100
AcDbEntity
8
COPPER_TOP
62
3
100
AcDbPolyline
90
2
70
0
43
0.254000
39
0.254000
10
17.910228
20
10.783809
10
13.361772
20
10.783809
0
ARC
5
76
100
AcDbEntity
8
COPPER_TOP
62
3
100
AcDbCircle
39
0.254000
10
13.361772
20
11.267692
30
0.0
40
0.483883
100
AcDbArc
50
235.255727
51
270.000000
0
ARC
5
77
100
AcDbEntity
8
COPPER_TOP
62
3
100
AcDbCircle
39
0.254000
10
12.810228
20
11.267692
30
0.0
40
0.483883
100
AcDbArc
50
270.000000
51
304.744273
0
LWPOLYLINE
5
78
100
AcDbEntity
8
COPPER_TOP
62
3
100
AcDbPolyline
90
2
70
0
43
0.254000
39
0.254000
10
12.810228
20
10.783809
10
9.541772
20
10.783809
0
ARC
5
79
100
AcDbEntity
8
COPPER_TOP
62
3
100
AcDbCircle
39
0.254000
10
9.541772
20
11.267692
30
0.0
40
0.483883
100
AcDbArc
50
180.000000
51
270.000000
0
LWPOLYLINE
5
7A
100
AcDbEntity
8
COPPER_TOP
62
3
100
AcDbPolyline
90
2
70
0
43
0.254000
39
0.254000
10
9.057889
20
11.267692
10
9.057889
20
13.976148
0
ARC
5
7B
100
AcDbEntity
8
COPPER_TOP
62
3
100
AcDbCircle
39
0.254000
10
9.541772
20
13.976148
30
0.0
40
0.483883
100
AcDbArc
50
90.000000
51
180.000000
0
LWPOLYLINE
5
7C
100
AcDbEntity
8
COPPER_TOP
62
3
100
AcDbPolyline
90
2
70
0
43
0.254000
39
0.254000
10
9.541772
20
14.460031
10
12.810228
20
14.460031
0
ARC
5
7D
100
AcDbEntity
8
COPPER_TOP
62
3
100
AcDbCircle
39
0.254000
10
12.810228
20
13.976148
30
0.0
40
0.483883
100
AcDbArc
50
55.255727
51
90.000000
0
ARC
5
7E
100
AcDbEntity
8
COPPER_TOP
62
3
100
AcDbCircle
39
0.254000
10
13.361772
20
13.976148
30
0.0
40
0.483883
100
AcDbArc
50
90.000000
51
124.744273
0
LWPOLYLINE
5
7F
100
AcDbEntity
8
COPPER_TOP
62
3
100
AcDbPolyline
90
2
70
0
43
0.254000
39
0.254000
10
13.361772
20
14.460031
10
17.910228
20
14.460031
0
ARC
5
80
100
AcDbEntity
8
COPPER_TOP
62
3
100
AcDbCircle
39
0.254000
10
17.910228
20
13.976148
30
0.0
40
0.483883
100
AcDbArc
50
52.469742
51
90.000000
0
ARC
5
81
100
AcDbEntity
8
COPPER_TOP
62
3
100
AcDbCircle
39
0.254000
10
34.301772
20
14.976148
30
0.0
40
0.483883
100
AcDbArc
50
90.000000
51
145.686909
0
LWPOLYLINE
5
82
100
AcDbEntity
8
COPPER_TOP
62
3
100
AcDbPolyline
90
2
70
0
43
0.254000
39
0.254000
10
34.301772
20
15.460031
10
38.850228
20
15.460031
0
ARC
5
83
100
AcDbEntity
8
COPPER_TOP
62
3
100
AcDbCircle
39
0.254000
10
38.850228
20
14.976148
30
0.0
40
0.483883
100
AcDbArc
50
0.000000
51
90.000000
0
LWPOLYLINE
5
84
100
AcDbEntity
8
COPPER_TOP
62
3
100
AcDbPolyline
90
2
70
0
43
0.254000
39
0.254000
10
39.334111
20
14.976148
10
39.334111
20
10.267692
0
ARC
5
85
100
AcDbEntity
8
COPPER_TOP
62
3
100
AcDbCircle
39
0.254000
10
38.850228
20
10.267692
30
0.0
40
0.483883
100
AcDbArc
50
270.000000
51
0.000000
0
LWPOLYLINE
5
86
100
AcDbEntity
8
COPPER_TOP
62
3
100
AcDbPolyline
90
2
70
0
43
0.254000
39
0.254000
10
38.850228
20
9.783809
10
34.301772
20
9.783809
0
ARC
5
87
100
AcDbEntity
8
COPPER_TOP
62
3
100
AcDbCircle
39
0.254000
10
34.301772
20
10.267692
30
0.0
40
0.483883
100
AcDbArc
50
214.313091
51
270.000000
0
LWPOLYLINE
5
88
100
AcDbEntity
8
COPPER_TOP
62
3
100
AcDbPolyline
90
2
70
0
43
0.254000
39
0.254000
10
33.902099
20
9.994920
10
28.842468
20
9.994920
0
ARC
5
89
100
AcDbEntity
8
COPPER_TOP
62
3
100
AcDbCircle
39
0.254000
10
28.842468
20
10.472388
30
0.0
40
0.477468
100
AcDbArc
50
180.000000
51
270.000000
0
LWPOLYLINE
5
8A
100
AcDbEntity
8
COPPER_TOP
62
3
100
AcDbPolyline
90
2
70
0
43
0.254000
39
0.254000
10
28.365000
20
10.472388
10
28.365000
20
14.771452
0
ARC
5
8B
100
AcDbEntity
8
COPPER_TOP
62
3
100
AcDbCircle
39
0.254000
10
28.842468
20
14.771452
30
0.0
40
0.477468
100
AcDbArc
50
90.000000
51
180.000000
0
LWPOLYLINE
5
8C
100
AcDbEntity
8
COPPER_TOP
62
3
100
AcDbPolyline
90
2
70
0
43
0.254000
39
0.254000
10
28.842468
20
15.248920
10
33.902099
20
15.248920
0
ARC
5
8D
100
AcDbEntity
8
COPPER_TOP
62
3
100
AcDbCircle
39
0.254000
10
2.900811
20
18.709189
30
0.0
40
0.548033
100
AcDbArc
50
90.000000
51
180.000000
0
LWPOLYLINE
5
8E
100
AcDbEntity
8
COPPER_TOP
62
3
100
AcDbPolyline
90
2
70
0
43
0.254000
39
0.254000
10
2.900811
20
19.257222
10
7.703189
20
19.257222
0
ARC
5
8F
100
AcDbEntity
8
COPPER_TOP
62
3
100
AcDbCircle
39
0.254000
10
7.703189
20
18.709189
30
0.0
40
0.548033
100
AcDbArc
50
0.000000
51
90.000000
0
LWPOLYLINE
5
90
100
AcDbEntity
8
COPPER_TOP
62
3
100
AcDbPolyline
90
2
70
0
43
0.254000
39
0.254000
10
8.251222
20
18.709189
10
8.251222
20
15.346811
0
ARC
5
91
100
AcDbEntity
8
COPPER_TOP
62
3
100
AcDbCircle
39
0.254000
10
7.703189
20
15.346811
30
0.0
40
0.548033
100
AcDbArc
50
270.000000
51
0.000000
0
LWPOLYLINE
5
92
100
AcDbEntity
8
COPPER_TOP
62
3
100
AcDbPolyline
90
2
70
0
43
0.254000
39
0.254000
10
7.703189
20
14.798778
10
2.900811
20
14.798778
0
ARC
5
93
100
AcDbEntity
8
COPPER_TOP
62
3
100
AcDbCircle
39
0.254000
10
2.900811
20
15.346811
30
0.0
40
0.548033
100
AcDbArc
50
180.000000
51
270.000000
0
LWPOLYLINE
5
94
100
AcDbEntity
8
COPPER_TOP
62
3
100
AcDbPolyline
90
2
70
0
43
0.254000
39
0.254000
10
2.352778
20
15.346811
10
2.352778
20
18.709189
0
CIRCLE
5
95
100
AcDbEntity
8
COPPER_TOP
62
3
100
AcDbCircle
39
0.254000
10
11.010000
20
20.828000
30
0
40
1.827000
0
CIRCLE
5
96
100
AcDbEntity
8
COPPER_TOP
62
3
100
AcDbCircle
39
0.254000
10
60.110000
20
20.828000
30
0
40
1.827000
0
ARC
5
97
100
AcDbEntity
8
COPPER_TOP
62
3
100
AcDbCircle
39
0.254000
10
63.860811
20
18.455189
30
0.0
40
0.548033
100
AcDbArc
50
90.000000
51
180.000000
0
LWPOLYLINE
5
98
100
AcDbEntity
8
COPPER_TOP
62
3
100
AcDbPolyline
90
2
70
0
43
0.254000
39
0.254000
10
63.860811
20
19.003222
10
68.663189
20
19.003222
0
ARC
5
99
100
AcDbEntity
8
COPPER_TOP
62
3
100
AcDbCircle
39
0.254000
10
68.663189
20
18.455189
30
0.0
40
0.548033
100
AcDbArc
50
0.000000
51
90.000000
0
LWPOLYLINE
5
9A
100
AcDbEntity
8
COPPER_TOP
62
3
100
AcDbPolyline
90
2
70
0
43
0.254000
39
0.254000
10
69.211222
20
18.455189
10
69.211222
20
15.092811
0
ARC
5
9B
100
AcDbEntity
8
COPPER_TOP
62
3
100
AcDbCircle
39
0.254000
10
68.663189
20
15.092811
30
0.0
40
0.548033
100
AcDbArc
50
270.000000
51
0.000000
0
LWPOLYLINE
5
9C
100
AcDbEntity
8
COPPER_TOP
62
3
100
AcDbPolyline
90
2
70
0
43
0.254000
39
0.254000
10
68.663189
20
14.544778
10
63.860811
20
14.544778
0
ARC
5
9D
100
AcDbEntity
8
COPPER_TOP
62
3
100
AcDbCircle
39
0.254000
10
63.860811
20
15.092811
30
0.0
40
0.548033
100
AcDbArc
50
180.000000
51
270.000000
0
LWPOLYLINE
5
9E
100
AcDbEntity
8
COPPER_TOP
62
3
100
AcDbPolyline
90
2
70
0
43
0.254000
39
0.254000
10
63.312778
20
15.092811
10
63.312778
20
18.455189
0
LWPOLYLINE
5
9F
100
AcDbEntity
8
COPPER_TOP
62
3
100
AcDbPolyline
90
2
70
0
43
0.254000
39
0.254000
10
66.736867
20
27.269483
10
5.263133
20
27.269483
0
ARC
5
A0
100
AcDbEntity
8
COPPER_TOP
62
3
100
AcDbCircle
39
0.254000
10
4.000000
20
24.000000
30
0.0
40
3.505000
100
AcDbArc
50
201.123561
51
68.876439
0
LWPOLYLINE
5
A1
100
AcDbEntity
8
COPPER_TOP
62
3
100
AcDbPolyline
90
2
70
0
43
0.254000
39
0.254000
10
0.730517
20
22.736867
10
0.730517
20
5.263133
0
ARC
5
A2
100
AcDbEntity
8
COPPER_TOP
62
3
100
AcDbCircle
39
0.254000
10
4.000000
20
4.000000
30
0.0
40
3.505000
100
AcDbArc
50
291.123561
51
158.876439
0
LWPOLYLINE
5
A3
100
AcDbEntity
8
COPPER_TOP
62
3
100
AcDbPolyline
90
2
70
0
43
0.254000
39
0.254000
10
5.263133
20
0.730517
10
66.736867
20
0.730517
0
ARC
5
A4
100
AcDbEntity
8
COPPER_TOP
62
3
100
AcDbCircle
39
0.254000
10
68.000000
20
4.000000
30
0.0
40
3.505000
100
AcDbArc
50
21.123561
51
248.876439
0
LWPOLYLINE
5
A5
100
AcDbEntity
8
COPPER_TOP
62
3
100
AcDbPolyline
90
2
70
0
43
0.254000
39
0.254000
10
71.269483
20
5.263133
10
71.269483
20
22.736867
0
ARC
5
A6
100
AcDbEntity
8
COPPER_TOP
62
3
100
AcDbCircle
39
0.254000
10
68.000000
20
24.000000
30
0.0
40
3.505000
100
AcDbArc
50
111.123561
51
338.876439
0
HATCH
5
A7
100
AcDbEntity
8
COPPER_TOP
62
3
100
AcDbHatch
10
0.0
20
0.0
30
0.0
210
0.0
220
0.0
230
1.0
2
SOLID
70
1
71
0
91
1
92
1
93
3
72
1
10
69.263133
20
27.269483
11
71.269483
21
27.269483
72
1
10
71.269483
20
27.269483
11
71.269483
21
25.263133
72
2
10
68.000000
20
24.000000
40
3.505000
50
21.123561
51
68.876439
73
1
97
0
75
0
76
0
98
1
10
0.0
20
0.0
0
LWPOLYLINE
5
A8
100
AcDbEntity
8
COPPER_TOP
62
3
100
AcDbPolyline
90
3
70
0
43
0.254000
39
0.254000
10
69.263133
20
27.269483
10
71.269483
20
27.269483
10
71.269483
20
25.263133
0
ARC
5
A9
100
AcDbEntity
8
COPPER_TOP
62
3
100
AcDbCircle
39
0.254000
10
68.000000
20
24.000000
30
0.0
40
3.505000
100
AcDbArc
50
21.123561
51
68.876439
0
TEXT
5
AA
100
AcDbEntity
8
COPPER_TOP
100
AcDbText
39
0.444444
10
66.262000
20
16.774000
30
0.0
40
2.666667
1
+
41
0.995556
7
MONOTxtStyle
50
90.000000
72
1
11
66.262000
21
16.774000
31
0.0
100
AcDbText
73
2
0
TEXT
5
AB
100
AcDbEntity
8
COPPER_TOP
100
AcDbText
39
0.444444
10
5.302000
20
17.028000
30
0.0
40
2.666667
1
-
41
0.995556
7
MONOTxtStyle
50
90.000000
72
1
11
5.302000
21
17.028000
31
0.0
100
AcDbText
73
2
0
TEXT
5
AC
100
AcDbEntity
8
COPPER_TOP
100
AcDbText
39
0.222222
10
11.176000
20
12.621920
30
0.0
40
1.333333
1
5V
41
0.995556
7
MONOTxtStyle
72
1
11
11.176000
21
12.621920
31
0.0
100
AcDbText
73
2
0
TEXT
5
AD
100
AcDbEntity
8
COPPER_TOP
100
AcDbText
39
0.222222
10
15.636000
20
12.621920
30
0.0
40
1.333333
1
GND
41
0.995556
7
MONOTxtStyle
72
1
11
15.636000
21
12.621920
31
0.0
100
AcDbText
73
2
0
MTEXT
5
AE
100
AcDbEntity
8
COPPER_TOP
100
AcDbMText
10
21.336000
20
12.621920
30
0.0
40
1.200000
41
9.216000
71
5
72
5
1
-1.5\PVI
7
MONOTxtStyle
42
1.152000
0
MTEXT
5
AF
100
AcDbEntity
8
COPPER_TOP
100
AcDbMText
10
31.496000
20
12.621920
30
0.0
40
1.200000
41
9.216000
71
5
72
5
1
-1.5\PVO
7
MONOTxtStyle
42
1.152000
0
MTEXT
5
B0
100
AcDbEntity
8
COPPER_TOP
100
AcDbMText
10
36.576000
20
12.621920
30
0.0
40
1.333333
41
7.680000
71
5
72
5
1
GND\PVO
7
MONOTxtStyle
42
1.280000
0
HATCH
5
B1
100
AcDbEntity
8
COPPER_TOP
100
AcDbHatch
10
0.0
20
0.0
30
0.0
210
0.0
220
0.0
230
1.0
2
SOLID
70
1
71
0
91
2
92
1
93
1
72
2
10
11.176000
20
6.604000
40
0.800000
50
0.000000
51
360.000000
73
1
97
0
92
1
93
1
72
2
10
11.176000
20
6.604000
40
0.500000
50
0.000000
51
360.000000
73
1
97
0
75
0
76
0
98
1
10
0.0
20
0.0
0
HATCH
5
B2
100
AcDbEntity
8
COPPER_TOP
100
AcDbHatch
10
0.0
20
0.0
30
0.0
210
0.0
220
0.0
230
1.0
2
SOLID
70
1
71
0
91
2
92
1
93
1
72
2
10
16.256000
20
6.604000
40
0.800000
50
0.000000
51
360.000000
73
1
97
0
92
1
93
1
72
2
10
16.256000
20
6.604000
40
0.500000
50
0.000000
51
360.000000
73
1
97
0
75
0
76
0
98
1
10
0.0
20
0.0
0
HATCH
5
B3
100
AcDbEntity
8
COPPER_TOP
100
AcDbHatch
10
0.0
20
0.0
30
0.0
210
0.0
220
0.0
230
1.0
2
SOLID
70
1
71
0
91
2
92
1
93
1
72
2
10
21.336000
20
6.604000
40
0.800000
50
0.000000
51
360.000000
73
1
97
0
92
1
93
1
72
2
10
21.336000
20
6.604000
40
0.500000
50
0.000000
51
360.000000
73
1
97
0
75
0
76
0
98
1
10
0.0
20
0.0
0
HATCH
5
B4
100
AcDbEntity
8
COPPER_TOP
100
AcDbHatch
10
0.0
20
0.0
30
0.0
210
0.0
220
0.0
230
1.0
2
SOLID
70
1
71
0
91
2
92
1
93
1
72
2
10
26.416000
20
6.604000
40
0.800000
50
0.000000
51
360.000000
73
1
97
0
92
1
93
1
72
2
10
26.416000
20
6.604000
40
0.500000
50
0.000000
51
360.000000
73
1
97
0
75
0
76
0
98
1
10
0.0
20
0.0
0
HATCH
5
B5
100
AcDbEntity
8
COPPER_TOP
100
AcDbHatch
10
0.0
20
0.0
30
0.0
210
0.0
220
0.0
230
1.0
2
SOLID
70
1
71
0
91
2
92
1
93
1
72
2
10
31.496000
20
6.604000
40
0.800000
50
0.000000
51
360.000000
73
1
97
0
92
1
93
1
72
2
10
31.496000
20
6.604000
40
0.500000
50
0.000000
51
360.000000
73
1
97
0
75
0
76
0
98
1
10
0.0
20
0.0
0
HATCH
5
B6
100
AcDbEntity
8
COPPER_TOP
100
AcDbHatch
10
0.0
20
0.0
30
0.0
210
0.0
220
0.0
230
1.0
2
SOLID
70
1
71
0
91
2
92
1
93
1
72
2
10
36.576000
20
6.604000
40
0.800000
50
0.000000
51
360.000000
73
1
97
0
92
1
93
1
72
2
10
36.576000
20
6.604000
40
0.500000
50
0.000000
51
360.000000
73
1
97
0
75
0
76
0
98
1
10
0.0
20
0.0
0
HATCH
5
B7
100
AcDbEntity
8
COPPER_TOP
100
AcDbHatch
10
0.0
20
0.0
30
0.0
210
0.0
220
0.0
230
1.0
2
SOLID
70
1
71
0
91
2
92
1
93
1
72
2
10
11.010000
20
20.828000
40
1.100000
50
0.000000
51
360.000000
73
1
97
0
92
1
93
1
72
2
10
11.010000
20
20.828000
40
0.600000
50
0.000000
51
360.000000
73
1
97
0
75
0
76
0
98
1
10
0.0
20
0.0
0
HATCH
5
B8
100
AcDbEntity
8
COPPER_TOP
100
AcDbHatch
10
0.0
20
0.0
30
0.0
210
0.0
220
0.0
230
1.0
2
SOLID
70
1
71
0
91
2
92
1
93
1
72
2
10
60.110000
20
20.828000
40
1.100000
50
0.000000
51
360.000000
73
1
97
0
92
1
93
1
72
2
10
60.110000
20
20.828000
40
0.600000
50
0.000000
51
360.000000
73
1
97
0
75
0
76
0
98
1
10
0.0
20
0.0
0
HATCH
5
B9
100
AcDbEntity
8
COPPER_TOP
100
AcDbHatch
10
0.0
20
0.0
30
0.0
210
0.0
220
0.0
230
1.0
2
SOLID
70
1
71
0
91
2
92
1
93
1
72
2
10
43.932000
20
3.810000
40
0.800000
50
0.000000
51
360.000000
73
1
97
0
92
1
93
1
72
2
10
43.932000
20
3.810000
40
0.500000
50
0.000000
51
360.000000
73
1
97
0
75
0
76
0
98
1
10
0.0
20
0.0
0
HATCH
5
BA
100
AcDbEntity
8
COPPER_TOP
100
AcDbHatch
10
0.0
20
0.0
30
0.0
210
0.0
220
0.0
230
1.0
2
SOLID
70
1
71
0
91
2
92
1
93
1
72
2
10
49.012000
20
3.810000
40
0.800000
50
0.000000
51
360.000000
73
1
97
0
92
1
93
1
72
2
10
49.012000
20
3.810000
40
0.500000
50
0.000000
51
360.000000
73
1
97
0
75
0
76
0
98
1
10
0.0
20
0.0
0
HATCH
5
BB
100
AcDbEntity
8
COPPER_TOP
100
AcDbHatch
10
0.0
20
0.0
30
0.0
210
0.0
220
0.0
230
1.0
2
SOLID
70
1
71
0
91
2
92
1
93
1
72
2
10
54.092000
20
3.810000
40
0.800000
50
0.000000
51
360.000000
73
1
97
0
92
1
93
1
72
2
10
54.092000
20
3.810000
40
0.500000
50
0.000000
51
360.000000
73
1
97
0
75
0
76
0
98
1
10
0.0
20
0.0
0
HATCH
5
BC
100
AcDbEntity
8
COPPER_TOP
100
AcDbHatch
10
0.0
20
0.0
30
0.0
210
0.0
220
0.0
230
1.0
2
SOLID
70
1
71
0
91
2
92
1
93
1
72
2
10
61.712000
20
3.810000
40
0.800000
50
0.000000
51
360.000000
73
1
97
0
92
1
93
1
72
2
10
61.712000
20
3.810000
40
0.500000
50
0.000000
51
360.000000
73
1
97
0
75
0
76
0
98
1
10
0.0
20
0.0
0
HATCH
5
BD
100
AcDbEntity
8
COPPER_TOP
100
AcDbHatch
10
0.0
20
0.0
30
0.0
210
0.0
220
0.0
230
1.0
2
SOLID
70
1
71
0
91
2
92
1
93
1
72
2
10
43.932000
20
11.430000
40
0.800000
50
0.000000
51
360.000000
73
1
97
0
92
1
93
1
72
2
10
43.932000
20
11.430000
40
0.500000
50
0.000000
51
360.000000
73
1
97
0
75
0
76
0
98
1
10
0.0
20
0.0
0
HATCH
5
BE
100
AcDbEntity
8
COPPER_TOP
100
AcDbHatch
10
0.0
20
0.0
30
0.0
210
0.0
220
0.0
230
1.0
2
SOLID
70
1
71
0
91
2
92
1
93
1
72
2
10
49.012000
20
11.430000
40
0.800000
50
0.000000
51
360.000000
73
1
97
0
92
1
93
1
72
2
10
49.012000
20
11.430000
40
0.500000
50
0.000000
51
360.000000
73
1
97
0
75
0
76
0
98
1
10
0.0
20
0.0
0
HATCH
5
BF
100
AcDbEntity
8
COPPER_TOP
100
AcDbHatch
10
0.0
20
0.0
30
0.0
210
0.0
220
0.0
230
1.0
2
SOLID
70
1
71
0
91
2
92
1
93
1
72
2
10
54.092000
20
11.430000
40
0.800000
50
0.000000
51
360.000000
73
1
97
0
92
1
93
1
72
2
10
54.092000
20
11.430000
40
0.500000
50
0.000000
51
360.000000
73
1
97
0
75
0
76
0
98
1
10
0.0
20
0.0
0
HATCH
5
C0
100
AcDbEntity
8
COPPER_TOP
100
AcDbHatch
10
0.0
20
0.0
30
0.0
210
0.0
220
0.0
230
1.0
2
SOLID
70
1
71
0
91
2
92
1
93
1
72
2
10
61.712000
20
11.430000
40
0.800000
50
0.000000
51
360.000000
73
1
97
0
92
1
93
1
72
2
10
61.712000
20
11.430000
40
0.500000
50
0.000000
51
360.000000
73
1
97
0
75
0
76
0
98
1
10
0.0
20
0.0
0
HATCH
5
C1
100
AcDbEntity
8
COPPER_BOTTOM
62
255
100
AcDbHatch
10
0.0
20
0.0
30
0.0
210
0.0
220
0.0
230
1.0
2
SOLID
70
1
71
0
91
1
92
1
93
1
72
2
10
4.000000
20
4.000000
40
1.600000
50
0.000000
51
360.000000
73
1
97
0
75
0
76
0
98
1
10
0.0
20
0.0
0
CIRCLE
5
C2
100
AcDbEntity
8
COPPER_BOTTOM
62
255
100
AcDbCircle
39
0.000001
10
4.000000
20
4.000000
30
0
40
1.600000
0
HATCH
5
C3
100
AcDbEntity
8
COPPER_BOTTOM
62
255
100
AcDbHatch
10
0.0
20
0.0
30
0.0
210
0.0
220
0.0
230
1.0
2
SOLID
70
1
71
0
91
1
92
1
93
1
72
2
10
4.000000
20
24.000000
40
1.600000
50
0.000000
51
360.000000
73
1
97
0
75
0
76
0
98
1
10
0.0
20
0.0
0
CIRCLE
5
C4
100
AcDbEntity
8
COPPER_BOTTOM
62
255
100
AcDbCircle
39
0.000001
10
4.000000
20
24.000000
30
0
40
1.600000
0
HATCH
5
C5
100
AcDbEntity
8
COPPER_BOTTOM
62
255
100
AcDbHatch
10
0.0
20
0.0
30
0.0
210
0.0
220
0.0
230
1.0
2
SOLID
70
1
71
0
91
1
92
1
93
1
72
2
10
68.000000
20
4.000000
40
1.600000
50
0.000000
51
360.000000
73
1
97
0
75
0
76
0
98
1
10
0.0
20
0.0
0
CIRCLE
5
C6
100
AcDbEntity
8
COPPER_BOTTOM
62
255
100
AcDbCircle
39
0.000001
10
68.000000
20
4.000000
30
0
40
1.600000
0
HATCH
5
C7
100
AcDbEntity
8
COPPER_BOTTOM
62
255
100
AcDbHatch
10
0.0
20
0.0
30
0.0
210
0.0
220
0.0
230
1.0
2
SOLID
70
1
71
0
91
1
92
1
93
1
72
2
10
68.000000
20
24.000000
40
1.600000
50
0.000000
51
360.000000
73
1
97
0
75
0
76
0
98
1
10
0.0
20
0.0
0
CIRCLE
5
C8
100
AcDbEntity
8
COPPER_BOTTOM
62
255
100
AcDbCircle
39
0.000001
10
68.000000
20
24.000000
30
0
40
1.600000
0
LWPOLYLINE
5
C9
100
AcDbEntity
8
COPPER_BOTTOM
62
1
100
AcDbPolyline
90
2
70
0
43
0.499999
39
0.499999
10
61.717000
20
3.551000
10
61.717000
20
3.810000
0
LWPOLYLINE
5
CA
100
AcDbEntity
8
COPPER_BOTTOM
62
1
100
AcDbPolyline
90
2
70
0
43
0.499999
39
0.499999
10
54.092000
20
11.670000
10
54.092000
20
11.430000
0
LWPOLYLINE
5
CB
100
AcDbEntity
8
COPPER_BOTTOM
62
1
100
AcDbPolyline
90
2
70
0
43
0.499999
39
0.499999
10
56.447750
20
8.446750
10
52.005250
20
8.446750
0
LWPOLYLINE
5
CC
100
AcDbEntity
8
COPPER_BOTTOM
62
1
100
AcDbPolyline
90
2
70
0
43
0.499999
39
0.499999
10
52.005250
20
8.446750
10
49.022000
20
11.430000
0
LWPOLYLINE
5
CD
100
AcDbEntity
8
COPPER_BOTTOM
62
1
100
AcDbPolyline
90
2
70
0
43
0.499999
39
0.499999
10
64.244060
20
20.556060
10
64.244060
20
9.634060
0
LWPOLYLINE
5
CE
100
AcDbEntity
8
COPPER_BOTTOM
62
1
100
AcDbPolyline
90
2
70
0
43
0.499999
39
0.499999
10
13.677000
20
23.495000
10
61.305120
20
23.495000
0
LWPOLYLINE
5
CF
100
AcDbEntity
8
COPPER_BOTTOM
62
1
100
AcDbPolyline
90
2
70
0
43
0.499999
39
0.499999
10
11.010000
20
20.828000
10
13.677000
20
23.495000
0
LWPOLYLINE
5
D0
100
AcDbEntity
8
COPPER_BOTTOM
62
1
100
AcDbPolyline
90
2
70
0
43
0.499999
39
0.499999
10
61.305120
20
23.495000
10
64.262000
20
20.538120
0
LWPOLYLINE
5
D1
100
AcDbEntity
8
COPPER_BOTTOM
62
1
100
AcDbPolyline
90
2
70
0
43
0.499999
39
0.499999
10
58.420000
20
19.138000
10
58.420000
20
10.419000
0
LWPOLYLINE
5
D2
100
AcDbEntity
8
COPPER_BOTTOM
62
1
100
AcDbPolyline
90
2
70
0
43
0.499999
39
0.499999
10
58.420000
20
10.419000
10
56.447750
20
8.446750
0
LWPOLYLINE
5
D3
100
AcDbEntity
8
COPPER_BOTTOM
62
1
100
AcDbPolyline
90
2
70
0
43
0.499999
39
0.499999
10
58.420000
20
19.138000
10
60.110000
20
20.828000
0
LWPOLYLINE
5
D4
100
AcDbEntity
8
COPPER_BOTTOM
62
1
100
AcDbPolyline
90
2
70
0
43
0.499999
39
0.499999
10
43.932000
20
3.810000
10
43.937000
20
3.810000
0
LWPOLYLINE
5
D5
100
AcDbEntity
8
COPPER_BOTTOM
62
1
100
AcDbPolyline
90
2
70
0
43
0.499999
39
0.499999
10
25.654000
20
2.286000
10
42.408000
20
2.286000
0
LWPOLYLINE
5
D6
100
AcDbEntity
8
COPPER_BOTTOM
62
1
100
AcDbPolyline
90
2
70
0
43
0.499999
39
0.499999
10
42.408000
20
2.286000
10
43.932000
20
3.810000
0
LWPOLYLINE
5
D7
100
AcDbEntity
8
COPPER_BOTTOM
62
1
100
AcDbPolyline
90
2
70
0
43
0.499999
39
0.499999
10
21.336000
20
6.604000
10
25.654000
20
2.286000
0
LWPOLYLINE
5
D8
100
AcDbEntity
8
COPPER_BOTTOM
62
1
100
AcDbPolyline
90
2
70
0
43
0.499999
39
0.499999
10
31.496000
20
6.604000
10
35.052000
20
3.048000
0
LWPOLYLINE
5
D9
100
AcDbEntity
8
COPPER_BOTTOM
62
1
100
AcDbPolyline
90
2
70
0
43
0.499999
39
0.499999
10
35.052000
20
3.048000
10
40.640000
20
3.048000
0
LWPOLYLINE
5
DA
100
AcDbEntity
8
COPPER_BOTTOM
62
1
100
AcDbPolyline
90
2
70
0
43
0.499999
39
0.499999
10
42.960000
20
5.368000
10
52.544000
20
5.368000
0
LWPOLYLINE
5
DB
100
AcDbEntity
8
COPPER_BOTTOM
62
1
100
AcDbPolyline
90
2
70
0
43
0.499999
39
0.499999
10
52.544000
20
5.368000
10
54.098465
20
3.813535
0
LWPOLYLINE
5
DC
100
AcDbEntity
8
COPPER_BOTTOM
62
1
100
AcDbPolyline
90
2
70
0
43
0.499999
39
0.499999
10
40.640000
20
3.048000
10
42.960000
20
5.368000
0
LWPOLYLINE
5
DD
100
AcDbEntity
8
COPPER_BOTTOM
62
1
100
AcDbPolyline
90
2
70
0
43
0.499999
39
0.499999
10
16.256000
20
1.524000
10
59.690000
20
1.524000
0
LWPOLYLINE
5
DE
100
AcDbEntity
8
COPPER_BOTTOM
62
1
100
AcDbPolyline
90
2
70
0
43
0.499999
39
0.499999
10
50.554000
20
2.278000
10
49.022000
20
3.810000
0
LWPOLYLINE
5
DF
100
AcDbEntity
8
COPPER_BOTTOM
62
1
100
AcDbPolyline
90
2
70
0
43
0.499999
39
0.499999
10
64.244060
20
9.634060
10
56.888000
20
2.278000
0
LWPOLYLINE
5
E0
100
AcDbEntity
8
COPPER_BOTTOM
62
1
100
AcDbPolyline
90
2
70
0
43
0.499999
39
0.499999
10
56.888000
20
2.278000
10
50.554000
20
2.278000
0
LWPOLYLINE
5
E1
100
AcDbEntity
8
COPPER_BOTTOM
62
1
100
AcDbPolyline
90
2
70
0
43
0.499999
39
0.499999
10
59.690000
20
1.524000
10
61.717000
20
3.551000
0
LWPOLYLINE
5
E2
100
AcDbEntity
8
COPPER_BOTTOM
62
1
100
AcDbPolyline
90
2
70
0
43
0.499999
39
0.499999
10
11.176000
20
6.604000
10
16.256000
20
1.524000
0
LWPOLYLINE
5
E3
100
AcDbEntity
8
COPPER_BOTTOM
62
1
100
AcDbPolyline
90
2
70
0
43
0.499999
39
0.499999
10
38.862000
20
8.890000
10
36.576000
20
6.604000
0
LWPOLYLINE
5
E4
100
AcDbEntity
8
COPPER_BOTTOM
62
1
100
AcDbPolyline
90
2
70
0
43
0.499999
39
0.499999
10
44.845550
20
8.890000
10
46.262000
20
10.306460
0
LWPOLYLINE
5
E5
100
AcDbEntity
8
COPPER_BOTTOM
62
1
100
AcDbPolyline
90
2
70
0
43
0.499999
39
0.499999
10
44.845550
20
8.890000
10
38.862000
20
8.890000
0
LWPOLYLINE
5
E6
100
AcDbEntity
8
COPPER_BOTTOM
62
1
100
AcDbPolyline
90
2
70
0
43
0.499999
39
0.499999
10
46.262000
20
10.306460
10
46.262000
20
12.008000
0
LWPOLYLINE
5
E7
100
AcDbEntity
8
COPPER_BOTTOM
62
1
100
AcDbPolyline
90
2
70
0
43
0.499999
39
0.499999
10
47.508000
20
13.254000
10
52.508000
20
13.254000
0
LWPOLYLINE
5
E8
100
AcDbEntity
8
COPPER_BOTTOM
62
1
100
AcDbPolyline
90
2
70
0
43
0.499999
39
0.499999
10
52.508000
20
13.254000
10
54.092000
20
11.670000
0
LWPOLYLINE
5
E9
100
AcDbEntity
8
COPPER_BOTTOM
62
1
100
AcDbPolyline
90
2
70
0
43
0.499999
39
0.499999
10
46.262000
20
12.008000
10
47.508000
20
13.254000
0
HATCH
5
EA
100
AcDbEntity
8
COPPER_BOTTOM
62
1
100
AcDbHatch
10
0.0
20
0.0
30
0.0
210
0.0
220
0.0
230
1.0
2
SOLID
70
1
71
0
91
19
92
1
93
104
72
2
10
68.000000
20
4.000000
40
3.505000
50
111.123561
51
338.876439
73
0
72
1
10
71.269483
20
5.263133
11
71.269483
21
22.736867
72
2
10
68.000000
20
24.000000
40
3.505000
50
21.123561
51
248.876439
73
0
72
1
10
66.736867
20
27.269483
11
5.263133
21
27.269483
72
2
10
4.000000
20
24.000000
40
3.505000
50
291.123561
51
158.876439
73
0
72
1
10
0.730517
20
22.736867
11
0.730517
21
5.263133
72
2
10
4.000000
20
4.000000
40
3.505000
50
201.123561
51
68.876439
73
0
72
1
10
5.263133
20
0.730517
11
15.677922
21
0.730517
72
2
10
16.255999
20
1.524000
40
0.981727
50
126.074523
51
135.000000
73
0
72
1
10
15.561814
20
0.829814
11
11.308838
21
5.082789
72
2
10
11.176000
20
6.604000
40
1.527000
50
85.009357
51
4.990712
73
0
72
1
10
12.697211
20
6.471160
11
16.662644
21
2.505727
72
1
10
16.662644
20
2.505727
11
24.045900
21
2.505727
72
1
10
24.045900
20
2.505727
11
23.269483
21
3.282144
72
1
10
23.269483
20
3.282144
11
23.269483
21
3.282145
72
1
10
23.269483
20
3.282145
11
21.468838
21
5.082789
72
2
10
21.336000
20
6.604000
40
1.527000
50
85.009357
51
4.990712
73
0
72
1
10
22.857211
20
6.471160
11
23.269483
21
6.058888
72
1
10
23.269483
20
6.058888
11
26.060644
21
3.267727
72
1
10
26.060644
20
3.267727
11
33.443900
21
3.267727
72
1
10
33.443900
20
3.267727
11
31.628838
21
5.082789
72
2
10
31.496000
20
6.604000
40
1.527000
50
85.009357
51
4.990712
73
0
72
1
10
33.017211
20
6.471160
11
35.458644
21
4.029727
72
1
10
35.458644
20
4.029727
11
40.233354
21
4.029727
72
1
10
40.233354
20
4.029727
11
42.265813
21
6.062186
72
2
10
42.959999
20
5.368000
40
0.981727
50
225.000000
51
270.035577
73
0
72
1
10
42.960609
20
6.349727
11
52.544000
21
6.349727
72
2
10
52.544000
20
5.368000
40
0.981727
50
270.000000
51
315.097252
73
0
72
1
10
53.239363
20
6.061007
11
53.968382
21
5.331988
72
2
10
54.092000
20
3.810000
40
1.527000
50
265.356536
51
21.122438
73
0
72
1
10
55.516405
20
3.259727
11
56.481354
21
3.259727
72
1
10
56.481354
20
3.259727
11
63.262333
21
10.040706
72
1
10
63.262333
20
10.040706
11
63.262333
21
20.149414
72
1
10
63.262333
20
20.149414
11
61.719846
21
21.691902
72
2
10
60.110000
20
20.828000
40
1.827000
50
331.780370
51
102.497029
73
0
72
1
10
59.714657
20
19.044287
11
59.401727
21
18.731356
72
1
10
59.401727
20
18.731356
11
59.401727
21
10.419000
72
2
10
58.420000
20
10.419000
40
0.981727
50
360.000000
51
45.068768
73
0
72
1
10
59.113352
20
9.723982
11
57.142768
21
7.753398
72
2
10
56.447750
20
8.446750
40
0.981727
50
44.931232
51
72.507439
73
0
72
2
10
56.447749
20
8.446750
40
0.981727
50
72.507349
51
90.055477
73
0
72
1
10
56.446798
20
7.465023
11
52.005250
21
7.465023
72
2
10
52.005250
20
8.446750
40
0.981727
50
90.000000
51
100.059352
73
0
72
2
10
52.005249
20
8.446750
40
0.981727
50
100.059280
51
135.000000
73
0
72
1
10
51.311063
20
7.752564
11
49.154010
21
9.909618
72
2
10
49.012000
20
11.430000
40
1.527000
50
84.663833
51
198.920218
73
0
72
1
10
47.567502
20
11.925132
11
47.269483
21
11.627113
72
1
10
47.269483
20
11.627113
11
47.243727
21
11.601356
72
1
10
47.243727
20
11.601356
11
47.243727
21
10.306460
72
2
10
46.262000
20
10.306460
40
0.981727
50
360.000000
51
45.068566
73
0
72
1
10
46.955355
20
9.611444
11
45.540571
21
8.196650
72
2
10
44.845550
20
8.890000
40
0.981727
50
44.931030
51
90.000000
73
0
72
1
10
44.845550
20
7.908273
11
39.268644
21
7.908273
72
1
10
39.268644
20
7.908273
11
38.097211
21
6.736840
72
2
10
36.576000
20
6.604000
40
1.527000
50
355.009288
51
274.990643
73
0
72
1
10
36.708838
20
8.125211
11
38.167813
21
9.584186
72
2
10
38.861999
20
8.890000
40
0.981727
50
225.000000
51
266.158664
73
0
72
2
10
38.862000
20
8.890000
40
0.981727
50
266.158601
51
270.000000
73
0
72
1
10
38.862000
20
9.871727
11
44.438902
21
9.871727
72
1
10
44.438902
20
9.871727
11
44.648947
21
10.081773
72
2
10
43.932000
20
11.430000
40
1.527000
50
61.997296
51
69.230515
73
0
72
1
10
44.473488
20
10.002233
11
44.473488
21
10.888512
72
1
10
44.473488
20
10.888512
11
45.280273
21
10.888512
72
1
10
45.280273
20
10.888512
11
45.280273
21
11.971488
72
1
10
45.280273
20
11.971488
11
44.473488
21
11.971488
72
1
10
44.473488
20
11.971488
11
44.473488
21
12.857767
72
2
10
43.932000
20
11.430000
40
1.527000
50
290.769485
51
332.634893
73
0
72
2
10
46.261999
20
12.008000
40
0.981727
50
187.250374
51
225.000000
73
0
72
1
10
45.567813
20
12.702186
11
46.813814
21
13.948186
72
2
10
47.508000
20
13.254001
40
0.981727
50
225.000000
51
270.067049
73
0
72
1
10
47.509149
20
14.235727
11
52.508000
21
14.235727
72
2
10
52.508000
20
13.254000
40
0.981727
50
270.000000
51
315.068768
73
0
72
1
10
53.203018
20
13.947352
11
54.196984
21
12.953387
72
2
10
54.092000
20
11.430000
40
1.527000
50
273.942291
51
192.874464
73
0
72
1
10
52.603388
20
11.770239
11
52.101354
21
12.272273
72
1
10
52.101354
20
12.272273
11
50.285697
21
12.272273
72
2
10
49.012000
20
11.430000
40
1.527000
50
326.524060
51
4.643430
73
0
72
1
10
50.533988
20
11.306383
11
52.411894
21
9.428477
72
1
10
52.411894
20
9.428477
11
56.041104
21
9.428477
72
1
10
56.041104
20
9.428477
11
57.438273
21
10.825646
72
1
10
57.438273
20
10.825646
11
57.438273
21
19.136849
72
2
10
58.419999
20
19.138000
40
0.981727
50
179.932832
51
225.000000
73
0
72
1
10
57.725814
20
19.832186
11
58.326286
21
20.432659
72
2
10
60.110000
20
20.828000
40
1.827000
50
167.503024
51
247.283420
73
0
72
1
10
59.404462
20
22.513273
11
14.083644
21
22.513273
72
1
10
14.083644
20
22.513273
11
12.793713
21
21.223343
72
2
10
11.010000
20
20.828000
40
1.827000
50
347.502971
51
282.496976
73
0
72
1
10
11.405341
20
22.611714
11
12.982813
21
24.189186
72
2
10
13.676999
20
23.495000
40
0.981727
50
225.000000
51
270.031855
73
0
72
1
10
13.677545
20
24.476727
11
61.305120
21
24.476727
72
2
10
61.305120
20
23.495000
40
0.981727
50
270.000000
51
315.068768
73
0
72
1
10
62.000138
20
24.188352
11
62.919007
21
23.269483
72
1
10
62.919007
20
23.269483
11
62.919008
21
23.269483
72
1
10
62.919008
20
23.269483
11
64.937412
21
21.251078
72
2
10
64.244060
20
20.556060
40
0.981727
50
314.931232
51
315.068768
73
0
72
1
10
64.939078
20
21.249412
11
64.956185
21
21.232306
72
2
10
64.261999
20
20.538120
40
0.981727
50
315.000000
51
10.969979
73
0
72
1
10
65.225787
20
20.351303
11
65.225787
21
9.634060
72
2
10
64.244060
20
9.634060
40
0.981727
50
360.000000
51
45.068768
73
0
72
1
10
64.937412
20
8.939042
11
61.270002
21
5.271632
72
2
10
61.712000
20
3.810000
40
1.527000
50
253.174671
51
85.078587
73
0
72
1
10
61.843000
20
2.288630
11
60.385018
21
0.830648
72
2
10
59.690000
20
1.524000
40
0.981727
50
44.931232
51
53.925516
73
0
72
1
10
60.268077
20
0.730517
11
66.736867
21
0.730517
97
0
92
1
93
3
72
2
10
61.712000
20
11.430000
40
1.527000
50
20.769485
51
69.230515
73
0
72
1
10
62.253488
20
10.002233
11
62.253488
21
10.888512
72
1
10
62.253488
20
10.888512
11
63.139767
21
10.888512
97
0
92
1
93
3
72
2
10
61.712000
20
11.430000
40
1.527000
50
110.769485
51
159.230515
73
0
72
1
10
60.284233
20
10.888512
11
61.170512
21
10.888512
72
1
10
61.170512
20
10.888512
11
61.170512
21
10.002233
97
0
92
1
93
3
72
2
10
61.712000
20
11.430000
40
1.527000
50
200.769485
51
249.230515
73
0
72
1
10
61.170512
20
12.857767
11
61.170512
21
11.971488
72
1
10
61.170512
20
11.971488
11
60.284233
21
11.971488
97
0
92
1
93
1
72
2
10
61.712000
20
11.430000
40
0.500000
50
0.000000
51
360.000000
73
1
97
0
92
1
93
3
72
2
10
61.712000
20
11.430000
40
1.527000
50
290.769485
51
339.230515
73
0
72
1
10
63.139767
20
11.971488
11
62.253488
21
11.971488
72
1
10
62.253488
20
11.971488
11
62.253488
21
12.857767
97
0
92
1
93
3
72
2
10
26.416000
20
6.604000
40
1.527000
50
110.769485
51
159.230515
73
0
72
1
10
24.988233
20
6.062512
11
25.874512
21
6.062512
72
1
10
25.874512
20
6.062512
11
25.874512
21
5.176233
97
0
92
1
93
3
72
2
10
26.416000
20
6.604000
40
1.527000
50
20.769485
51
69.230515
73
0
72
1
10
26.957488
20
5.176233
11
26.957488
21
6.062512
72
1
10
26.957488
20
6.062512
11
27.843767
21
6.062512
97
0
92
1
93
3
72
2
10
26.416000
20
6.604000
40
1.527000
50
200.769485
51
249.230515
73
0
72
1
10
25.874512
20
8.031767
11
25.874512
21
7.145488
72
1
10
25.874512
20
7.145488
11
24.988233
21
7.145488
97
0
92
1
93
1
72
2
10
26.416000
20
6.604000
40
0.500000
50
0.000000
51
360.000000
73
1
97
0
92
1
93
3
72
2
10
26.416000
20
6.604000
40
1.527000
50
290.769485
51
339.230515
73
0
72
1
10
27.843767
20
7.145488
11
26.957488
21
7.145488
72
1
10
26.957488
20
7.145488
11
26.957488
21
8.031767
97
0
92
1
93
3
72
2
10
43.932000
20
11.430000
40
1.527000
50
200.769485
51
249.230515
73
0
72
1
10
43.390512
20
12.857767
11
43.390512
21
11.971488
72
1
10
43.390512
20
11.971488
11
42.504233
21
11.971488
97
0
92
1
93
1
72
2
10
43.932000
20
11.430000
40
0.500000
50
0.000000
51
360.000000
73
1
97
0
92
1
93
3
72
2
10
43.932000
20
11.430000
40
1.527000
50
110.769485
51
159.230515
73
0
72
1
10
42.504233
20
10.888512
11
43.390512
21
10.888512
72
1
10
43.390512
20
10.888512
11
43.390512
21
10.002233
97
0
92
1
93
3
72
2
10
16.256000
20
6.604000
40
1.527000
50
110.769485
51
159.230515
73
0
72
1
10
14.828233
20
6.062512
11
15.714512
21
6.062512
72
1
10
15.714512
20
6.062512
11
15.714512
21
5.176233
97
0
92
1
93
3
72
2
10
16.256000
20
6.604000
40
1.527000
50
20.769485
51
69.230515
73
0
72
1
10
16.797488
20
5.176233
11
16.797488
21
6.062512
72
1
10
16.797488
20
6.062512
11
17.683767
21
6.062512
97
0
92
1
93
3
72
2
10
16.256000
20
6.604000
40
1.527000
50
200.769485
51
249.230515
73
0
72
1
10
15.714512
20
8.031767
11
15.714512
21
7.145488
72
1
10
15.714512
20
7.145488
11
14.828233
21
7.145488
97
0
92
1
93
1
72
2
10
16.256000
20
6.604000
40
0.500000
50
0.000000
51
360.000000
73
1
97
0
92
1
93
3
72
2
10
16.256000
20
6.604000
40
1.527000
50
290.769485
51
339.230515
73
0
72
1
10
17.683767
20
7.145488
11
16.797488
21
7.145488
72
1
10
16.797488
20
7.145488
11
16.797488
21
8.031767
97
0
75
0
76
0
98
1
10
0.0
20
0.0
0
ARC
5
EB
100
AcDbEntity
8
COPPER_BOTTOM
62
1
100
AcDbCircle
39
0.254000
10
61.712000
20
11.430000
30
0.0
40
1.527000
100
AcDbArc
50
290.769485
51
339.230515
0
LWPOLYLINE
5
EC
100
AcDbEntity
8
COPPER_BOTTOM
62
1
100
AcDbPolyline
90
3
70
0
43
0.254000
39
0.254000
10
62.253488
20
10.002233
10
62.253488
20
10.888512
10
63.139767
20
10.888512
0
ARC
5
ED
100
AcDbEntity
8
COPPER_BOTTOM
62
1
100
AcDbCircle
39
0.254000
10
61.712000
20
11.430000
30
0.0
40
1.527000
100
AcDbArc
50
200.769485
51
249.230515
0
LWPOLYLINE
5
EE
100
AcDbEntity
8
COPPER_BOTTOM
62
1
100
AcDbPolyline
90
3
70
0
43
0.254000
39
0.254000
10
60.284233
20
10.888512
10
61.170512
20
10.888512
10
61.170512
20
10.002233
0
ARC
5
EF
100
AcDbEntity
8
COPPER_BOTTOM
62
1
100
AcDbCircle
39
0.254000
10
61.712000
20
11.430000
30
0.0
40
1.527000
100
AcDbArc
50
110.769485
51
159.230515
0
LWPOLYLINE
5
F0
100
AcDbEntity
8
COPPER_BOTTOM
62
1
100
AcDbPolyline
90
3
70
0
43
0.254000
39
0.254000
10
61.170512
20
12.857767
10
61.170512
20
11.971488
10
60.284233
20
11.971488
0
CIRCLE
5
F1
100
AcDbEntity
8
COPPER_BOTTOM
62
1
100
AcDbCircle
39
0.254000
10
61.712000
20
11.430000
30
0
40
0.500000
0
ARC
5
F2
100
AcDbEntity
8
COPPER_BOTTOM
62
1
100
AcDbCircle
39
0.254000
10
61.712000
20
11.430000
30
0.0
40
1.527000
100
AcDbArc
50
20.769485
51
69.230515
0
LWPOLYLINE
5
F3
100
AcDbEntity
8
COPPER_BOTTOM
62
1
100
AcDbPolyline
90
3
70
0
43
0.254000
39
0.254000
10
63.139767
20
11.971488
10
62.253488
20
11.971488
10
62.253488
20
12.857767
0
ARC
5
F4
100
AcDbEntity
8
COPPER_BOTTOM
62
1
100
AcDbCircle
39
0.254000
10
26.416000
20
6.604000
30
0.0
40
1.527000
100
AcDbArc
50
200.769485
51
249.230515
0
LWPOLYLINE
5
F5
100
AcDbEntity
8
COPPER_BOTTOM
62
1
100
AcDbPolyline
90
3
70
0
43
0.254000
39
0.254000
10
24.988233
20
6.062512
10
25.874512
20
6.062512
10
25.874512
20
5.176233
0
ARC
5
F6
100
AcDbEntity
8
COPPER_BOTTOM
62
1
100
AcDbCircle
39
0.254000
10
26.416000
20
6.604000
30
0.0
40
1.527000
100
AcDbArc
50
290.769485
51
339.230515
0
LWPOLYLINE
5
F7
100
AcDbEntity
8
COPPER_BOTTOM
62
1
100
AcDbPolyline
90
3
70
0
43
0.254000
39
0.254000
10
26.957488
20
5.176233
10
26.957488
20
6.062512
10
27.843767
20
6.062512
0
ARC
5
F8
100
AcDbEntity
8
COPPER_BOTTOM
62
1
100
AcDbCircle
39
0.254000
10
26.416000
20
6.604000
30
0.0
40
1.527000
100
AcDbArc
50
110.769485
51
159.230515
0
LWPOLYLINE
5
F9
100
AcDbEntity
8
COPPER_BOTTOM
62
1
100
AcDbPolyline
90
3
70
0
43
0.254000
39
0.254000
10
25.874512
20
8.031767
10
25.874512
20
7.145488
10
24.988233
20
7.145488
0
CIRCLE
5
FA
100
AcDbEntity
8
COPPER_BOTTOM
62
1
100
AcDbCircle
39
0.254000
10
26.416000
20
6.604000
30
0
40
0.500000
0
ARC
5
FB
100
AcDbEntity
8
COPPER_BOTTOM
62
1
100
AcDbCircle
39
0.254000
10
26.416000
20
6.604000
30
0.0
40
1.527000
100
AcDbArc
50
20.769485
51
69.230515
0
LWPOLYLINE
5
FC
100
AcDbEntity
8
COPPER_BOTTOM
62
1
100
AcDbPolyline
90
3
70
0
43
0.254000
39
0.254000
10
27.843767
20
7.145488
10
26.957488
20
7.145488
10
26.957488
20
8.031767
0
ARC
5
FD
100
AcDbEntity
8
COPPER_BOTTOM
62
1
100
AcDbCircle
39
0.254000
10
43.932000
20
11.430000
30
0.0
40
1.527000
100
AcDbArc
50
110.769485
51
159.230515
0
LWPOLYLINE
5
FE
100
AcDbEntity
8
COPPER_BOTTOM
62
1
100
AcDbPolyline
90
3
70
0
43
0.254000
39
0.254000
10
43.390512
20
12.857767
10
43.390512
20
11.971488
10
42.504233
20
11.971488
0
CIRCLE
5
FF
100
AcDbEntity
8
COPPER_BOTTOM
62
1
100
AcDbCircle
39
0.254000
10
43.932000
20
11.430000
30
0
40
0.500000
0
ARC
5
100
100
AcDbEntity
8
COPPER_BOTTOM
62
1
100
AcDbCircle
39
0.254000
10
43.932000
20
11.430000
30
0.0
40
1.527000
100
AcDbArc
50
200.769485
51
249.230515
0
LWPOLYLINE
5
101
100
AcDbEntity
8
COPPER_BOTTOM
62
1
100
AcDbPolyline
90
3
70
0
43
0.254000
39
0.254000
10
42.504233
20
10.888512
10
43.390512
20
10.888512
10
43.390512
20
10.002233
0
ARC
5
102
100
AcDbEntity
8
COPPER_BOTTOM
62
1
100
AcDbCircle
39
0.254000
10
16.256000
20
6.604000
30
0.0
40
1.527000
100
AcDbArc
50
200.769485
51
249.230515
0
LWPOLYLINE
5
103
100
AcDbEntity
8
COPPER_BOTTOM
62
1
100
AcDbPolyline
90
3
70
0
43
0.254000
39
0.254000
10
14.828233
20
6.062512
10
15.714512
20
6.062512
10
15.714512
20
5.176233
0
ARC
5
104
100
AcDbEntity
8
COPPER_BOTTOM
62
1
100
AcDbCircle
39
0.254000
10
16.256000
20
6.604000
30
0.0
40
1.527000
100
AcDbArc
50
290.769485
51
339.230515
0
LWPOLYLINE
5
105
100
AcDbEntity
8
COPPER_BOTTOM
62
1
100
AcDbPolyline
90
3
70
0
43
0.254000
39
0.254000
10
16.797488
20
5.176233
10
16.797488
20
6.062512
10
17.683767
20
6.062512
0
ARC
5
106
100
AcDbEntity
8
COPPER_BOTTOM
62
1
100
AcDbCircle
39
0.254000
10
16.256000
20
6.604000
30
0.0
40
1.527000
100
AcDbArc
50
110.769485
51
159.230515
0
LWPOLYLINE
5
107
100
AcDbEntity
8
COPPER_BOTTOM
62
1
100
AcDbPolyline
90
3
70
0
43
0.254000
39
0.254000
10
15.714512
20
8.031767
10
15.714512
20
7.145488
10
14.828233
20
7.145488
0
CIRCLE
5
108
100
AcDbEntity
8
COPPER_BOTTOM
62
1
100
AcDbCircle
39
0.254000
10
16.256000
20
6.604000
30
0
40
0.500000
0
ARC
5
109
100
AcDbEntity
8
COPPER_BOTTOM
62
1
100
AcDbCircle
39
0.254000
10
16.256000
20
6.604000
30
0.0
40
1.527000
100
AcDbArc
50
20.769485
51
69.230515
0
LWPOLYLINE
5
10A
100
AcDbEntity
8
COPPER_BOTTOM
62
1
100
AcDbPolyline
90
3
70
0
43
0.254000
39
0.254000
10
17.683767
20
7.145488
10
16.797488
20
7.145488
10
16.797488
20
8.031767
0
ARC
5
10B
100
AcDbEntity
8
COPPER_BOTTOM
62
1
100
AcDbCircle
39
0.254000
10
68.000000
20
4.000000
30
0.0
40
3.505000
100
AcDbArc
50
21.123561
51
248.876439
0
LWPOLYLINE
5
10C
100
AcDbEntity
8
COPPER_BOTTOM
62
1
100
AcDbPolyline
90
2
70
0
43
0.254000
39
0.254000
10
71.269483
20
5.263133
10
71.269483
20
22.736867
0
ARC
5
10D
100
AcDbEntity
8
COPPER_BOTTOM
62
1
100
AcDbCircle
39
0.254000
10
68.000000
20
24.000000
30
0.0
40
3.505000
100
AcDbArc
50
111.123561
51
338.876439
0
LWPOLYLINE
5
10E
100
AcDbEntity
8
COPPER_BOTTOM
62
1
100
AcDbPolyline
90
2
70
0
43
0.254000
39
0.254000
10
66.736867
20
27.269483
10
5.263133
20
27.269483
0
ARC
5
10F
100
AcDbEntity
8
COPPER_BOTTOM
62
1
100
AcDbCircle
39
0.254000
10
4.000000
20
24.000000
30
0.0
40
3.505000
100
AcDbArc
50
201.123561
51
68.876439
0
LWPOLYLINE
5
110
100
AcDbEntity
8
COPPER_BOTTOM
62
1
100
AcDbPolyline
90
2
70
0
43
0.254000
39
0.254000
10
0.730517
20
22.736867
10
0.730517
20
5.263133
0
ARC
5
111
100
AcDbEntity
8
COPPER_BOTTOM
62
1
100
AcDbCircle
39
0.254000
10
4.000000
20
4.000000
30
0.0
40
3.505000
100
AcDbArc
50
291.123561
51
158.876439
0
LWPOLYLINE
5
112
100
AcDbEntity
8
COPPER_BOTTOM
62
1
100
AcDbPolyline
90
2
70
0
43
0.254000
39
0.254000
10
5.263133
20
0.730517
10
15.677922
20
0.730517
0
ARC
5
113
100
AcDbEntity
8
COPPER_BOTTOM
62
1
100
AcDbCircle
39
0.254000
10
16.255999
20
1.524000
30
0.0
40
0.981727
100
AcDbArc
50
225.000000
51
233.925477
0
LWPOLYLINE
5
114
100
AcDbEntity
8
COPPER_BOTTOM
62
1
100
AcDbPolyline
90
2
70
0
43
0.254000
39
0.254000
10
15.561814
20
0.829814
10
11.308838
20
5.082789
0
ARC
5
115
100
AcDbEntity
8
COPPER_BOTTOM
62
1
100
AcDbCircle
39
0.254000
10
11.176000
20
6.604000
30
0.0
40
1.527000
100
AcDbArc
50
355.009288
51
274.990643
0
LWPOLYLINE
5
116
100
AcDbEntity
8
COPPER_BOTTOM
62
1
100
AcDbPolyline
90
6
70
0
43
0.254000
39
0.254000
10
12.697211
20
6.471160
10
16.662644
20
2.505727
10
24.045900
20
2.505727
10
23.269483
20
3.282144
10
23.269483
20
3.282145
10
21.468838
20
5.082789
0
ARC
5
117
100
AcDbEntity
8
COPPER_BOTTOM
62
1
100
AcDbCircle
39
0.254000
10
21.336000
20
6.604000
30
0.0
40
1.527000
100
AcDbArc
50
355.009288
51
274.990643
0
LWPOLYLINE
5
118
100
AcDbEntity
8
COPPER_BOTTOM
62
1
100
AcDbPolyline
90
5
70
0
43
0.254000
39
0.254000
10
22.857211
20
6.471160
10
23.269483
20
6.058888
10
26.060644
20
3.267727
10
33.443900
20
3.267727
10
31.628838
20
5.082789
0
ARC
5
119
100
AcDbEntity
8
COPPER_BOTTOM
62
1
100
AcDbCircle
39
0.254000
10
31.496000
20
6.604000
30
0.0
40
1.527000
100
AcDbArc
50
355.009288
51
274.990643
0
LWPOLYLINE
5
11A
100
AcDbEntity
8
COPPER_BOTTOM
62
1
100
AcDbPolyline
90
4
70
0
43
0.254000
39
0.254000
10
33.017211
20
6.471160
10
35.458644
20
4.029727
10
40.233354
20
4.029727
10
42.265813
20
6.062186
0
ARC
5
11B
100
AcDbEntity
8
COPPER_BOTTOM
62
1
100
AcDbCircle
39
0.254000
10
42.959999
20
5.368000
30
0.0
40
0.981727
100
AcDbArc
50
89.964423
51
135.000000
0
LWPOLYLINE
5
11C
100
AcDbEntity
8
COPPER_BOTTOM
62
1
100
AcDbPolyline
90
2
70
0
43
0.254000
39
0.254000
10
42.960609
20
6.349727
10
52.544000
20
6.349727
0
ARC
5
11D
100
AcDbEntity
8
COPPER_BOTTOM
62
1
100
AcDbCircle
39
0.254000
10
52.544000
20
5.368000
30
0.0
40
0.981727
100
AcDbArc
50
44.902748
51
90.000000
0
LWPOLYLINE
5
11E
100
AcDbEntity
8
COPPER_BOTTOM
62
1
100
AcDbPolyline
90
2
70
0
43
0.254000
39
0.254000
10
53.239363
20
6.061007
10
53.968382
20
5.331988
0
ARC
5
11F
100
AcDbEntity
8
COPPER_BOTTOM
62
1
100
AcDbCircle
39
0.254000
10
54.092000
20
3.810000
30
0.0
40
1.527000
100
AcDbArc
50
338.877562
51
94.643464
0
LWPOLYLINE
5
120
100
AcDbEntity
8
COPPER_BOTTOM
62
1
100
AcDbPolyline
90
5
70
0
43
0.254000
39
0.254000
10
55.516405
20
3.259727
10
56.481354
20
3.259727
10
63.262333
20
10.040706
10
63.262333
20
20.149414
10
61.719846
20
21.691902
0
ARC
5
121
100
AcDbEntity
8
COPPER_BOTTOM
62
1
100
AcDbCircle
39
0.254000
10
60.110000
20
20.828000
30
0.0
40
1.827000
100
AcDbArc
50
257.502971
51
28.219630
0
LWPOLYLINE
5
122
100
AcDbEntity
8
COPPER_BOTTOM
62
1
100
AcDbPolyline
90
3
70
0
43
0.254000
39
0.254000
10
59.714657
20
19.044287
10
59.401727
20
18.731356
10
59.401727
20
10.419000
0
ARC
5
123
100
AcDbEntity
8
COPPER_BOTTOM
62
1
100
AcDbCircle
39
0.254000
10
58.420000
20
10.419000
30
0.0
40
0.981727
100
AcDbArc
50
314.931232
51
0.000000
0
LWPOLYLINE
5
124
100
AcDbEntity
8
COPPER_BOTTOM
62
1
100
AcDbPolyline
90
2
70
0
43
0.254000
39
0.254000
10
59.113352
20
9.723982
10
57.142768
20
7.753398
0
ARC
5
125
100
AcDbEntity
8
COPPER_BOTTOM
62
1
100
AcDbCircle
39
0.254000
10
56.447750
20
8.446750
30
0.0
40
0.981727
100
AcDbArc
50
287.492561
51
315.068768
0
ARC
5
126
100
AcDbEntity
8
COPPER_BOTTOM
62
1
100
AcDbCircle
39
0.254000
10
56.447749
20
8.446750
30
0.0
40
0.981727
100
AcDbArc
50
269.944523
51
287.492651
0
LWPOLYLINE
5
127
100
AcDbEntity
8
COPPER_BOTTOM
62
1
100
AcDbPolyline
90
2
70
0
43
0.254000
39
0.254000
10
56.446798
20
7.465023
10
52.005250
20
7.465023
0
ARC
5
128
100
AcDbEntity
8
COPPER_BOTTOM
62
1
100
AcDbCircle
39
0.254000
10
52.005250
20
8.446750
30
0.0
40
0.981727
100
AcDbArc
50
259.940648
51
270.000000
0
ARC
5
129
100
AcDbEntity
8
COPPER_BOTTOM
62
1
100
AcDbCircle
39
0.254000
10
52.005249
20
8.446750
30
0.0
40
0.981727
100
AcDbArc
50
225.000000
51
259.940720
0
LWPOLYLINE
5
12A
100
AcDbEntity
8
COPPER_BOTTOM
62
1
100
AcDbPolyline
90
2
70
0
43
0.254000
39
0.254000
10
51.311063
20
7.752564
10
49.154010
20
9.909618
0
ARC
5
12B
100
AcDbEntity
8
COPPER_BOTTOM
62
1
100
AcDbCircle
39
0.254000
10
49.012000
20
11.430000
30
0.0
40
1.527000
100
AcDbArc
50
161.079782
51
275.336167
0
LWPOLYLINE
5
12C
100
AcDbEntity
8
COPPER_BOTTOM
62
1
100
AcDbPolyline
90
4
70
0
43
0.254000
39
0.254000
10
47.567502
20
11.925132
10
47.269483
20
11.627113
10
47.243727
20
11.601356
10
47.243727
20
10.306460
0
ARC
5
12D
100
AcDbEntity
8
COPPER_BOTTOM
62
1
100
AcDbCircle
39
0.254000
10
46.262000
20
10.306460
30
0.0
40
0.981727
100
AcDbArc
50
314.931434
51
0.000000
0
LWPOLYLINE
5
12E
100
AcDbEntity
8
COPPER_BOTTOM
62
1
100
AcDbPolyline
90
2
70
0
43
0.254000
39
0.254000
10
46.955355
20
9.611444
10
45.540571
20
8.196650
0
ARC
5
12F
100
AcDbEntity
8
COPPER_BOTTOM
62
1
100
AcDbCircle
39
0.254000
10
44.845550
20
8.890000
30
0.0
40
0.981727
100
AcDbArc
50
270.000000
51
315.068970
0
LWPOLYLINE
5
130
100
AcDbEntity
8
COPPER_BOTTOM
62
1
100
AcDbPolyline
90
3
70
0
43
0.254000
39
0.254000
10
44.845550
20
7.908273
10
39.268644
20
7.908273
10
38.097211
20
6.736840
0
ARC
5
131
100
AcDbEntity
8
COPPER_BOTTOM
62
1
100
AcDbCircle
39
0.254000
10
36.576000
20
6.604000
30
0.0
40
1.527000
100
AcDbArc
50
85.009357
51
4.990712
0
LWPOLYLINE
5
132
100
AcDbEntity
8
COPPER_BOTTOM
62
1
100
AcDbPolyline
90
2
70
0
43
0.254000
39
0.254000
10
36.708838
20
8.125211
10
38.167813
20
9.584186
0
ARC
5
133
100
AcDbEntity
8
COPPER_BOTTOM
62
1
100
AcDbCircle
39
0.254000
10
38.861999
20
8.890000
30
0.0
40
0.981727
100
AcDbArc
50
93.841336
51
135.000000
0
ARC
5
134
100
AcDbEntity
8
COPPER_BOTTOM
62
1
100
AcDbCircle
39
0.254000
10
38.862000
20
8.890000
30
0.0
40
0.981727
100
AcDbArc
50
90.000000
51
93.841399
0
LWPOLYLINE
5
135
100
AcDbEntity
8
COPPER_BOTTOM
62
1
100
AcDbPolyline
90
3
70
0
43
0.254000
39
0.254000
10
38.862000
20
9.871727
10
44.438902
20
9.871727
10
44.648947
20
10.081773
0
ARC
5
136
100
AcDbEntity
8
COPPER_BOTTOM
62
1
100
AcDbCircle
39
0.254000
10
43.932000
20
11.430000
30
0.0
40
1.527000
100
AcDbArc
50
290.769485
51
298.002704
0
LWPOLYLINE
5
137
100
AcDbEntity
8
COPPER_BOTTOM
62
1
100
AcDbPolyline
90
6
70
0
43
0.254000
39
0.254000
10
44.473488
20
10.002233
10
44.473488
20
10.888512
10
45.280273
20
10.888512
10
45.280273
20
11.971488
10
44.473488
20
11.971488
10
44.473488
20
12.857767
0
ARC
5
138
100
AcDbEntity
8
COPPER_BOTTOM
62
1
100
AcDbCircle
39
0.254000
10
43.932000
20
11.430000
30
0.0
40
1.527000
100
AcDbArc
50
27.365107
51
69.230515
0
ARC
5
139
100
AcDbEntity
8
COPPER_BOTTOM
62
1
100
AcDbCircle
39
0.254000
10
46.261999
20
12.008000
30
0.0
40
0.981727
100
AcDbArc
50
135.000000
51
172.749626
0
LWPOLYLINE
5
13A
100
AcDbEntity
8
COPPER_BOTTOM
62
1
100
AcDbPolyline
90
2
70
0
43
0.254000
39
0.254000
10
45.567813
20
12.702186
10
46.813814
20
13.948186
0
ARC
5
13B
100
AcDbEntity
8
COPPER_BOTTOM
62
1
100
AcDbCircle
39
0.254000
10
47.508000
20
13.254001
30
0.0
40
0.981727
100
AcDbArc
50
89.932951
51
135.000000
0
LWPOLYLINE
5
13C
100
AcDbEntity
8
COPPER_BOTTOM
62
1
100
AcDbPolyline
90
2
70
0
43
0.254000
39
0.254000
10
47.509149
20
14.235727
10
52.508000
20
14.235727
0
ARC
5
13D
100
AcDbEntity
8
COPPER_BOTTOM
62
1
100
AcDbCircle
39
0.254000
10
52.508000
20
13.254000
30
0.0
40
0.981727
100
AcDbArc
50
44.931232
51
90.000000
0
LWPOLYLINE
5
13E
100
AcDbEntity
8
COPPER_BOTTOM
62
1
100
AcDbPolyline
90
2
70
0
43
0.254000
39
0.254000
10
53.203018
20
13.947352
10
54.196984
20
12.953387
0
ARC
5
13F
100
AcDbEntity
8
COPPER_BOTTOM
62
1
100
AcDbCircle
39
0.254000
10
54.092000
20
11.430000
30
0.0
40
1.527000
100
AcDbArc
50
167.125536
51
86.057709
0
LWPOLYLINE
5
140
100
AcDbEntity
8
COPPER_BOTTOM
62
1
100
AcDbPolyline
90
3
70
0
43
0.254000
39
0.254000
10
52.603388
20
11.770239
10
52.101354
20
12.272273
10
50.285697
20
12.272273
0
ARC
5
141
100
AcDbEntity
8
COPPER_BOTTOM
62
1
100
AcDbCircle
39
0.254000
10
49.012000
20
11.430000
30
0.0
40
1.527000
100
AcDbArc
50
355.356570
51
33.475940
0
LWPOLYLINE
5
142
100
AcDbEntity
8
COPPER_BOTTOM
62
1
100
AcDbPolyline
90
5
70
0
43
0.254000
39
0.254000
10
50.533988
20
11.306383
10
52.411894
20
9.428477
10
56.041104
20
9.428477
10
57.438273
20
10.825646
10
57.438273
20
19.136849
0
ARC
5
143
100
AcDbEntity
8
COPPER_BOTTOM
62
1
100
AcDbCircle
39
0.254000
10
58.419999
20
19.138000
30
0.0
40
0.981727
100
AcDbArc
50
135.000000
51
180.067168
0
LWPOLYLINE
5
144
100
AcDbEntity
8
COPPER_BOTTOM
62
1
100
AcDbPolyline
90
2
70
0
43
0.254000
39
0.254000
10
57.725814
20
19.832186
10
58.326286
20
20.432659
0
ARC
5
145
100
AcDbEntity
8
COPPER_BOTTOM
62
1
100
AcDbCircle
39
0.254000
10
60.110000
20
20.828000
30
0.0
40
1.827000
100
AcDbArc
50
112.716580
51
192.496976
0
LWPOLYLINE
5
146
100
AcDbEntity
8
COPPER_BOTTOM
62
1
100
AcDbPolyline
90
3
70
0
43
0.254000
39
0.254000
10
59.404462
20
22.513273
10
14.083644
20
22.513273
10
12.793713
20
21.223343
0
ARC
5
147
100
AcDbEntity
8
COPPER_BOTTOM
62
1
100
AcDbCircle
39
0.254000
10
11.010000
20
20.828000
30
0.0
40
1.827000
100
AcDbArc
50
77.503024
51
12.497029
0
LWPOLYLINE
5
148
100
AcDbEntity
8
COPPER_BOTTOM
62
1
100
AcDbPolyline
90
2
70
0
43
0.254000
39
0.254000
10
11.405341
20
22.611714
10
12.982813
20
24.189186
0
ARC
5
149
100
AcDbEntity
8
COPPER_BOTTOM
62
1
100
AcDbCircle
39
0.254000
10
13.676999
20
23.495000
30
0.0
40
0.981727
100
AcDbArc
50
89.968145
51
135.000000
0
LWPOLYLINE
5
14A
100
AcDbEntity
8
COPPER_BOTTOM
62
1
100
AcDbPolyline
90
2
70
0
43
0.254000
39
0.254000
10
13.677545
20
24.476727
10
61.305120
20
24.476727
0
ARC
5
14B
100
AcDbEntity
8
COPPER_BOTTOM
62
1
100
AcDbCircle
39
0.254000
10
61.305120
20
23.495000
30
0.0
40
0.981727
100
AcDbArc
50
44.931232
51
90.000000
0
LWPOLYLINE
5
14C
100
AcDbEntity
8
COPPER_BOTTOM
62
1
100
AcDbPolyline
90
4
70
0
43
0.254000
39
0.254000
10
62.000138
20
24.188352
10
62.919007
20
23.269483
10
62.919008
20
23.269483
10
64.937412
20
21.251078
0
ARC
5
14D
100
AcDbEntity
8
COPPER_BOTTOM
62
1
100
AcDbCircle
39
0.254000
10
64.244060
20
20.556060
30
0.0
40
0.981727
100
AcDbArc
50
44.931232
51
45.068768
0
LWPOLYLINE
5
14E
100
AcDbEntity
8
COPPER_BOTTOM
62
1
100
AcDbPolyline
90
2
70
0
43
0.254000
39
0.254000
10
64.939078
20
21.249412
10
64.956185
20
21.232306
0
ARC
5
14F
100
AcDbEntity
8
COPPER_BOTTOM
62
1
100
AcDbCircle
39
0.254000
10
64.261999
20
20.538120
30
0.0
40
0.981727
100
AcDbArc
50
349.030021
51
45.000000
0
LWPOLYLINE
5
150
100
AcDbEntity
8
COPPER_BOTTOM
62
1
100
AcDbPolyline
90
2
70
0
43
0.254000
39
0.254000
10
65.225787
20
20.351303
10
65.225787
20
9.634060
0
ARC
5
151
100
AcDbEntity
8
COPPER_BOTTOM
62
1
100
AcDbCircle
39
0.254000
10
64.244060
20
9.634060
30
0.0
40
0.981727
100
AcDbArc
50
314.931232
51
0.000000
0
LWPOLYLINE
5
152
100
AcDbEntity
8
COPPER_BOTTOM
62
1
100
AcDbPolyline
90
2
70
0
43
0.254000
39
0.254000
10
64.937412
20
8.939042
10
61.270002
20
5.271632
0
ARC
5
153
100
AcDbEntity
8
COPPER_BOTTOM
62
1
100
AcDbCircle
39
0.254000
10
61.712000
20
3.810000
30
0.0
40
1.527000
100
AcDbArc
50
274.921413
51
106.825329
0
LWPOLYLINE
5
154
100
AcDbEntity
8
COPPER_BOTTOM
62
1
100
AcDbPolyline
90
2
70
0
43
0.254000
39
0.254000
10
61.843000
20
2.288630
10
60.385018
20
0.830648
0
ARC
5
155
100
AcDbEntity
8
COPPER_BOTTOM
62
1
100
AcDbCircle
39
0.254000
10
59.690000
20
1.524000
30
0.0
40
0.981727
100
AcDbArc
50
306.074484
51
315.068768
0
LWPOLYLINE
5
156
100
AcDbEntity
8
COPPER_BOTTOM
62
1
100
AcDbPolyline
90
2
70
0
43
0.254000
39
0.254000
10
60.268077
20
0.730517
10
66.736867
20
0.730517
0
HATCH
5
157
100
AcDbEntity
8
COPPER_BOTTOM
62
1
100
AcDbHatch
10
0.0
20
0.0
30
0.0
210
0.0
220
0.0
230
1.0
2
SOLID
70
1
71
0
91
1
92
1
93
3
72
1
10
69.263133
20
27.269483
11
71.269483
21
27.269483
72
1
10
71.269483
20
27.269483
11
71.269483
21
25.263133
72
2
10
68.000000
20
24.000000
40
3.505000
50
21.123561
51
68.876439
73
1
97
0
75
0
76
0
98
1
10
0.0
20
0.0
0
LWPOLYLINE
5
158
100
AcDbEntity
8
COPPER_BOTTOM
62
1
100
AcDbPolyline
90
3
70
0
43
0.254000
39
0.254000
10
69.263133
20
27.269483
10
71.269483
20
27.269483
10
71.269483
20
25.263133
0
ARC
5
159
100
AcDbEntity
8
COPPER_BOTTOM
62
1
100
AcDbCircle
39
0.254000
10
68.000000
20
24.000000
30
0.0
40
3.505000
100
AcDbArc
50
21.123561
51
68.876439
0
HATCH
5
15A
100
AcDbEntity
8
COPPER_BOTTOM
62
1
100
AcDbHatch
10
0.0
20
0.0
30
0.0
210
0.0
220
0.0
230
1.0
2
SOLID
70
1
71
0
91
1
92
1
93
3
72
2
10
68.000000
20
4.000000
40
3.505000
50
21.123561
51
68.876439
73
0
72
1
10
69.263133
20
0.730517
11
71.269483
21
0.730517
72
1
10
71.269483
20
0.730517
11
71.269483
21
2.736867
97
0
75
0
76
0
98
1
10
0.0
20
0.0
0
ARC
5
15B
100
AcDbEntity
8
COPPER_BOTTOM
62
1
100
AcDbCircle
39
0.254000
10
68.000000
20
4.000000
30
0.0
40
3.505000
100
AcDbArc
50
291.123561
51
338.876439
0
LWPOLYLINE
5
15C
100
AcDbEntity
8
COPPER_BOTTOM
62
1
100
AcDbPolyline
90
3
70
0
43
0.254000
39
0.254000
10
69.263133
20
0.730517
10
71.269483
20
0.730517
10
71.269483
20
2.736867
0
HATCH
5
15D
100
AcDbEntity
8
COPPER_BOTTOM
62
1
100
AcDbHatch
10
0.0
20
0.0
30
0.0
210
0.0
220
0.0
230
1.0
2
SOLID
70
1
71
0
91
1
92
1
93
6
72
1
10
50.426086
20
4.386273
11
52.137353
21
4.386273
72
1
10
52.137353
20
4.386273
11
52.571618
21
3.952009
72
2
10
54.092000
20
3.810000
40
1.527000
50
174.663867
51
201.122438
73
1
72
1
10
52.667595
20
3.259727
11
50.960644
21
3.259727
72
1
10
50.960644
20
3.259727
11
50.533988
21
3.686383
72
2
10
49.012000
20
3.810000
40
1.527000
50
355.356570
51
22.172045
73
1
97
0
75
0
76
0
98
1
10
0.0
20
0.0
0
LWPOLYLINE
5
15E
100
AcDbEntity
8
COPPER_BOTTOM
62
1
100
AcDbPolyline
90
3
70
0
43
0.254000
39
0.254000
10
50.426086
20
4.386273
10
52.137353
20
4.386273
10
52.571618
20
3.952009
0
ARC
5
15F
100
AcDbEntity
8
COPPER_BOTTOM
62
1
100
AcDbCircle
39
0.254000
10
54.092000
20
3.810000
30
0.0
40
1.527000
100
AcDbArc
50
174.663867
51
201.122438
0
LWPOLYLINE
5
160
100
AcDbEntity
8
COPPER_BOTTOM
62
1
100
AcDbPolyline
90
3
70
0
43
0.254000
39
0.254000
10
52.667595
20
3.259727
10
50.960644
20
3.259727
10
50.533988
20
3.686383
0
ARC
5
161
100
AcDbEntity
8
COPPER_BOTTOM
62
1
100
AcDbCircle
39
0.254000
10
49.012000
20
3.810000
30
0.0
40
1.527000
100
AcDbArc
50
355.356570
51
22.172045
0
HATCH
5
162
100
AcDbEntity
8
COPPER_BOTTOM
62
1
100
AcDbHatch
10
0.0
20
0.0
30
0.0
210
0.0
220
0.0
230
1.0
2
SOLID
70
1
71
0
91
1
92
1
93
4
72
2
10
61.712000
20
3.810000
40
1.527000
50
163.174671
51
193.623304
73
1
72
1
10
60.227962
20
3.450334
11
59.283354
21
2.505727
72
1
10
59.283354
20
2.505727
11
58.504098
21
2.505727
72
1
10
58.504098
20
2.505727
11
60.250368
21
4.251998
97
0
75
0
76
0
98
1
10
0.0
20
0.0
0
ARC
5
163
100
AcDbEntity
8
COPPER_BOTTOM
62
1
100
AcDbCircle
39
0.254000
10
61.712000
20
3.810000
30
0.0
40
1.527000
100
AcDbArc
50
163.174671
51
193.623304
0
LWPOLYLINE
5
164
100
AcDbEntity
8
COPPER_BOTTOM
62
1
100
AcDbPolyline
90
4
70
0
43
0.254000
39
0.254000
10
60.227962
20
3.450334
10
59.283354
20
2.505727
10
58.504098
20
2.505727
10
60.250368
20
4.251998
0
HATCH
5
165
100
AcDbEntity
8
COPPER_BOTTOM
62
1
100
AcDbHatch
10
0.0
20
0.0
30
0.0
210
0.0
220
0.0
230
1.0
2
SOLID
70
1
71
0
91
1
92
1
93
3
72
1
10
2.736867
20
0.730517
11
0.730517
21
0.730517
72
1
10
0.730517
20
0.730517
11
0.730517
21
2.736867
72
2
10
4.000000
20
4.000000
40
3.505000
50
201.123561
51
248.876439
73
1
97
0
75
0
76
0
98
1
10
0.0
20
0.0
0
LWPOLYLINE
5
166
100
AcDbEntity
8
COPPER_BOTTOM
62
1
100
AcDbPolyline
90
3
70
0
43
0.254000
39
0.254000
10
2.736867
20
0.730517
10
0.730517
20
0.730517
10
0.730517
20
2.736867
0
ARC
5
167
100
AcDbEntity
8
COPPER_BOTTOM
62
1
100
AcDbCircle
39
0.254000
10
4.000000
20
4.000000
30
0.0
40
3.505000
100
AcDbArc
50
201.123561
51
248.876439
0
HATCH
5
168
100
AcDbEntity
8
COPPER_BOTTOM
62
1
100
AcDbHatch
10
0.0
20
0.0
30
0.0
210
0.0
220
0.0
230
1.0
2
SOLID
70
1
71
0
91
1
92
1
93
3
72
1
10
0.730517
20
25.263133
11
0.730517
21
27.269483
72
1
10
0.730517
20
27.269483
11
2.736867
21
27.269483
72
2
10
4.000000
20
24.000000
40
3.505000
50
111.123561
51
158.876439
73
1
97
0
75
0
76
0
98
1
10
0.0
20
0.0
0
LWPOLYLINE
5
169
100
AcDbEntity
8
COPPER_BOTTOM
62
1
100
AcDbPolyline
90
3
70
0
43
0.254000
39
0.254000
10
0.730517
20
25.263133
10
0.730517
20
27.269483
10
2.736867
20
27.269483
0
ARC
5
16A
100
AcDbEntity
8
COPPER_BOTTOM
62
1
100
AcDbCircle
39
0.254000
10
4.000000
20
24.000000
30
0.0
40
3.505000
100
AcDbArc
50
111.123561
51
158.876439
0
HATCH
5
16B
100
AcDbEntity
8
COPPER_BOTTOM
62
1
100
AcDbHatch
10
0.0
20
0.0
30
0.0
210
0.0
220
0.0
230
1.0
2
SOLID
70
1
71
0
91
1
92
1
93
3
72
2
10
60.110000
20
20.828000
40
1.827000
50
61.780370
51
67.283420
73
1
72
1
10
60.815538
20
22.513273
11
60.898474
21
22.513273
72
1
10
60.898474
20
22.513273
11
60.973902
21
22.437846
97
0
75
0
76
0
98
1
10
0.0
20
0.0
0
ARC
5
16C
100
AcDbEntity
8
COPPER_BOTTOM
62
1
100
AcDbCircle
39
0.254000
10
60.110000
20
20.828000
30
0.0
40
1.827000
100
AcDbArc
50
61.780370
51
67.283420
0
LWPOLYLINE
5
16D
100
AcDbEntity
8
COPPER_BOTTOM
62
1
100
AcDbPolyline
90
3
70
0
43
0.254000
39
0.254000
10
60.815538
20
22.513273
10
60.898474
20
22.513273
10
60.973902
20
22.437846
0
HATCH
5
16E
100
AcDbEntity
8
COPPER_BOTTOM
62
1
100
AcDbHatch
10
0.0
20
0.0
30
0.0
210
0.0
220
0.0
230
1.0
2
SOLID
70
1
71
0
91
1
92
1
93
4
72
1
10
44.726104
20
2.505727
11
48.217896
21
2.505727
72
2
10
49.012000
20
3.810000
40
1.527000
50
121.335057
51
202.172045
73
0
72
1
10
47.597914
20
4.386273
11
45.346086
21
4.386273
72
2
10
43.932000
20
3.810000
40
1.527000
50
337.827955
51
58.664943
73
0
97
0
75
0
76
0
98
1
10
0.0
20
0.0
0
LWPOLYLINE
5
16F
100
AcDbEntity
8
COPPER_BOTTOM
62
1
100
AcDbPolyline
90
2
70
0
43
0.254000
39
0.254000
10
44.726104
20
2.505727
10
48.217896
20
2.505727
0
ARC
5
170
100
AcDbEntity
8
COPPER_BOTTOM
62
1
100
AcDbCircle
39
0.254000
10
49.012000
20
3.810000
30
0.0
40
1.527000
100
AcDbArc
50
157.827955
51
238.664943
0
LWPOLYLINE
5
171
100
AcDbEntity
8
COPPER_BOTTOM
62
1
100
AcDbPolyline
90
2
70
0
43
0.254000
39
0.254000
10
47.597914
20
4.386273
10
45.346086
20
4.386273
0
ARC
5
172
100
AcDbEntity
8
COPPER_BOTTOM
62
1
100
AcDbCircle
39
0.254000
10
43.932000
20
3.810000
30
0.0
40
1.527000
100
AcDbArc
50
301.335057
51
22.172045
0
HATCH
5
173
100
AcDbEntity
8
COPPER_BOTTOM
62
1
100
AcDbHatch
10
0.0
20
0.0
30
0.0
210
0.0
220
0.0
230
1.0
2
SOLID
70
1
71
0
91
1
92
1
93
3
72
1
10
45.280232
20
10.713063
11
45.280273
21
10.713104
72
1
10
45.280273
20
10.713104
11
45.280273
21
10.713140
72
2
10
43.932000
20
11.430000
40
1.527000
50
27.999039
51
28.002300
73
0
97
0
75
0
76
0
98
1
10
0.0
20
0.0
0
LWPOLYLINE
5
174
100
AcDbEntity
8
COPPER_BOTTOM
62
1
100
AcDbPolyline
90
3
70
0
43
0.254000
39
0.254000
10
45.280232
20
10.713063
10
45.280273
20
10.713104
10
45.280273
20
10.713140
0
ARC
5
175
100
AcDbEntity
8
COPPER_BOTTOM
62
1
100
AcDbCircle
39
0.254000
10
43.932000
20
11.430000
30
0.0
40
1.527000
100
AcDbArc
50
331.997700
51
332.000961
0
HATCH
5
176
100
AcDbEntity
8
COPPER_BOTTOM
100
AcDbHatch
10
0.0
20
0.0
30
0.0
210
0.0
220
0.0
230
1.0
2
SOLID
70
1
71
0
91
2
92
1
93
1
72
2
10
11.176000
20
6.604000
40
0.800000
50
0.000000
51
360.000000
73
1
97
0
92
1
93
1
72
2
10
11.176000
20
6.604000
40
0.500000
50
0.000000
51
360.000000
73
1
97
0
75
0
76
0
98
1
10
0.0
20
0.0
0
HATCH
5
177
100
AcDbEntity
8
COPPER_BOTTOM
100
AcDbHatch
10
0.0
20
0.0
30
0.0
210
0.0
220
0.0
230
1.0
2
SOLID
70
1
71
0
91
2
92
1
93
1
72
2
10
16.256000
20
6.604000
40
0.800000
50
0.000000
51
360.000000
73
1
97
0
92
1
93
1
72
2
10
16.256000
20
6.604000
40
0.500000
50
0.000000
51
360.000000
73
1
97
0
75
0
76
0
98
1
10
0.0
20
0.0
0
HATCH
5
178
100
AcDbEntity
8
COPPER_BOTTOM
100
AcDbHatch
10
0.0
20
0.0
30
0.0
210
0.0
220
0.0
230
1.0
2
SOLID
70
1
71
0
91
2
92
1
93
1
72
2
10
21.336000
20
6.604000
40
0.800000
50
0.000000
51
360.000000
73
1
97
0
92
1
93
1
72
2
10
21.336000
20
6.604000
40
0.500000
50
0.000000
51
360.000000
73
1
97
0
75
0
76
0
98
1
10
0.0
20
0.0
0
HATCH
5
179
100
AcDbEntity
8
COPPER_BOTTOM
100
AcDbHatch
10
0.0
20
0.0
30
0.0
210
0.0
220
0.0
230
1.0
2
SOLID
70
1
71
0
91
2
92
1
93
1
72
2
10
26.416000
20
6.604000
40
0.800000
50
0.000000
51
360.000000
73
1
97
0
92
1
93
1
72
2
10
26.416000
20
6.604000
40
0.500000
50
0.000000
51
360.000000
73
1
97
0
75
0
76
0
98
1
10
0.0
20
0.0
0
HATCH
5
17A
100
AcDbEntity
8
COPPER_BOTTOM
100
AcDbHatch
10
0.0
20
0.0
30
0.0
210
0.0
220
0.0
230
1.0
2
SOLID
70
1
71
0
91
2
92
1
93
1
72
2
10
31.496000
20
6.604000
40
0.800000
50
0.000000
51
360.000000
73
1
97
0
92
1
93
1
72
2
10
31.496000
20
6.604000
40
0.500000
50
0.000000
51
360.000000
73
1
97
0
75
0
76
0
98
1
10
0.0
20
0.0
0
HATCH
5
17B
100
AcDbEntity
8
COPPER_BOTTOM
100
AcDbHatch
10
0.0
20
0.0
30
0.0
210
0.0
220
0.0
230
1.0
2
SOLID
70
1
71
0
91
2
92
1
93
1
72
2
10
36.576000
20
6.604000
40
0.800000
50
0.000000
51
360.000000
73
1
97
0
92
1
93
1
72
2
10
36.576000
20
6.604000
40
0.500000
50
0.000000
51
360.000000
73
1
97
0
75
0
76
0
98
1
10
0.0
20
0.0
0
HATCH
5
17C
100
AcDbEntity
8
COPPER_BOTTOM
100
AcDbHatch
10
0.0
20
0.0
30
0.0
210
0.0
220
0.0
230
1.0
2
SOLID
70
1
71
0
91
2
92
1
93
1
72
2
10
11.010000
20
20.828000
40
1.100000
50
0.000000
51
360.000000
73
1
97
0
92
1
93
1
72
2
10
11.010000
20
20.828000
40
0.600000
50
0.000000
51
360.000000
73
1
97
0
75
0
76
0
98
1
10
0.0
20
0.0
0
HATCH
5
17D
100
AcDbEntity
8
COPPER_BOTTOM
100
AcDbHatch
10
0.0
20
0.0
30
0.0
210
0.0
220
0.0
230
1.0
2
SOLID
70
1
71
0
91
2
92
1
93
1
72
2
10
60.110000
20
20.828000
40
1.100000
50
0.000000
51
360.000000
73
1
97
0
92
1
93
1
72
2
10
60.110000
20
20.828000
40
0.600000
50
0.000000
51
360.000000
73
1
97
0
75
0
76
0
98
1
10
0.0
20
0.0
0
HATCH
5
17E
100
AcDbEntity
8
COPPER_BOTTOM
100
AcDbHatch
10
0.0
20
0.0
30
0.0
210
0.0
220
0.0
230
1.0
2
SOLID
70
1
71
0
91
2
92
1
93
1
72
2
10
43.932000
20
3.810000
40
0.800000
50
0.000000
51
360.000000
73
1
97
0
92
1
93
1
72
2
10
43.932000
20
3.810000
40
0.500000
50
0.000000
51
360.000000
73
1
97
0
75
0
76
0
98
1
10
0.0
20
0.0
0
HATCH
5
17F
100
AcDbEntity
8
COPPER_BOTTOM
100
AcDbHatch
10
0.0
20
0.0
30
0.0
210
0.0
220
0.0
230
1.0
2
SOLID
70
1
71
0
91
2
92
1
93
1
72
2
10
49.012000
20
3.810000
40
0.800000
50
0.000000
51
360.000000
73
1
97
0
92
1
93
1
72
2
10
49.012000
20
3.810000
40
0.500000
50
0.000000
51
360.000000
73
1
97
0
75
0
76
0
98
1
10
0.0
20
0.0
0
HATCH
5
180
100
AcDbEntity
8
COPPER_BOTTOM
100
AcDbHatch
10
0.0
20
0.0
30
0.0
210
0.0
220
0.0
230
1.0
2
SOLID
70
1
71
0
91
2
92
1
93
1
72
2
10
54.092000
20
3.810000
40
0.800000
50
0.000000
51
360.000000
73
1
97
0
92
1
93
1
72
2
10
54.092000
20
3.810000
40
0.500000
50
0.000000
51
360.000000
73
1
97
0
75
0
76
0
98
1
10
0.0
20
0.0
0
HATCH
5
181
100
AcDbEntity
8
COPPER_BOTTOM
100
AcDbHatch
10
0.0
20
0.0
30
0.0
210
0.0
220
0.0
230
1.0
2
SOLID
70
1
71
0
91
2
92
1
93
1
72
2
10
61.712000
20
3.810000
40
0.800000
50
0.000000
51
360.000000
73
1
97
0
92
1
93
1
72
2
10
61.712000
20
3.810000
40
0.500000
50
0.000000
51
360.000000
73
1
97
0
75
0
76
0
98
1
10
0.0
20
0.0
0
HATCH
5
182
100
AcDbEntity
8
COPPER_BOTTOM
100
AcDbHatch
10
0.0
20
0.0
30
0.0
210
0.0
220
0.0
230
1.0
2
SOLID
70
1
71
0
91
2
92
1
93
1
72
2
10
43.932000
20
11.430000
40
0.800000
50
0.000000
51
360.000000
73
1
97
0
92
1
93
1
72
2
10
43.932000
20
11.430000
40
0.500000
50
0.000000
51
360.000000
73
1
97
0
75
0
76
0
98
1
10
0.0
20
0.0
0
HATCH
5
183
100
AcDbEntity
8
COPPER_BOTTOM
100
AcDbHatch
10
0.0
20
0.0
30
0.0
210
0.0
220
0.0
230
1.0
2
SOLID
70
1
71
0
91
2
92
1
93
1
72
2
10
49.012000
20
11.430000
40
0.800000
50
0.000000
51
360.000000
73
1
97
0
92
1
93
1
72
2
10
49.012000
20
11.430000
40
0.500000
50
0.000000
51
360.000000
73
1
97
0
75
0
76
0
98
1
10
0.0
20
0.0
0
HATCH
5
184
100
AcDbEntity
8
COPPER_BOTTOM
100
AcDbHatch
10
0.0
20
0.0
30
0.0
210
0.0
220
0.0
230
1.0
2
SOLID
70
1
71
0
91
2
92
1
93
1
72
2
10
54.092000
20
11.430000
40
0.800000
50
0.000000
51
360.000000
73
1
97
0
92
1
93
1
72
2
10
54.092000
20
11.430000
40
0.500000
50
0.000000
51
360.000000
73
1
97
0
75
0
76
0
98
1
10
0.0
20
0.0
0
HATCH
5
185
100
AcDbEntity
8
COPPER_BOTTOM
100
AcDbHatch
10
0.0
20
0.0
30
0.0
210
0.0
220
0.0
230
1.0
2
SOLID
70
1
71
0
91
2
92
1
93
1
72
2
10
61.712000
20
11.430000
40
0.800000
50
0.000000
51
360.000000
73
1
97
0
92
1
93
1
72
2
10
61.712000
20
11.430000
40
0.500000
50
0.000000
51
360.000000
73
1
97
0
75
0
76
0
98
1
10
0.0
20
0.0
0
HATCH
5
186
100
AcDbEntity
8
KUPFERINNENLAGE_2
62
255
100
AcDbHatch
10
0.0
20
0.0
30
0.0
210
0.0
220
0.0
230
1.0
2
SOLID
70
1
71
0
91
1
92
1
93
1
72
2
10
4.000000
20
4.000000
40
1.600000
50
0.000000
51
360.000000
73
1
97
0
75
0
76
0
98
1
10
0.0
20
0.0
0
CIRCLE
5
187
100
AcDbEntity
8
KUPFERINNENLAGE_2
62
255
100
AcDbCircle
39
0.000001
10
4.000000
20
4.000000
30
0
40
1.600000
0
HATCH
5
188
100
AcDbEntity
8
KUPFERINNENLAGE_2
62
255
100
AcDbHatch
10
0.0
20
0.0
30
0.0
210
0.0
220
0.0
230
1.0
2
SOLID
70
1
71
0
91
1
92
1
93
1
72
2
10
4.000000
20
24.000000
40
1.600000
50
0.000000
51
360.000000
73
1
97
0
75
0
76
0
98
1
10
0.0
20
0.0
0
CIRCLE
5
189
100
AcDbEntity
8
KUPFERINNENLAGE_2
62
255
100
AcDbCircle
39
0.000001
10
4.000000
20
24.000000
30
0
40
1.600000
0
HATCH
5
18A
100
AcDbEntity
8
KUPFERINNENLAGE_2
62
255
100
AcDbHatch
10
0.0
20
0.0
30
0.0
210
0.0
220
0.0
230
1.0
2
SOLID
70
1
71
0
91
1
92
1
93
1
72
2
10
68.000000
20
4.000000
40
1.600000
50
0.000000
51
360.000000
73
1
97
0
75
0
76
0
98
1
10
0.0
20
0.0
0
CIRCLE
5
18B
100
AcDbEntity
8
KUPFERINNENLAGE_2
62
255
100
AcDbCircle
39
0.000001
10
68.000000
20
4.000000
30
0
40
1.600000
0
HATCH
5
18C
100
AcDbEntity
8
KUPFERINNENLAGE_2
62
255
100
AcDbHatch
10
0.0
20
0.0
30
0.0
210
0.0
220
0.0
230
1.0
2
SOLID
70
1
71
0
91
1
92
1
93
1
72
2
10
68.000000
20
24.000000
40
1.600000
50
0.000000
51
360.000000
73
1
97
0
75
0
76
0
98
1
10
0.0
20
0.0
0
CIRCLE
5
18D
100
AcDbEntity
8
KUPFERINNENLAGE_2
62
255
100
AcDbCircle
39
0.000001
10
68.000000
20
24.000000
30
0
40
1.600000
0
HATCH
5
18E
100
AcDbEntity
8
KUPFERINNENLAGE_2
100
AcDbHatch
10
0.0
20
0.0
30
0.0
210
0.0
220
0.0
230
1.0
2
SOLID
70
1
71
0
91
2
92
1
93
1
72
2
10
11.176000
20
6.604000
40
0.800000
50
0.000000
51
360.000000
73
1
97
0
92
1
93
1
72
2
10
11.176000
20
6.604000
40
0.500000
50
0.000000
51
360.000000
73
1
97
0
75
0
76
0
98
1
10
0.0
20
0.0
0
HATCH
5
18F
100
AcDbEntity
8
KUPFERINNENLAGE_2
100
AcDbHatch
10
0.0
20
0.0
30
0.0
210
0.0
220
0.0
230
1.0
2
SOLID
70
1
71
0
91
2
92
1
93
1
72
2
10
16.256000
20
6.604000
40
0.800000
50
0.000000
51
360.000000
73
1
97
0
92
1
93
1
72
2
10
16.256000
20
6.604000
40
0.500000
50
0.000000
51
360.000000
73
1
97
0
75
0
76
0
98
1
10
0.0
20
0.0
0
HATCH
5
190
100
AcDbEntity
8
KUPFERINNENLAGE_2
100
AcDbHatch
10
0.0
20
0.0
30
0.0
210
0.0
220
0.0
230
1.0
2
SOLID
70
1
71
0
91
2
92
1
93
1
72
2
10
21.336000
20
6.604000
40
0.800000
50
0.000000
51
360.000000
73
1
97
0
92
1
93
1
72
2
10
21.336000
20
6.604000
40
0.500000
50
0.000000
51
360.000000
73
1
97
0
75
0
76
0
98
1
10
0.0
20
0.0
0
HATCH
5
191
100
AcDbEntity
8
KUPFERINNENLAGE_2
100
AcDbHatch
10
0.0
20
0.0
30
0.0
210
0.0
220
0.0
230
1.0
2
SOLID
70
1
71
0
91
2
92
1
93
1
72
2
10
26.416000
20
6.604000
40
0.800000
50
0.000000
51
360.000000
73
1
97
0
92
1
93
1
72
2
10
26.416000
20
6.604000
40
0.500000
50
0.000000
51
360.000000
73
1
97
0
75
0
76
0
98
1
10
0.0
20
0.0
0
HATCH
5
192
100
AcDbEntity
8
KUPFERINNENLAGE_2
100
AcDbHatch
10
0.0
20
0.0
30
0.0
210
0.0
220
0.0
230
1.0
2
SOLID
70
1
71
0
91
2
92
1
93
1
72
2
10
31.496000
20
6.604000
40
0.800000
50
0.000000
51
360.000000
73
1
97
0
92
1
93
1
72
2
10
31.496000
20
6.604000
40
0.500000
50
0.000000
51
360.000000
73
1
97
0
75
0
76
0
98
1
10
0.0
20
0.0
0
HATCH
5
193
100
AcDbEntity
8
KUPFERINNENLAGE_2
100
AcDbHatch
10
0.0
20
0.0
30
0.0
210
0.0
220
0.0
230
1.0
2
SOLID
70
1
71
0
91
2
92
1
93
1
72
2
10
36.576000
20
6.604000
40
0.800000
50
0.000000
51
360.000000
73
1
97
0
92
1
93
1
72
2
10
36.576000
20
6.604000
40
0.500000
50
0.000000
51
360.000000
73
1
97
0
75
0
76
0
98
1
10
0.0
20
0.0
0
HATCH
5
194
100
AcDbEntity
8
KUPFERINNENLAGE_2
100
AcDbHatch
10
0.0
20
0.0
30
0.0
210
0.0
220
0.0
230
1.0
2
SOLID
70
1
71
0
91
2
92
1
93
1
72
2
10
11.010000
20
20.828000
40
1.100000
50
0.000000
51
360.000000
73
1
97
0
92
1
93
1
72
2
10
11.010000
20
20.828000
40
0.600000
50
0.000000
51
360.000000
73
1
97
0
75
0
76
0
98
1
10
0.0
20
0.0
0
HATCH
5
195
100
AcDbEntity
8
KUPFERINNENLAGE_2
100
AcDbHatch
10
0.0
20
0.0
30
0.0
210
0.0
220
0.0
230
1.0
2
SOLID
70
1
71
0
91
2
92
1
93
1
72
2
10
60.110000
20
20.828000
40
1.100000
50
0.000000
51
360.000000
73
1
97
0
92
1
93
1
72
2
10
60.110000
20
20.828000
40
0.600000
50
0.000000
51
360.000000
73
1
97
0
75
0
76
0
98
1
10
0.0
20
0.0
0
HATCH
5
196
100
AcDbEntity
8
KUPFERINNENLAGE_2
100
AcDbHatch
10
0.0
20
0.0
30
0.0
210
0.0
220
0.0
230
1.0
2
SOLID
70
1
71
0
91
2
92
1
93
1
72
2
10
43.932000
20
3.810000
40
0.800000
50
0.000000
51
360.000000
73
1
97
0
92
1
93
1
72
2
10
43.932000
20
3.810000
40
0.500000
50
0.000000
51
360.000000
73
1
97
0
75
0
76
0
98
1
10
0.0
20
0.0
0
HATCH
5
197
100
AcDbEntity
8
KUPFERINNENLAGE_2
100
AcDbHatch
10
0.0
20
0.0
30
0.0
210
0.0
220
0.0
230
1.0
2
SOLID
70
1
71
0
91
2
92
1
93
1
72
2
10
49.012000
20
3.810000
40
0.800000
50
0.000000
51
360.000000
73
1
97
0
92
1
93
1
72
2
10
49.012000
20
3.810000
40
0.500000
50
0.000000
51
360.000000
73
1
97
0
75
0
76
0
98
1
10
0.0
20
0.0
0
HATCH
5
198
100
AcDbEntity
8
KUPFERINNENLAGE_2
100
AcDbHatch
10
0.0
20
0.0
30
0.0
210
0.0
220
0.0
230
1.0
2
SOLID
70
1
71
0
91
2
92
1
93
1
72
2
10
54.092000
20
3.810000
40
0.800000
50
0.000000
51
360.000000
73
1
97
0
92
1
93
1
72
2
10
54.092000
20
3.810000
40
0.500000
50
0.000000
51
360.000000
73
1
97
0
75
0
76
0
98
1
10
0.0
20
0.0
0
HATCH
5
199
100
AcDbEntity
8
KUPFERINNENLAGE_2
100
AcDbHatch
10
0.0
20
0.0
30
0.0
210
0.0
220
0.0
230
1.0
2
SOLID
70
1
71
0
91
2
92
1
93
1
72
2
10
61.712000
20
3.810000
40
0.800000
50
0.000000
51
360.000000
73
1
97
0
92
1
93
1
72
2
10
61.712000
20
3.810000
40
0.500000
50
0.000000
51
360.000000
73
1
97
0
75
0
76
0
98
1
10
0.0
20
0.0
0
HATCH
5
19A
100
AcDbEntity
8
KUPFERINNENLAGE_2
100
AcDbHatch
10
0.0
20
0.0
30
0.0
210
0.0
220
0.0
230
1.0
2
SOLID
70
1
71
0
91
2
92
1
93
1
72
2
10
43.932000
20
11.430000
40
0.800000
50
0.000000
51
360.000000
73
1
97
0
92
1
93
1
72
2
10
43.932000
20
11.430000
40
0.500000
50
0.000000
51
360.000000
73
1
97
0
75
0
76
0
98
1
10
0.0
20
0.0
0
HATCH
5
19B
100
AcDbEntity
8
KUPFERINNENLAGE_2
100
AcDbHatch
10
0.0
20
0.0
30
0.0
210
0.0
220
0.0
230
1.0
2
SOLID
70
1
71
0
91
2
92
1
93
1
72
2
10
49.012000
20
11.430000
40
0.800000
50
0.000000
51
360.000000
73
1
97
0
92
1
93
1
72
2
10
49.012000
20
11.430000
40
0.500000
50
0.000000
51
360.000000
73
1
97
0
75
0
76
0
98
1
10
0.0
20
0.0
0
HATCH
5
19C
100
AcDbEntity
8
KUPFERINNENLAGE_2
100
AcDbHatch
10
0.0
20
0.0
30
0.0
210
0.0
220
0.0
230
1.0
2
SOLID
70
1
71
0
91
2
92
1
93
1
72
2
10
54.092000
20
11.430000
40
0.800000
50
0.000000
51
360.000000
73
1
97
0
92
1
93
1
72
2
10
54.092000
20
11.430000
40
0.500000
50
0.000000
51
360.000000
73
1
97
0
75
0
76
0
98
1
10
0.0
20
0.0
0
HATCH
5
19D
100
AcDbEntity
8
KUPFERINNENLAGE_2
100
AcDbHatch
10
0.0
20
0.0
30
0.0
210
0.0
220
0.0
230
1.0
2
SOLID
70
1
71
0
91
2
92
1
93
1
72
2
10
61.712000
20
11.430000
40
0.800000
50
0.000000
51
360.000000
73
1
97
0
92
1
93
1
72
2
10
61.712000
20
11.430000
40
0.500000
50
0.000000
51
360.000000
73
1
97
0
75
0
76
0
98
1
10
0.0
20
0.0
0
HATCH
5
19E
100
AcDbEntity
8
KUPFERLAGE_UNTEN
62
255
100
AcDbHatch
10
0.0
20
0.0
30
0.0
210
0.0
220
0.0
230
1.0
2
SOLID
70
1
71
0
91
1
92
1
93
1
72
2
10
4.000000
20
4.000000
40
1.600000
50
0.000000
51
360.000000
73
1
97
0
75
0
76
0
98
1
10
0.0
20
0.0
0
CIRCLE
5
19F
100
AcDbEntity
8
KUPFERLAGE_UNTEN
62
255
100
AcDbCircle
39
0.000001
10
4.000000
20
4.000000
30
0
40
1.600000
0
HATCH
5
1A0
100
AcDbEntity
8
KUPFERLAGE_UNTEN
62
255
100
AcDbHatch
10
0.0
20
0.0
30
0.0
210
0.0
220
0.0
230
1.0
2
SOLID
70
1
71
0
91
1
92
1
93
1
72
2
10
4.000000
20
24.000000
40
1.600000
50
0.000000
51
360.000000
73
1
97
0
75
0
76
0
98
1
10
0.0
20
0.0
0
CIRCLE
5
1A1
100
AcDbEntity
8
KUPFERLAGE_UNTEN
62
255
100
AcDbCircle
39
0.000001
10
4.000000
20
24.000000
30
0
40
1.600000
0
HATCH
5
1A2
100
AcDbEntity
8
KUPFERLAGE_UNTEN
62
255
100
AcDbHatch
10
0.0
20
0.0
30
0.0
210
0.0
220
0.0
230
1.0
2
SOLID
70
1
71
0
91
1
92
1
93
1
72
2
10
68.000000
20
4.000000
40
1.600000
50
0.000000
51
360.000000
73
1
97
0
75
0
76
0
98
1
10
0.0
20
0.0
0
CIRCLE
5
1A3
100
AcDbEntity
8
KUPFERLAGE_UNTEN
62
255
100
AcDbCircle
39
0.000001
10
68.000000
20
4.000000
30
0
40
1.600000
0
HATCH
5
1A4
100
AcDbEntity
8
KUPFERLAGE_UNTEN
62
255
100
AcDbHatch
10
0.0
20
0.0
30
0.0
210
0.0
220
0.0
230
1.0
2
SOLID
70
1
71
0
91
1
92
1
93
1
72
2
10
68.000000
20
24.000000
40
1.600000
50
0.000000
51
360.000000
73
1
97
0
75
0
76
0
98
1
10
0.0
20
0.0
0
CIRCLE
5
1A5
100
AcDbEntity
8
KUPFERLAGE_UNTEN
62
255
100
AcDbCircle
39
0.000001
10
68.000000
20
24.000000
30
0
40
1.600000
0
HATCH
5
1A6
100
AcDbEntity
8
KUPFERLAGE_UNTEN
100
AcDbHatch
10
0.0
20
0.0
30
0.0
210
0.0
220
0.0
230
1.0
2
SOLID
70
1
71
0
91
2
92
1
93
1
72
2
10
11.176000
20
6.604000
40
0.800000
50
0.000000
51
360.000000
73
1
97
0
92
1
93
1
72
2
10
11.176000
20
6.604000
40
0.500000
50
0.000000
51
360.000000
73
1
97
0
75
0
76
0
98
1
10
0.0
20
0.0
0
HATCH
5
1A7
100
AcDbEntity
8
KUPFERLAGE_UNTEN
100
AcDbHatch
10
0.0
20
0.0
30
0.0
210
0.0
220
0.0
230
1.0
2
SOLID
70
1
71
0
91
2
92
1
93
1
72
2
10
16.256000
20
6.604000
40
0.800000
50
0.000000
51
360.000000
73
1
97
0
92
1
93
1
72
2
10
16.256000
20
6.604000
40
0.500000
50
0.000000
51
360.000000
73
1
97
0
75
0
76
0
98
1
10
0.0
20
0.0
0
HATCH
5
1A8
100
AcDbEntity
8
KUPFERLAGE_UNTEN
100
AcDbHatch
10
0.0
20
0.0
30
0.0
210
0.0
220
0.0
230
1.0
2
SOLID
70
1
71
0
91
2
92
1
93
1
72
2
10
21.336000
20
6.604000
40
0.800000
50
0.000000
51
360.000000
73
1
97
0
92
1
93
1
72
2
10
21.336000
20
6.604000
40
0.500000
50
0.000000
51
360.000000
73
1
97
0
75
0
76
0
98
1
10
0.0
20
0.0
0
HATCH
5
1A9
100
AcDbEntity
8
KUPFERLAGE_UNTEN
100
AcDbHatch
10
0.0
20
0.0
30
0.0
210
0.0
220
0.0
230
1.0
2
SOLID
70
1
71
0
91
2
92
1
93
1
72
2
10
26.416000
20
6.604000
40
0.800000
50
0.000000
51
360.000000
73
1
97
0
92
1
93
1
72
2
10
26.416000
20
6.604000
40
0.500000
50
0.000000
51
360.000000
73
1
97
0
75
0
76
0
98
1
10
0.0
20
0.0
0
HATCH
5
1AA
100
AcDbEntity
8
KUPFERLAGE_UNTEN
100
AcDbHatch
10
0.0
20
0.0
30
0.0
210
0.0
220
0.0
230
1.0
2
SOLID
70
1
71
0
91
2
92
1
93
1
72
2
10
31.496000
20
6.604000
40
0.800000
50
0.000000
51
360.000000
73
1
97
0
92
1
93
1
72
2
10
31.496000
20
6.604000
40
0.500000
50
0.000000
51
360.000000
73
1
97
0
75
0
76
0
98
1
10
0.0
20
0.0
0
HATCH
5
1AB
100
AcDbEntity
8
KUPFERLAGE_UNTEN
100
AcDbHatch
10
0.0
20
0.0
30
0.0
210
0.0
220
0.0
230
1.0
2
SOLID
70
1
71
0
91
2
92
1
93
1
72
2
10
36.576000
20
6.604000
40
0.800000
50
0.000000
51
360.000000
73
1
97
0
92
1
93
1
72
2
10
36.576000
20
6.604000
40
0.500000
50
0.000000
51
360.000000
73
1
97
0
75
0
76
0
98
1
10
0.0
20
0.0
0
HATCH
5
1AC
100
AcDbEntity
8
KUPFERLAGE_UNTEN
100
AcDbHatch
10
0.0
20
0.0
30
0.0
210
0.0
220
0.0
230
1.0
2
SOLID
70
1
71
0
91
2
92
1
93
1
72
2
10
11.010000
20
20.828000
40
1.100000
50
0.000000
51
360.000000
73
1
97
0
92
1
93
1
72
2
10
11.010000
20
20.828000
40
0.600000
50
0.000000
51
360.000000
73
1
97
0
75
0
76
0
98
1
10
0.0
20
0.0
0
HATCH
5
1AD
100
AcDbEntity
8
KUPFERLAGE_UNTEN
100
AcDbHatch
10
0.0
20
0.0
30
0.0
210
0.0
220
0.0
230
1.0
2
SOLID
70
1
71
0
91
2
92
1
93
1
72
2
10
60.110000
20
20.828000
40
1.100000
50
0.000000
51
360.000000
73
1
97
0
92
1
93
1
72
2
10
60.110000
20
20.828000
40
0.600000
50
0.000000
51
360.000000
73
1
97
0
75
0
76
0
98
1
10
0.0
20
0.0
0
HATCH
5
1AE
100
AcDbEntity
8
KUPFERLAGE_UNTEN
100
AcDbHatch
10
0.0
20
0.0
30
0.0
210
0.0
220
0.0
230
1.0
2
SOLID
70
1
71
0
91
2
92
1
93
1
72
2
10
43.932000
20
3.810000
40
0.800000
50
0.000000
51
360.000000
73
1
97
0
92
1
93
1
72
2
10
43.932000
20
3.810000
40
0.500000
50
0.000000
51
360.000000
73
1
97
0
75
0
76
0
98
1
10
0.0
20
0.0
0
HATCH
5
1AF
100
AcDbEntity
8
KUPFERLAGE_UNTEN
100
AcDbHatch
10
0.0
20
0.0
30
0.0
210
0.0
220
0.0
230
1.0
2
SOLID
70
1
71
0
91
2
92
1
93
1
72
2
10
49.012000
20
3.810000
40
0.800000
50
0.000000
51
360.000000
73
1
97
0
92
1
93
1
72
2
10
49.012000
20
3.810000
40
0.500000
50
0.000000
51
360.000000
73
1
97
0
75
0
76
0
98
1
10
0.0
20
0.0
0
HATCH
5
1B0
100
AcDbEntity
8
KUPFERLAGE_UNTEN
100
AcDbHatch
10
0.0
20
0.0
30
0.0
210
0.0
220
0.0
230
1.0
2
SOLID
70
1
71
0
91
2
92
1
93
1
72
2
10
54.092000
20
3.810000
40
0.800000
50
0.000000
51
360.000000
73
1
97
0
92
1
93
1
72
2
10
54.092000
20
3.810000
40
0.500000
50
0.000000
51
360.000000
73
1
97
0
75
0
76
0
98
1
10
0.0
20
0.0
0
HATCH
5
1B1
100
AcDbEntity
8
KUPFERLAGE_UNTEN
100
AcDbHatch
10
0.0
20
0.0
30
0.0
210
0.0
220
0.0
230
1.0
2
SOLID
70
1
71
0
91
2
92
1
93
1
72
2
10
61.712000
20
3.810000
40
0.800000
50
0.000000
51
360.000000
73
1
97
0
92
1
93
1
72
2
10
61.712000
20
3.810000
40
0.500000
50
0.000000
51
360.000000
73
1
97
0
75
0
76
0
98
1
10
0.0
20
0.0
0
HATCH
5
1B2
100
AcDbEntity
8
KUPFERLAGE_UNTEN
100
AcDbHatch
10
0.0
20
0.0
30
0.0
210
0.0
220
0.0
230
1.0
2
SOLID
70
1
71
0
91
2
92
1
93
1
72
2
10
43.932000
20
11.430000
40
0.800000
50
0.000000
51
360.000000
73
1
97
0
92
1
93
1
72
2
10
43.932000
20
11.430000
40
0.500000
50
0.000000
51
360.000000
73
1
97
0
75
0
76
0
98
1
10
0.0
20
0.0
0
HATCH
5
1B3
100
AcDbEntity
8
KUPFERLAGE_UNTEN
100
AcDbHatch
10
0.0
20
0.0
30
0.0
210
0.0
220
0.0
230
1.0
2
SOLID
70
1
71
0
91
2
92
1
93
1
72
2
10
49.012000
20
11.430000
40
0.800000
50
0.000000
51
360.000000
73
1
97
0
92
1
93
1
72
2
10
49.012000
20
11.430000
40
0.500000
50
0.000000
51
360.000000
73
1
97
0
75
0
76
0
98
1
10
0.0
20
0.0
0
HATCH
5
1B4
100
AcDbEntity
8
KUPFERLAGE_UNTEN
100
AcDbHatch
10
0.0
20
0.0
30
0.0
210
0.0
220
0.0
230
1.0
2
SOLID
70
1
71
0
91
2
92
1
93
1
72
2
10
54.092000
20
11.430000
40
0.800000
50
0.000000
51
360.000000
73
1
97
0
92
1
93
1
72
2
10
54.092000
20
11.430000
40
0.500000
50
0.000000
51
360.000000
73
1
97
0
75
0
76
0
98
1
10
0.0
20
0.0
0
HATCH
5
1B5
100
AcDbEntity
8
KUPFERLAGE_UNTEN
100
AcDbHatch
10
0.0
20
0.0
30
0.0
210
0.0
220
0.0
230
1.0
2
SOLID
70
1
71
0
91
2
92
1
93
1
72
2
10
61.712000
20
11.430000
40
0.800000
50
0.000000
51
360.000000
73
1
97
0
92
1
93
1
72
2
10
61.712000
20
11.430000
40
0.500000
50
0.000000
51
360.000000
73
1
97
0
75
0
76
0
98
1
10
0.0
20
0.0
0
HATCH
5
1B6
100
AcDbEntity
8
SIEBDRUCK_OBEN
62
255
100
AcDbHatch
10
0.0
20
0.0
30
0.0
210
0.0
220
0.0
230
1.0
2
SOLID
70
1
71
0
91
1
92
1
93
1
72
2
10
4.000000
20
4.000000
40
1.600000
50
0.000000
51
360.000000
73
1
97
0
75
0
76
0
98
1
10
0.0
20
0.0
0
CIRCLE
5
1B7
100
AcDbEntity
8
SIEBDRUCK_OBEN
62
255
100
AcDbCircle
39
0.000001
10
4.000000
20
4.000000
30
0
40
1.600000
0
HATCH
5
1B8
100
AcDbEntity
8
SIEBDRUCK_OBEN
62
255
100
AcDbHatch
10
0.0
20
0.0
30
0.0
210
0.0
220
0.0
230
1.0
2
SOLID
70
1
71
0
91
1
92
1
93
1
72
2
10
4.000000
20
24.000000
40
1.600000
50
0.000000
51
360.000000
73
1
97
0
75
0
76
0
98
1
10
0.0
20
0.0
0
CIRCLE
5
1B9
100
AcDbEntity
8
SIEBDRUCK_OBEN
62
255
100
AcDbCircle
39
0.000001
10
4.000000
20
24.000000
30
0
40
1.600000
0
HATCH
5
1BA
100
AcDbEntity
8
SIEBDRUCK_OBEN
62
255
100
AcDbHatch
10
0.0
20
0.0
30
0.0
210
0.0
220
0.0
230
1.0
2
SOLID
70
1
71
0
91
1
92
1
93
1
72
2
10
68.000000
20
4.000000
40
1.600000
50
0.000000
51
360.000000
73
1
97
0
75
0
76
0
98
1
10
0.0
20
0.0
0
CIRCLE
5
1BB
100
AcDbEntity
8
SIEBDRUCK_OBEN
62
255
100
AcDbCircle
39
0.000001
10
68.000000
20
4.000000
30
0
40
1.600000
0
HATCH
5
1BC
100
AcDbEntity
8
SIEBDRUCK_OBEN
62
255
100
AcDbHatch
10
0.0
20
0.0
30
0.0
210
0.0
220
0.0
230
1.0
2
SOLID
70
1
71
0
91
1
92
1
93
1
72
2
10
68.000000
20
24.000000
40
1.600000
50
0.000000
51
360.000000
73
1
97
0
75
0
76
0
98
1
10
0.0
20
0.0
0
CIRCLE
5
1BD
100
AcDbEntity
8
SIEBDRUCK_OBEN
62
255
100
AcDbCircle
39
0.000001
10
68.000000
20
24.000000
30
0
40
1.600000
0
LWPOLYLINE
5
1BE
100
AcDbEntity
8
SIEBDRUCK_OBEN
62
4
100
AcDbPolyline
90
2
70
0
43
0.203200
39
0.203200
10
8.826000
20
2.554000
10
38.926000
20
2.554000
0
LWPOLYLINE
5
1BF
100
AcDbEntity
8
SIEBDRUCK_OBEN
62
4
100
AcDbPolyline
90
2
70
0
43
0.203200
39
0.203200
10
38.926000
20
2.554000
10
38.926000
20
10.654000
0
LWPOLYLINE
5
1C0
100
AcDbEntity
8
SIEBDRUCK_OBEN
62
4
100
AcDbPolyline
90
2
70
0
43
0.203200
39
0.203200
10
38.926000
20
10.654000
10
8.826000
20
10.654000
0
LWPOLYLINE
5
1C1
100
AcDbEntity
8
SIEBDRUCK_OBEN
62
4
100
AcDbPolyline
90
2
70
0
43
0.203200
39
0.203200
10
8.826000
20
10.654000
10
8.826000
20
2.554000
0
LWPOLYLINE
5
1C2
100
AcDbEntity
8
SIEBDRUCK_OBEN
62
4
100
AcDbPolyline
90
2
70
0
43
0.203200
39
0.203200
10
8.410000
20
14.478000
10
62.710000
20
14.478000
0
LWPOLYLINE
5
1C3
100
AcDbEntity
8
SIEBDRUCK_OBEN
62
4
100
AcDbPolyline
90
2
70
0
43
0.203200
39
0.203200
10
62.710000
20
14.478000
10
62.710000
20
27.178000
0
LWPOLYLINE
5
1C4
100
AcDbEntity
8
SIEBDRUCK_OBEN
62
4
100
AcDbPolyline
90
2
70
0
43
0.203200
39
0.203200
10
62.710000
20
27.178000
10
8.410000
20
27.178000
0
LWPOLYLINE
5
1C5
100
AcDbEntity
8
SIEBDRUCK_OBEN
62
4
100
AcDbPolyline
90
2
70
0
43
0.203200
39
0.203200
10
8.410000
20
27.178000
10
8.410000
20
14.478000
0
LWPOLYLINE
5
1C6
100
AcDbEntity
8
SIEBDRUCK_OBEN
62
4
100
AcDbPolyline
90
2
70
0
43
0.203200
39
0.203200
10
62.832000
20
12.520000
10
42.832000
20
12.520000
0
LWPOLYLINE
5
1C7
100
AcDbEntity
8
SIEBDRUCK_OBEN
62
4
100
AcDbPolyline
90
2
70
0
43
0.203200
39
0.203200
10
42.832000
20
12.520000
10
42.832000
20
2.720000
0
LWPOLYLINE
5
1C8
100
AcDbEntity
8
SIEBDRUCK_OBEN
62
4
100
AcDbPolyline
90
2
70
0
43
0.203200
39
0.203200
10
42.832000
20
2.720000
10
62.832000
20
2.720000
0
LWPOLYLINE
5
1C9
100
AcDbEntity
8
SIEBDRUCK_OBEN
62
4
100
AcDbPolyline
90
2
70
0
43
0.203200
39
0.203200
10
62.832000
20
2.720000
10
62.832000
20
12.520000
0
HATCH
5
1CA
100
AcDbEntity
8
SIEBDRUCK_UNTEN
62
255
100
AcDbHatch
10
0.0
20
0.0
30
0.0
210
0.0
220
0.0
230
1.0
2
SOLID
70
1
71
0
91
1
92
1
93
1
72
2
10
4.000000
20
4.000000
40
1.600000
50
0.000000
51
360.000000
73
1
97
0
75
0
76
0
98
1
10
0.0
20
0.0
0
CIRCLE
5
1CB
100
AcDbEntity
8
SIEBDRUCK_UNTEN
62
255
100
AcDbCircle
39
0.000001
10
4.000000
20
4.000000
30
0
40
1.600000
0
HATCH
5
1CC
100
AcDbEntity
8
SIEBDRUCK_UNTEN
62
255
100
AcDbHatch
10
0.0
20
0.0
30
0.0
210
0.0
220
0.0
230
1.0
2
SOLID
70
1
71
0
91
1
92
1
93
1
72
2
10
4.000000
20
24.000000
40
1.600000
50
0.000000
51
360.000000
73
1
97
0
75
0
76
0
98
1
10
0.0
20
0.0
0
CIRCLE
5
1CD
100
AcDbEntity
8
SIEBDRUCK_UNTEN
62
255
100
AcDbCircle
39
0.000001
10
4.000000
20
24.000000
30
0
40
1.600000
0
HATCH
5
1CE
100
AcDbEntity
8
SIEBDRUCK_UNTEN
62
255
100
AcDbHatch
10
0.0
20
0.0
30
0.0
210
0.0
220
0.0
230
1.0
2
SOLID
70
1
71
0
91
1
92
1
93
1
72
2
10
68.000000
20
4.000000
40
1.600000
50
0.000000
51
360.000000
73
1
97
0
75
0
76
0
98
1
10
0.0
20
0.0
0
CIRCLE
5
1CF
100
AcDbEntity
8
SIEBDRUCK_UNTEN
62
255
100
AcDbCircle
39
0.000001
10
68.000000
20
4.000000
30
0
40
1.600000
0
HATCH
5
1D0
100
AcDbEntity
8
SIEBDRUCK_UNTEN
62
255
100
AcDbHatch
10
0.0
20
0.0
30
0.0
210
0.0
220
0.0
230
1.0
2
SOLID
70
1
71
0
91
1
92
1
93
1
72
2
10
68.000000
20
24.000000
40
1.600000
50
0.000000
51
360.000000
73
1
97
0
75
0
76
0
98
1
10
0.0
20
0.0
0
CIRCLE
5
1D1
100
AcDbEntity
8
SIEBDRUCK_UNTEN
62
255
100
AcDbCircle
39
0.000001
10
68.000000
20
24.000000
30
0
40
1.600000
0
ENDSEC
0
SECTION
2
OBJECTS
0
DICTIONARY
5
1D2
100
AcDbDictionary
3
ACAD_GROUP
350
1D3
3
ACAD_LAYOUT
350
1D4
3
ACAD_MLINESTYLE
350
1D5
0
DICTIONARY
5
1D3
100
AcDbDictionary
0
DICTIONARY
5
1D4
100
AcDbDictionary
0
DICTIONARY
5
1D5
100
AcDbDictionary
3
STANDARD
350
1D6
0
MLINESTYLE
5
1D6
100
AcDbMlineStyle
2
Standard
70
0
3

62
256
51
90.0
52
90.0
71
2
49
0.5
62
256
6
BYLAYER
49
-0.5
62
256
6
BYLAYER
0
ENDSEC
0
EOF
