999
DXF created by UltiBoard 14.0.0.0
0
SECTION
2
HEADER
9
$ACADVER
1
AC1014
9
$EXTMIN
10
-4.377600
20
-4.377600
30
0.0
9
$EXTMAX
10
44.377600
20
39.429600
30
0.0
9
$LUNITS
70
2
9
$HANDSEED
5
1D1
0
ENDSEC
0
SECTION
2
TABLES
0
TABLE
2
VPORT
5
1
100
AcDbSymbolTable
70
1
0
VPORT
5
2
100
AcDbSymbolTableRecord
100
AcDbViewportTableRecord
2
*ACTIVE
70
0
0
ENDTAB
0
TABLE
2
LTYPE
5
3
100
AcDbSymbolTable
70
1
0
LTYPE
5
4
100
AcDbSymbolTableRecord
100
AcDbLinetypeTableRecord
2
BYBLOCK
70
0
3

72
65
73
0
40
0.0
0
LTYPE
5
5
100
AcDbSymbolTableRecord
100
AcDbLinetypeTableRecord
2
BYLAYER
70
0
3

72
65
73
0
40
0.0
0
LTYPE
5
6
100
AcDbSymbolTableRecord
100
AcDbLinetypeTableRecord
2
CONTINUOUS
70
0
3
Solid line
72
65
73
0
40
0.0
0
ENDTAB
0
TABLE
2
LAYER
5
7
100
AcDbSymbolTable
70
6
0
LAYER
5
8
100
AcDbSymbolTableRecord
100
AcDbLayerTableRecord
2
0
70
0
62
7
6
CONTINUOUS
0
LAYER
5
9
100
AcDbSymbolTableRecord
100
AcDbLayerTableRecord
2
LEITERPLATTENUMRISS
70
0
62
2
6
CONTINUOUS
0
LAYER
5
A
100
AcDbSymbolTableRecord
100
AcDbLayerTableRecord
2
COPPER_TOP
70
0
62
3
6
CONTINUOUS
0
LAYER
5
B
100
AcDbSymbolTableRecord
100
AcDbLayerTableRecord
2
COPPER_BOTTOM
70
0
62
1
6
CONTINUOUS
0
LAYER
5
C
100
AcDbSymbolTableRecord
100
AcDbLayerTableRecord
2
SIEBDRUCK_OBEN
70
0
62
4
6
CONTINUOUS
0
LAYER
5
D
100
AcDbSymbolTableRecord
100
AcDbLayerTableRecord
2
SIEBDRUCK_UNTEN
70
0
62
6
6
CONTINUOUS
0
ENDTAB
0
TABLE
2
STYLE
5
E
100
AcDbSymbolTable
70
2
0
STYLE
5
F
100
AcDbSymbolTableRecord
100
AcDbTextStyleTableRecord
2
MONOTxtStyle
70
0
40
0.0
41
1.0
50
0.0
71
0
42
0.2
3
monotxt
4

0
ENDTAB
0
TABLE
2
VIEW
5
10
100
AcDbSymbolTable
70
0
0
ENDTAB
0
TABLE
2
UCS
5
11
100
AcDbSymbolTable
70
0
0
ENDTAB
0
TABLE
2
APPID
5
12
100
AcDbSymbolTable
70
1
0
APPID
5
13
100
AcDbSymbolTableRecord
100
AcDbRegAppTableRecord
2
ACAD
70
0
0
ENDTAB
0
TABLE
2
DIMSTYLE
5
14
100
AcDbSymbolTable
70
1
0
DIMSTYLE
105
15
100
AcDbSymbolTableRecord
100
AcDbDimStyleTableRecord
2
STANDARD
70
0
0
ENDTAB
0
TABLE
2
BLOCK_RECORD
5
16
100
AcDbSymbolTable
70
0
0
BLOCK_RECORD
5
17
100
AcDbSymbolTableRecord
100
AcDbBlockTableRecord
2
*MODEL_SPACE
0
BLOCK_RECORD
5
18
100
AcDbSymbolTableRecord
100
AcDbBlockTableRecord
2
*PAPER_SPACE
0
ENDTAB
0
ENDSEC
0
SECTION
2
BLOCKS
0
BLOCK
5
19
100
AcDbEntity
8
0
100
AcDbBlockBegin
2
*MODEL_SPACE
70
0
0
ENDBLK
5
1A
100
AcDbEntity
8
0
100
AcDbBlockEnd
0
BLOCK
5
1B
100
AcDbEntity
8
0
100
AcDbBlockBegin
2
*PAPER_SPACE
70
0
0
ENDBLK
5
1C
100
AcDbEntity
8
0
100
AcDbBlockEnd
0
ENDSEC
0
SECTION
2
ENTITIES
0
LWPOLYLINE
5
1D
100
AcDbEntity
8
LEITERPLATTENUMRISS
62
2
100
AcDbPolyline
90
2
70
0
43
0.000001
39
0.000001
10
0.000000
20
0.052000
10
40.000000
20
0.052000
0
LWPOLYLINE
5
1E
100
AcDbEntity
8
LEITERPLATTENUMRISS
62
2
100
AcDbPolyline
90
2
70
0
43
0.000001
39
0.000001
10
40.000000
20
0.052000
10
40.000000
20
35.052000
0
LWPOLYLINE
5
1F
100
AcDbEntity
8
LEITERPLATTENUMRISS
62
2
100
AcDbPolyline
90
2
70
0
43
0.000001
39
0.000001
10
40.000000
20
35.052000
10
0.000000
20
35.052000
0
LWPOLYLINE
5
20
100
AcDbEntity
8
LEITERPLATTENUMRISS
62
2
100
AcDbPolyline
90
2
70
0
43
0.000001
39
0.000001
10
0.000000
20
35.052000
10
0.000000
20
0.052000
0
LWPOLYLINE
5
21
100
AcDbEntity
8
LEITERPLATTENUMRISS
62
2
100
AcDbPolyline
90
2
70
0
43
0.000001
39
0.000001
10
0.000000
20
0.052000
10
40.000000
20
0.052000
0
LWPOLYLINE
5
22
100
AcDbEntity
8
LEITERPLATTENUMRISS
62
2
100
AcDbPolyline
90
2
70
0
43
0.000001
39
0.000001
10
40.000000
20
0.052000
10
40.000000
20
35.052000
0
LWPOLYLINE
5
23
100
AcDbEntity
8
LEITERPLATTENUMRISS
62
2
100
AcDbPolyline
90
2
70
0
43
0.000001
39
0.000001
10
40.000000
20
35.052000
10
0.000000
20
35.052000
0
LWPOLYLINE
5
24
100
AcDbEntity
8
LEITERPLATTENUMRISS
62
2
100
AcDbPolyline
90
2
70
0
43
0.000001
39
0.000001
10
0.000000
20
35.052000
10
0.000000
20
0.052000
0
HATCH
5
25
100
AcDbEntity
8
LEITERPLATTENUMRISS
62
255
100
AcDbHatch
10
0.0
20
0.0
30
0.0
210
0.0
220
0.0
230
1.0
2
SOLID
70
1
71
0
91
1
92
1
93
1
72
2
10
4.000000
20
31.000000
40
1.600000
50
0.000000
51
360.000000
73
1
97
0
75
0
76
0
98
1
10
0.0
20
0.0
0
CIRCLE
5
26
100
AcDbEntity
8
LEITERPLATTENUMRISS
62
255
100
AcDbCircle
39
0.000001
10
4.000000
20
31.000000
30
0
40
1.600000
0
HATCH
5
27
100
AcDbEntity
8
LEITERPLATTENUMRISS
62
255
100
AcDbHatch
10
0.0
20
0.0
30
0.0
210
0.0
220
0.0
230
1.0
2
SOLID
70
1
71
0
91
1
92
1
93
1
72
2
10
4.000000
20
4.000000
40
1.600000
50
0.000000
51
360.000000
73
1
97
0
75
0
76
0
98
1
10
0.0
20
0.0
0
CIRCLE
5
28
100
AcDbEntity
8
LEITERPLATTENUMRISS
62
255
100
AcDbCircle
39
0.000001
10
4.000000
20
4.000000
30
0
40
1.600000
0
HATCH
5
29
100
AcDbEntity
8
LEITERPLATTENUMRISS
62
255
100
AcDbHatch
10
0.0
20
0.0
30
0.0
210
0.0
220
0.0
230
1.0
2
SOLID
70
1
71
0
91
1
92
1
93
1
72
2
10
36.000000
20
31.000000
40
1.600000
50
0.000000
51
360.000000
73
1
97
0
75
0
76
0
98
1
10
0.0
20
0.0
0
CIRCLE
5
2A
100
AcDbEntity
8
LEITERPLATTENUMRISS
62
255
100
AcDbCircle
39
0.000001
10
36.000000
20
31.000000
30
0
40
1.600000
0
HATCH
5
2B
100
AcDbEntity
8
LEITERPLATTENUMRISS
62
255
100
AcDbHatch
10
0.0
20
0.0
30
0.0
210
0.0
220
0.0
230
1.0
2
SOLID
70
1
71
0
91
1
92
1
93
1
72
2
10
36.000000
20
4.000000
40
1.600000
50
0.000000
51
360.000000
73
1
97
0
75
0
76
0
98
1
10
0.0
20
0.0
0
CIRCLE
5
2C
100
AcDbEntity
8
LEITERPLATTENUMRISS
62
255
100
AcDbCircle
39
0.000001
10
36.000000
20
4.000000
30
0
40
1.600000
0
HATCH
5
2D
100
AcDbEntity
8
COPPER_TOP
100
AcDbHatch
10
0.0
20
0.0
30
0.0
210
0.0
220
0.0
230
1.0
2
SOLID
70
1
71
0
91
2
92
1
93
1
72
2
10
14.184000
20
24.525492
40
0.750000
50
0.000000
51
360.000000
73
1
97
0
92
1
93
1
72
2
10
14.184000
20
24.525492
40
0.500000
50
0.000000
51
360.000000
73
1
97
0
75
0
76
0
98
1
10
0.0
20
0.0
0
HATCH
5
2E
100
AcDbEntity
8
COPPER_TOP
100
AcDbHatch
10
0.0
20
0.0
30
0.0
210
0.0
220
0.0
230
1.0
2
SOLID
70
1
71
0
91
2
92
1
93
1
72
2
10
11.684000
20
24.525492
40
0.750000
50
0.000000
51
360.000000
73
1
97
0
92
1
93
1
72
2
10
11.684000
20
24.525492
40
0.500000
50
0.000000
51
360.000000
73
1
97
0
75
0
76
0
98
1
10
0.0
20
0.0
0
HATCH
5
2F
100
AcDbEntity
8
COPPER_TOP
100
AcDbHatch
10
0.0
20
0.0
30
0.0
210
0.0
220
0.0
230
1.0
2
SOLID
70
1
71
0
91
2
92
1
93
1
72
2
10
9.184000
20
24.525492
40
0.750000
50
0.000000
51
360.000000
73
1
97
0
92
1
93
1
72
2
10
9.184000
20
24.525492
40
0.500000
50
0.000000
51
360.000000
73
1
97
0
75
0
76
0
98
1
10
0.0
20
0.0
0
HATCH
5
30
100
AcDbEntity
8
COPPER_TOP
100
AcDbHatch
10
0.0
20
0.0
30
0.0
210
0.0
220
0.0
230
1.0
2
SOLID
70
1
71
0
91
2
92
1
93
1
72
2
10
9.184000
20
10.025492
40
0.750000
50
0.000000
51
360.000000
73
1
97
0
92
1
93
1
72
2
10
9.184000
20
10.025492
40
0.500000
50
0.000000
51
360.000000
73
1
97
0
75
0
76
0
98
1
10
0.0
20
0.0
0
HATCH
5
31
100
AcDbEntity
8
COPPER_TOP
100
AcDbHatch
10
0.0
20
0.0
30
0.0
210
0.0
220
0.0
230
1.0
2
SOLID
70
1
71
0
91
2
92
1
93
1
72
2
10
11.684000
20
10.025492
40
0.750000
50
0.000000
51
360.000000
73
1
97
0
92
1
93
1
72
2
10
11.684000
20
10.025492
40
0.500000
50
0.000000
51
360.000000
73
1
97
0
75
0
76
0
98
1
10
0.0
20
0.0
0
HATCH
5
32
100
AcDbEntity
8
COPPER_TOP
100
AcDbHatch
10
0.0
20
0.0
30
0.0
210
0.0
220
0.0
230
1.0
2
SOLID
70
1
71
0
91
2
92
1
93
1
72
2
10
14.184000
20
10.025492
40
0.750000
50
0.000000
51
360.000000
73
1
97
0
92
1
93
1
72
2
10
14.184000
20
10.025492
40
0.500000
50
0.000000
51
360.000000
73
1
97
0
75
0
76
0
98
1
10
0.0
20
0.0
0
HATCH
5
33
100
AcDbEntity
8
COPPER_TOP
100
AcDbHatch
10
0.0
20
0.0
30
0.0
210
0.0
220
0.0
230
1.0
2
SOLID
70
1
71
0
91
2
92
1
93
4
72
1
10
7.184000
20
15.925492
11
4.484000
21
15.925492
72
1
10
4.484000
20
15.925492
11
4.484000
21
18.625492
72
1
10
4.484000
20
18.625492
11
7.184000
21
18.625492
72
1
10
7.184000
20
18.625492
11
7.184000
21
15.925492
97
0
92
1
93
1
72
2
10
5.834000
20
17.275492
40
1.050000
50
0.000000
51
360.000000
73
1
97
0
75
0
76
0
98
1
10
0.0
20
0.0
0
HATCH
5
34
100
AcDbEntity
8
COPPER_TOP
100
AcDbHatch
10
0.0
20
0.0
30
0.0
210
0.0
220
0.0
230
1.0
2
SOLID
70
1
71
0
91
2
92
1
93
4
72
1
10
18.884000
20
15.925492
11
16.184000
21
15.925492
72
1
10
16.184000
20
15.925492
11
16.184000
21
18.625492
72
1
10
16.184000
20
18.625492
11
18.884000
21
18.625492
72
1
10
18.884000
20
18.625492
11
18.884000
21
15.925492
97
0
92
1
93
1
72
2
10
17.534000
20
17.275492
40
1.050000
50
0.000000
51
360.000000
73
1
97
0
75
0
76
0
98
1
10
0.0
20
0.0
0
HATCH
5
35
100
AcDbEntity
8
COPPER_TOP
100
AcDbHatch
10
0.0
20
0.0
30
0.0
210
0.0
220
0.0
230
1.0
2
SOLID
70
1
71
0
91
2
92
1
93
1
72
2
10
30.948000
20
24.525492
40
0.750000
50
0.000000
51
360.000000
73
1
97
0
92
1
93
1
72
2
10
30.948000
20
24.525492
40
0.500000
50
0.000000
51
360.000000
73
1
97
0
75
0
76
0
98
1
10
0.0
20
0.0
0
HATCH
5
36
100
AcDbEntity
8
COPPER_TOP
100
AcDbHatch
10
0.0
20
0.0
30
0.0
210
0.0
220
0.0
230
1.0
2
SOLID
70
1
71
0
91
2
92
1
93
1
72
2
10
28.448000
20
24.525492
40
0.750000
50
0.000000
51
360.000000
73
1
97
0
92
1
93
1
72
2
10
28.448000
20
24.525492
40
0.500000
50
0.000000
51
360.000000
73
1
97
0
75
0
76
0
98
1
10
0.0
20
0.0
0
HATCH
5
37
100
AcDbEntity
8
COPPER_TOP
100
AcDbHatch
10
0.0
20
0.0
30
0.0
210
0.0
220
0.0
230
1.0
2
SOLID
70
1
71
0
91
2
92
1
93
1
72
2
10
25.948000
20
24.525492
40
0.750000
50
0.000000
51
360.000000
73
1
97
0
92
1
93
1
72
2
10
25.948000
20
24.525492
40
0.500000
50
0.000000
51
360.000000
73
1
97
0
75
0
76
0
98
1
10
0.0
20
0.0
0
HATCH
5
38
100
AcDbEntity
8
COPPER_TOP
100
AcDbHatch
10
0.0
20
0.0
30
0.0
210
0.0
220
0.0
230
1.0
2
SOLID
70
1
71
0
91
2
92
1
93
1
72
2
10
25.948000
20
10.025492
40
0.750000
50
0.000000
51
360.000000
73
1
97
0
92
1
93
1
72
2
10
25.948000
20
10.025492
40
0.500000
50
0.000000
51
360.000000
73
1
97
0
75
0
76
0
98
1
10
0.0
20
0.0
0
HATCH
5
39
100
AcDbEntity
8
COPPER_TOP
100
AcDbHatch
10
0.0
20
0.0
30
0.0
210
0.0
220
0.0
230
1.0
2
SOLID
70
1
71
0
91
2
92
1
93
1
72
2
10
28.448000
20
10.025492
40
0.750000
50
0.000000
51
360.000000
73
1
97
0
92
1
93
1
72
2
10
28.448000
20
10.025492
40
0.500000
50
0.000000
51
360.000000
73
1
97
0
75
0
76
0
98
1
10
0.0
20
0.0
0
HATCH
5
3A
100
AcDbEntity
8
COPPER_TOP
100
AcDbHatch
10
0.0
20
0.0
30
0.0
210
0.0
220
0.0
230
1.0
2
SOLID
70
1
71
0
91
2
92
1
93
1
72
2
10
30.948000
20
10.025492
40
0.750000
50
0.000000
51
360.000000
73
1
97
0
92
1
93
1
72
2
10
30.948000
20
10.025492
40
0.500000
50
0.000000
51
360.000000
73
1
97
0
75
0
76
0
98
1
10
0.0
20
0.0
0
HATCH
5
3B
100
AcDbEntity
8
COPPER_TOP
100
AcDbHatch
10
0.0
20
0.0
30
0.0
210
0.0
220
0.0
230
1.0
2
SOLID
70
1
71
0
91
2
92
1
93
4
72
1
10
23.948000
20
15.925492
11
21.248000
21
15.925492
72
1
10
21.248000
20
15.925492
11
21.248000
21
18.625492
72
1
10
21.248000
20
18.625492
11
23.948000
21
18.625492
72
1
10
23.948000
20
18.625492
11
23.948000
21
15.925492
97
0
92
1
93
1
72
2
10
22.598000
20
17.275492
40
1.050000
50
0.000000
51
360.000000
73
1
97
0
75
0
76
0
98
1
10
0.0
20
0.0
0
HATCH
5
3C
100
AcDbEntity
8
COPPER_TOP
100
AcDbHatch
10
0.0
20
0.0
30
0.0
210
0.0
220
0.0
230
1.0
2
SOLID
70
1
71
0
91
2
92
1
93
4
72
1
10
35.648000
20
15.925492
11
32.948000
21
15.925492
72
1
10
32.948000
20
15.925492
11
32.948000
21
18.625492
72
1
10
32.948000
20
18.625492
11
35.648000
21
18.625492
72
1
10
35.648000
20
18.625492
11
35.648000
21
15.925492
97
0
92
1
93
1
72
2
10
34.298000
20
17.275492
40
1.050000
50
0.000000
51
360.000000
73
1
97
0
75
0
76
0
98
1
10
0.0
20
0.0
0
HATCH
5
3D
100
AcDbEntity
8
COPPER_TOP
100
AcDbHatch
10
0.0
20
0.0
30
0.0
210
0.0
220
0.0
230
1.0
2
SOLID
70
1
71
0
91
2
92
1
93
8
72
1
10
1.270000
20
22.613049
11
1.270000
21
22.083967
72
2
10
1.767459
20
22.083967
40
0.497459
50
180.000000
51
270.000000
73
1
72
1
10
1.767459
20
21.586508
11
2.296541
21
21.586508
72
2
10
2.296541
20
22.083967
40
0.497459
50
270.000000
51
0.000000
73
1
72
1
10
2.794000
20
22.083967
11
2.794000
21
22.613049
72
2
10
2.296541
20
22.613049
40
0.497459
50
0.000000
51
90.000000
73
1
72
1
10
2.296541
20
23.110508
11
1.767459
21
23.110508
72
2
10
1.767459
20
22.613049
40
0.497459
50
90.000000
51
180.000000
73
1
97
0
92
1
93
1
72
2
10
2.032000
20
22.348508
40
0.497459
50
0.000000
51
360.000000
73
1
97
0
75
0
76
0
98
1
10
0.0
20
0.0
0
HATCH
5
3E
100
AcDbEntity
8
COPPER_TOP
100
AcDbHatch
10
0.0
20
0.0
30
0.0
210
0.0
220
0.0
230
1.0
2
SOLID
70
1
71
0
91
2
92
1
93
1
72
2
10
2.032000
20
19.808508
40
0.804418
50
0.000000
51
360.000000
73
1
97
0
92
1
93
1
72
2
10
2.032000
20
19.808508
40
0.444500
50
0.000000
51
360.000000
73
1
97
0
75
0
76
0
98
1
10
0.0
20
0.0
0
HATCH
5
3F
100
AcDbEntity
8
COPPER_TOP
100
AcDbHatch
10
0.0
20
0.0
30
0.0
210
0.0
220
0.0
230
1.0
2
SOLID
70
1
71
0
91
2
92
1
93
1
72
2
10
2.032000
20
17.268508
40
0.804418
50
0.000000
51
360.000000
73
1
97
0
92
1
93
1
72
2
10
2.032000
20
17.268508
40
0.444500
50
0.000000
51
360.000000
73
1
97
0
75
0
76
0
98
1
10
0.0
20
0.0
0
HATCH
5
40
100
AcDbEntity
8
COPPER_TOP
100
AcDbHatch
10
0.0
20
0.0
30
0.0
210
0.0
220
0.0
230
1.0
2
SOLID
70
1
71
0
91
2
92
1
93
1
72
2
10
2.032000
20
14.728508
40
0.804418
50
0.000000
51
360.000000
73
1
97
0
92
1
93
1
72
2
10
2.032000
20
14.728508
40
0.444500
50
0.000000
51
360.000000
73
1
97
0
75
0
76
0
98
1
10
0.0
20
0.0
0
HATCH
5
41
100
AcDbEntity
8
COPPER_TOP
100
AcDbHatch
10
0.0
20
0.0
30
0.0
210
0.0
220
0.0
230
1.0
2
SOLID
70
1
71
0
91
2
92
1
93
1
72
2
10
2.032000
20
12.188508
40
0.804418
50
0.000000
51
360.000000
73
1
97
0
92
1
93
1
72
2
10
2.032000
20
12.188508
40
0.444500
50
0.000000
51
360.000000
73
1
97
0
75
0
76
0
98
1
10
0.0
20
0.0
0
HATCH
5
42
100
AcDbEntity
8
COPPER_TOP
100
AcDbHatch
10
0.0
20
0.0
30
0.0
210
0.0
220
0.0
230
1.0
2
SOLID
70
1
71
0
91
2
92
1
93
8
72
1
10
37.338000
20
22.613049
11
37.338000
21
22.083967
72
2
10
37.835459
20
22.083967
40
0.497459
50
180.000000
51
270.000000
73
1
72
1
10
37.835459
20
21.586508
11
38.364541
21
21.586508
72
2
10
38.364541
20
22.083967
40
0.497459
50
270.000000
51
0.000000
73
1
72
1
10
38.862000
20
22.083967
11
38.862000
21
22.613049
72
2
10
38.364541
20
22.613049
40
0.497459
50
0.000000
51
90.000000
73
1
72
1
10
38.364541
20
23.110508
11
37.835459
21
23.110508
72
2
10
37.835459
20
22.613049
40
0.497459
50
90.000000
51
180.000000
73
1
97
0
92
1
93
1
72
2
10
38.100000
20
22.348508
40
0.497459
50
0.000000
51
360.000000
73
1
97
0
75
0
76
0
98
1
10
0.0
20
0.0
0
HATCH
5
43
100
AcDbEntity
8
COPPER_TOP
100
AcDbHatch
10
0.0
20
0.0
30
0.0
210
0.0
220
0.0
230
1.0
2
SOLID
70
1
71
0
91
2
92
1
93
1
72
2
10
38.100000
20
19.808508
40
0.804418
50
0.000000
51
360.000000
73
1
97
0
92
1
93
1
72
2
10
38.100000
20
19.808508
40
0.444500
50
0.000000
51
360.000000
73
1
97
0
75
0
76
0
98
1
10
0.0
20
0.0
0
HATCH
5
44
100
AcDbEntity
8
COPPER_TOP
100
AcDbHatch
10
0.0
20
0.0
30
0.0
210
0.0
220
0.0
230
1.0
2
SOLID
70
1
71
0
91
2
92
1
93
1
72
2
10
38.100000
20
17.268508
40
0.804418
50
0.000000
51
360.000000
73
1
97
0
92
1
93
1
72
2
10
38.100000
20
17.268508
40
0.444500
50
0.000000
51
360.000000
73
1
97
0
75
0
76
0
98
1
10
0.0
20
0.0
0
HATCH
5
45
100
AcDbEntity
8
COPPER_TOP
100
AcDbHatch
10
0.0
20
0.0
30
0.0
210
0.0
220
0.0
230
1.0
2
SOLID
70
1
71
0
91
2
92
1
93
1
72
2
10
38.100000
20
14.728508
40
0.804418
50
0.000000
51
360.000000
73
1
97
0
92
1
93
1
72
2
10
38.100000
20
14.728508
40
0.444500
50
0.000000
51
360.000000
73
1
97
0
75
0
76
0
98
1
10
0.0
20
0.0
0
HATCH
5
46
100
AcDbEntity
8
COPPER_TOP
100
AcDbHatch
10
0.0
20
0.0
30
0.0
210
0.0
220
0.0
230
1.0
2
SOLID
70
1
71
0
91
2
92
1
93
1
72
2
10
38.100000
20
12.188508
40
0.804418
50
0.000000
51
360.000000
73
1
97
0
92
1
93
1
72
2
10
38.100000
20
12.188508
40
0.444500
50
0.000000
51
360.000000
73
1
97
0
75
0
76
0
98
1
10
0.0
20
0.0
0
HATCH
5
47
100
AcDbEntity
8
COPPER_TOP
62
255
100
AcDbHatch
10
0.0
20
0.0
30
0.0
210
0.0
220
0.0
230
1.0
2
SOLID
70
1
71
0
91
1
92
1
93
1
72
2
10
4.000000
20
31.000000
40
1.600000
50
0.000000
51
360.000000
73
1
97
0
75
0
76
0
98
1
10
0.0
20
0.0
0
CIRCLE
5
48
100
AcDbEntity
8
COPPER_TOP
62
255
100
AcDbCircle
39
0.000001
10
4.000000
20
31.000000
30
0
40
1.600000
0
HATCH
5
49
100
AcDbEntity
8
COPPER_TOP
62
255
100
AcDbHatch
10
0.0
20
0.0
30
0.0
210
0.0
220
0.0
230
1.0
2
SOLID
70
1
71
0
91
1
92
1
93
1
72
2
10
4.000000
20
4.000000
40
1.600000
50
0.000000
51
360.000000
73
1
97
0
75
0
76
0
98
1
10
0.0
20
0.0
0
CIRCLE
5
4A
100
AcDbEntity
8
COPPER_TOP
62
255
100
AcDbCircle
39
0.000001
10
4.000000
20
4.000000
30
0
40
1.600000
0
HATCH
5
4B
100
AcDbEntity
8
COPPER_TOP
62
255
100
AcDbHatch
10
0.0
20
0.0
30
0.0
210
0.0
220
0.0
230
1.0
2
SOLID
70
1
71
0
91
1
92
1
93
1
72
2
10
36.000000
20
31.000000
40
1.600000
50
0.000000
51
360.000000
73
1
97
0
75
0
76
0
98
1
10
0.0
20
0.0
0
CIRCLE
5
4C
100
AcDbEntity
8
COPPER_TOP
62
255
100
AcDbCircle
39
0.000001
10
36.000000
20
31.000000
30
0
40
1.600000
0
HATCH
5
4D
100
AcDbEntity
8
COPPER_TOP
62
255
100
AcDbHatch
10
0.0
20
0.0
30
0.0
210
0.0
220
0.0
230
1.0
2
SOLID
70
1
71
0
91
1
92
1
93
1
72
2
10
36.000000
20
4.000000
40
1.600000
50
0.000000
51
360.000000
73
1
97
0
75
0
76
0
98
1
10
0.0
20
0.0
0
CIRCLE
5
4E
100
AcDbEntity
8
COPPER_TOP
62
255
100
AcDbCircle
39
0.000001
10
36.000000
20
4.000000
30
0
40
1.600000
0
HATCH
5
4F
100
AcDbEntity
8
COPPER_TOP
62
3
100
AcDbHatch
10
0.0
20
0.0
30
0.0
210
0.0
220
0.0
230
1.0
2
SOLID
70
1
71
0
91
9
92
1
93
28
72
1
10
34.880725
20
34.321483
11
5.119275
21
34.321483
72
2
10
4.000000
20
31.000000
40
3.505000
50
288.622807
51
158.876439
73
0
72
1
10
0.730517
20
29.736867
11
0.730517
21
23.275313
72
2
10
1.767459
20
22.613049
40
1.230383
50
212.565160
51
270.000000
73
0
72
1
10
1.767459
20
23.843432
11
2.296541
21
23.843432
72
2
10
2.296541
20
22.613049
40
1.230383
50
270.000000
51
360.000000
73
0
72
1
10
3.526924
20
22.613049
11
3.526924
21
22.083967
72
2
10
2.296541
20
22.083967
40
1.230383
50
360.000000
51
58.207615
73
0
72
2
10
2.032000
20
19.808508
40
1.531418
50
306.585553
51
56.026567
73
0
72
2
10
2.032000
20
17.268508
40
1.531418
50
303.973433
51
56.026567
73
0
72
2
10
2.032000
20
14.728508
40
1.531418
50
303.973433
51
56.026567
73
0
72
2
10
2.032000
20
12.188508
40
1.531418
50
303.973433
51
148.195885
73
0
72
1
10
0.730517
20
11.381425
11
0.730517
21
5.789137
72
2
10
4.000000
20
4.000000
40
3.727000
50
208.688497
51
59.688051
73
0
72
1
10
5.881045
20
0.782517
11
34.609738
21
0.782517
72
2
10
36.000000
20
4.000000
40
3.505000
50
113.368985
51
338.876439
73
0
72
1
10
39.269483
20
5.263133
11
39.269483
21
11.199796
72
2
10
38.100000
20
12.188508
40
1.531418
50
40.212054
51
236.026567
73
0
72
2
10
38.100000
20
14.728508
40
1.531418
50
123.973433
51
236.026567
73
0
72
2
10
38.100000
20
17.268508
40
1.531418
50
123.973433
51
236.026567
73
0
72
2
10
38.100000
20
19.808508
40
1.531418
50
123.973433
51
233.414447
73
0
72
2
10
37.835459
20
22.083967
40
1.230383
50
121.792385
51
180.000000
73
0
72
1
10
36.605076
20
22.083967
11
36.605076
21
22.613049
72
2
10
37.835459
20
22.613049
40
1.230383
50
180.000000
51
270.000000
73
0
72
1
10
37.835459
20
23.843432
11
38.364541
21
23.843432
72
2
10
38.364541
20
22.613049
40
1.230383
50
270.000000
51
317.349160
73
0
72
1
10
39.269483
20
23.446669
11
39.269483
21
29.736867
72
2
10
36.000000
20
31.000000
40
3.505000
50
21.123561
51
251.377193
73
0
97
0
92
1
93
4
72
2
10
14.184000
20
10.025492
40
1.477000
50
212.187426
51
147.812574
73
0
72
2
10
11.684000
20
10.025492
40
1.477000
50
32.187426
51
147.812574
73
0
72
2
10
9.184000
20
10.025492
40
1.477000
50
32.187426
51
327.812574
73
0
72
2
10
11.684000
20
10.025492
40
1.477000
50
212.187426
51
327.812574
73
0
97
0
92
1
93
8
72
2
10
4.484000
20
15.925492
40
0.730517
50
90.000000
51
180.000000
73
0
72
1
10
3.753483
20
15.925492
11
3.753483
21
18.625492
72
2
10
4.484000
20
18.625492
40
0.730517
50
180.000000
51
270.000000
73
0
72
1
10
4.484000
20
19.356009
11
7.184000
21
19.356009
72
2
10
7.184000
20
18.625492
40
0.730517
50
270.000000
51
360.000000
73
0
72
1
10
7.914517
20
18.625492
11
7.914517
21
15.925492
72
2
10
7.184000
20
15.925492
40
0.730517
50
360.000000
51
90.000000
73
0
72
1
10
7.184000
20
15.194975
11
4.484000
21
15.194975
97
0
92
1
93
8
72
2
10
16.184000
20
15.925492
40
0.730517
50
90.000000
51
180.000000
73
0
72
1
10
15.453483
20
15.925492
11
15.453483
21
18.625492
72
2
10
16.184000
20
18.625492
40
0.730517
50
180.000000
51
270.000000
73
0
72
1
10
16.184000
20
19.356009
11
18.884000
21
19.356009
72
2
10
18.884000
20
18.625492
40
0.730517
50
270.000000
51
360.000000
73
0
72
1
10
19.614517
20
18.625492
11
19.614517
21
15.925492
72
2
10
18.884000
20
15.925492
40
0.730517
50
360.000000
51
90.000000
73
0
72
1
10
18.884000
20
15.194975
11
16.184000
21
15.194975
97
0
92
1
93
4
72
2
10
14.184000
20
24.525492
40
1.477000
50
212.187426
51
147.812574
73
0
72
2
10
11.684000
20
24.525492
40
1.477000
50
32.187426
51
147.812574
73
0
72
2
10
9.184000
20
24.525492
40
1.477000
50
32.187426
51
327.812574
73
0
72
2
10
11.684000
20
24.525492
40
1.477000
50
212.187426
51
327.812574
73
0
97
0
92
1
93
4
72
2
10
30.948000
20
10.025492
40
1.477000
50
212.187426
51
147.812574
73
0
72
2
10
28.448000
20
10.025492
40
1.477000
50
32.187426
51
147.812574
73
0
72
2
10
25.948000
20
10.025492
40
1.477000
50
32.187426
51
327.812574
73
0
72
2
10
28.448000
20
10.025492
40
1.477000
50
212.187426
51
327.812574
73
0
97
0
92
1
93
8
72
2
10
21.248000
20
15.925492
40
0.730517
50
90.000000
51
180.000000
73
0
72
1
10
20.517483
20
15.925492
11
20.517483
21
18.625492
72
2
10
21.248000
20
18.625492
40
0.730517
50
180.000000
51
270.000000
73
0
72
1
10
21.248000
20
19.356009
11
23.948000
21
19.356009
72
2
10
23.948000
20
18.625492
40
0.730517
50
270.000000
51
360.000000
73
0
72
1
10
24.678517
20
18.625492
11
24.678517
21
15.925492
72
2
10
23.948000
20
15.925492
40
0.730517
50
360.000000
51
90.000000
73
0
72
1
10
23.948000
20
15.194975
11
21.248000
21
15.194975
97
0
92
1
93
8
72
2
10
32.948000
20
15.925492
40
0.730517
50
90.000000
51
180.000000
73
0
72
1
10
32.217483
20
15.925492
11
32.217483
21
18.625492
72
2
10
32.948000
20
18.625492
40
0.730517
50
180.000000
51
270.000000
73
0
72
1
10
32.948000
20
19.356009
11
35.648000
21
19.356009
72
2
10
35.648000
20
18.625492
40
0.730517
50
270.000000
51
360.000000
73
0
72
1
10
36.378517
20
18.625492
11
36.378517
21
15.925492
72
2
10
35.648000
20
15.925492
40
0.730517
50
360.000000
51
90.000000
73
0
72
1
10
35.648000
20
15.194975
11
32.948000
21
15.194975
97
0
92
1
93
4
72
2
10
30.948000
20
24.525492
40
1.477000
50
212.187426
51
147.812574
73
0
72
2
10
28.448000
20
24.525492
40
1.477000
50
32.187426
51
147.812574
73
0
72
2
10
25.948000
20
24.525492
40
1.477000
50
32.187426
51
327.812574
73
0
72
2
10
28.448000
20
24.525492
40
1.477000
50
212.187426
51
327.812574
73
0
97
0
75
0
76
0
98
1
10
0.0
20
0.0
0
ARC
5
50
100
AcDbEntity
8
COPPER_TOP
62
3
100
AcDbCircle
39
0.254000
10
14.184000
20
10.025492
30
0.0
40
1.477000
100
AcDbArc
50
212.187426
51
147.812574
0
ARC
5
51
100
AcDbEntity
8
COPPER_TOP
62
3
100
AcDbCircle
39
0.254000
10
11.684000
20
10.025492
30
0.0
40
1.477000
100
AcDbArc
50
212.187426
51
327.812574
0
ARC
5
52
100
AcDbEntity
8
COPPER_TOP
62
3
100
AcDbCircle
39
0.254000
10
9.184000
20
10.025492
30
0.0
40
1.477000
100
AcDbArc
50
32.187426
51
327.812574
0
ARC
5
53
100
AcDbEntity
8
COPPER_TOP
62
3
100
AcDbCircle
39
0.254000
10
11.684000
20
10.025492
30
0.0
40
1.477000
100
AcDbArc
50
32.187426
51
147.812574
0
ARC
5
54
100
AcDbEntity
8
COPPER_TOP
62
3
100
AcDbCircle
39
0.254000
10
4.484000
20
15.925492
30
0.0
40
0.730517
100
AcDbArc
50
180.000000
51
270.000000
0
LWPOLYLINE
5
55
100
AcDbEntity
8
COPPER_TOP
62
3
100
AcDbPolyline
90
2
70
0
43
0.254000
39
0.254000
10
3.753483
20
15.925492
10
3.753483
20
18.625492
0
ARC
5
56
100
AcDbEntity
8
COPPER_TOP
62
3
100
AcDbCircle
39
0.254000
10
4.484000
20
18.625492
30
0.0
40
0.730517
100
AcDbArc
50
90.000000
51
180.000000
0
LWPOLYLINE
5
57
100
AcDbEntity
8
COPPER_TOP
62
3
100
AcDbPolyline
90
2
70
0
43
0.254000
39
0.254000
10
4.484000
20
19.356009
10
7.184000
20
19.356009
0
ARC
5
58
100
AcDbEntity
8
COPPER_TOP
62
3
100
AcDbCircle
39
0.254000
10
7.184000
20
18.625492
30
0.0
40
0.730517
100
AcDbArc
50
0.000000
51
90.000000
0
LWPOLYLINE
5
59
100
AcDbEntity
8
COPPER_TOP
62
3
100
AcDbPolyline
90
2
70
0
43
0.254000
39
0.254000
10
7.914517
20
18.625492
10
7.914517
20
15.925492
0
ARC
5
5A
100
AcDbEntity
8
COPPER_TOP
62
3
100
AcDbCircle
39
0.254000
10
7.184000
20
15.925492
30
0.0
40
0.730517
100
AcDbArc
50
270.000000
51
0.000000
0
LWPOLYLINE
5
5B
100
AcDbEntity
8
COPPER_TOP
62
3
100
AcDbPolyline
90
2
70
0
43
0.254000
39
0.254000
10
7.184000
20
15.194975
10
4.484000
20
15.194975
0
ARC
5
5C
100
AcDbEntity
8
COPPER_TOP
62
3
100
AcDbCircle
39
0.254000
10
16.184000
20
15.925492
30
0.0
40
0.730517
100
AcDbArc
50
180.000000
51
270.000000
0
LWPOLYLINE
5
5D
100
AcDbEntity
8
COPPER_TOP
62
3
100
AcDbPolyline
90
2
70
0
43
0.254000
39
0.254000
10
15.453483
20
15.925492
10
15.453483
20
18.625492
0
ARC
5
5E
100
AcDbEntity
8
COPPER_TOP
62
3
100
AcDbCircle
39
0.254000
10
16.184000
20
18.625492
30
0.0
40
0.730517
100
AcDbArc
50
90.000000
51
180.000000
0
LWPOLYLINE
5
5F
100
AcDbEntity
8
COPPER_TOP
62
3
100
AcDbPolyline
90
2
70
0
43
0.254000
39
0.254000
10
16.184000
20
19.356009
10
18.884000
20
19.356009
0
ARC
5
60
100
AcDbEntity
8
COPPER_TOP
62
3
100
AcDbCircle
39
0.254000
10
18.884000
20
18.625492
30
0.0
40
0.730517
100
AcDbArc
50
0.000000
51
90.000000
0
LWPOLYLINE
5
61
100
AcDbEntity
8
COPPER_TOP
62
3
100
AcDbPolyline
90
2
70
0
43
0.254000
39
0.254000
10
19.614517
20
18.625492
10
19.614517
20
15.925492
0
ARC
5
62
100
AcDbEntity
8
COPPER_TOP
62
3
100
AcDbCircle
39
0.254000
10
18.884000
20
15.925492
30
0.0
40
0.730517
100
AcDbArc
50
270.000000
51
0.000000
0
LWPOLYLINE
5
63
100
AcDbEntity
8
COPPER_TOP
62
3
100
AcDbPolyline
90
2
70
0
43
0.254000
39
0.254000
10
18.884000
20
15.194975
10
16.184000
20
15.194975
0
ARC
5
64
100
AcDbEntity
8
COPPER_TOP
62
3
100
AcDbCircle
39
0.254000
10
14.184000
20
24.525492
30
0.0
40
1.477000
100
AcDbArc
50
212.187426
51
147.812574
0
ARC
5
65
100
AcDbEntity
8
COPPER_TOP
62
3
100
AcDbCircle
39
0.254000
10
11.684000
20
24.525492
30
0.0
40
1.477000
100
AcDbArc
50
212.187426
51
327.812574
0
ARC
5
66
100
AcDbEntity
8
COPPER_TOP
62
3
100
AcDbCircle
39
0.254000
10
9.184000
20
24.525492
30
0.0
40
1.477000
100
AcDbArc
50
32.187426
51
327.812574
0
ARC
5
67
100
AcDbEntity
8
COPPER_TOP
62
3
100
AcDbCircle
39
0.254000
10
11.684000
20
24.525492
30
0.0
40
1.477000
100
AcDbArc
50
32.187426
51
147.812574
0
ARC
5
68
100
AcDbEntity
8
COPPER_TOP
62
3
100
AcDbCircle
39
0.254000
10
30.948000
20
10.025492
30
0.0
40
1.477000
100
AcDbArc
50
212.187426
51
147.812574
0
ARC
5
69
100
AcDbEntity
8
COPPER_TOP
62
3
100
AcDbCircle
39
0.254000
10
28.448000
20
10.025492
30
0.0
40
1.477000
100
AcDbArc
50
212.187426
51
327.812574
0
ARC
5
6A
100
AcDbEntity
8
COPPER_TOP
62
3
100
AcDbCircle
39
0.254000
10
25.948000
20
10.025492
30
0.0
40
1.477000
100
AcDbArc
50
32.187426
51
327.812574
0
ARC
5
6B
100
AcDbEntity
8
COPPER_TOP
62
3
100
AcDbCircle
39
0.254000
10
28.448000
20
10.025492
30
0.0
40
1.477000
100
AcDbArc
50
32.187426
51
147.812574
0
ARC
5
6C
100
AcDbEntity
8
COPPER_TOP
62
3
100
AcDbCircle
39
0.254000
10
21.248000
20
15.925492
30
0.0
40
0.730517
100
AcDbArc
50
180.000000
51
270.000000
0
LWPOLYLINE
5
6D
100
AcDbEntity
8
COPPER_TOP
62
3
100
AcDbPolyline
90
2
70
0
43
0.254000
39
0.254000
10
20.517483
20
15.925492
10
20.517483
20
18.625492
0
ARC
5
6E
100
AcDbEntity
8
COPPER_TOP
62
3
100
AcDbCircle
39
0.254000
10
21.248000
20
18.625492
30
0.0
40
0.730517
100
AcDbArc
50
90.000000
51
180.000000
0
LWPOLYLINE
5
6F
100
AcDbEntity
8
COPPER_TOP
62
3
100
AcDbPolyline
90
2
70
0
43
0.254000
39
0.254000
10
21.248000
20
19.356009
10
23.948000
20
19.356009
0
ARC
5
70
100
AcDbEntity
8
COPPER_TOP
62
3
100
AcDbCircle
39
0.254000
10
23.948000
20
18.625492
30
0.0
40
0.730517
100
AcDbArc
50
0.000000
51
90.000000
0
LWPOLYLINE
5
71
100
AcDbEntity
8
COPPER_TOP
62
3
100
AcDbPolyline
90
2
70
0
43
0.254000
39
0.254000
10
24.678517
20
18.625492
10
24.678517
20
15.925492
0
ARC
5
72
100
AcDbEntity
8
COPPER_TOP
62
3
100
AcDbCircle
39
0.254000
10
23.948000
20
15.925492
30
0.0
40
0.730517
100
AcDbArc
50
270.000000
51
0.000000
0
LWPOLYLINE
5
73
100
AcDbEntity
8
COPPER_TOP
62
3
100
AcDbPolyline
90
2
70
0
43
0.254000
39
0.254000
10
23.948000
20
15.194975
10
21.248000
20
15.194975
0
ARC
5
74
100
AcDbEntity
8
COPPER_TOP
62
3
100
AcDbCircle
39
0.254000
10
32.948000
20
15.925492
30
0.0
40
0.730517
100
AcDbArc
50
180.000000
51
270.000000
0
LWPOLYLINE
5
75
100
AcDbEntity
8
COPPER_TOP
62
3
100
AcDbPolyline
90
2
70
0
43
0.254000
39
0.254000
10
32.217483
20
15.925492
10
32.217483
20
18.625492
0
ARC
5
76
100
AcDbEntity
8
COPPER_TOP
62
3
100
AcDbCircle
39
0.254000
10
32.948000
20
18.625492
30
0.0
40
0.730517
100
AcDbArc
50
90.000000
51
180.000000
0
LWPOLYLINE
5
77
100
AcDbEntity
8
COPPER_TOP
62
3
100
AcDbPolyline
90
2
70
0
43
0.254000
39
0.254000
10
32.948000
20
19.356009
10
35.648000
20
19.356009
0
ARC
5
78
100
AcDbEntity
8
COPPER_TOP
62
3
100
AcDbCircle
39
0.254000
10
35.648000
20
18.625492
30
0.0
40
0.730517
100
AcDbArc
50
0.000000
51
90.000000
0
LWPOLYLINE
5
79
100
AcDbEntity
8
COPPER_TOP
62
3
100
AcDbPolyline
90
2
70
0
43
0.254000
39
0.254000
10
36.378517
20
18.625492
10
36.378517
20
15.925492
0
ARC
5
7A
100
AcDbEntity
8
COPPER_TOP
62
3
100
AcDbCircle
39
0.254000
10
35.648000
20
15.925492
30
0.0
40
0.730517
100
AcDbArc
50
270.000000
51
0.000000
0
LWPOLYLINE
5
7B
100
AcDbEntity
8
COPPER_TOP
62
3
100
AcDbPolyline
90
2
70
0
43
0.254000
39
0.254000
10
35.648000
20
15.194975
10
32.948000
20
15.194975
0
ARC
5
7C
100
AcDbEntity
8
COPPER_TOP
62
3
100
AcDbCircle
39
0.254000
10
30.948000
20
24.525492
30
0.0
40
1.477000
100
AcDbArc
50
212.187426
51
147.812574
0
ARC
5
7D
100
AcDbEntity
8
COPPER_TOP
62
3
100
AcDbCircle
39
0.254000
10
28.448000
20
24.525492
30
0.0
40
1.477000
100
AcDbArc
50
212.187426
51
327.812574
0
ARC
5
7E
100
AcDbEntity
8
COPPER_TOP
62
3
100
AcDbCircle
39
0.254000
10
25.948000
20
24.525492
30
0.0
40
1.477000
100
AcDbArc
50
32.187426
51
327.812574
0
ARC
5
7F
100
AcDbEntity
8
COPPER_TOP
62
3
100
AcDbCircle
39
0.254000
10
28.448000
20
24.525492
30
0.0
40
1.477000
100
AcDbArc
50
32.187426
51
147.812574
0
LWPOLYLINE
5
80
100
AcDbEntity
8
COPPER_TOP
62
3
100
AcDbPolyline
90
2
70
0
43
0.254000
39
0.254000
10
34.880725
20
34.321483
10
5.119275
20
34.321483
0
ARC
5
81
100
AcDbEntity
8
COPPER_TOP
62
3
100
AcDbCircle
39
0.254000
10
4.000000
20
31.000000
30
0.0
40
3.505000
100
AcDbArc
50
201.123561
51
71.377193
0
LWPOLYLINE
5
82
100
AcDbEntity
8
COPPER_TOP
62
3
100
AcDbPolyline
90
2
70
0
43
0.254000
39
0.254000
10
0.730517
20
29.736867
10
0.730517
20
23.275313
0
ARC
5
83
100
AcDbEntity
8
COPPER_TOP
62
3
100
AcDbCircle
39
0.254000
10
1.767459
20
22.613049
30
0.0
40
1.230383
100
AcDbArc
50
90.000000
51
147.434840
0
LWPOLYLINE
5
84
100
AcDbEntity
8
COPPER_TOP
62
3
100
AcDbPolyline
90
2
70
0
43
0.254000
39
0.254000
10
1.767459
20
23.843432
10
2.296541
20
23.843432
0
ARC
5
85
100
AcDbEntity
8
COPPER_TOP
62
3
100
AcDbCircle
39
0.254000
10
2.296541
20
22.613049
30
0.0
40
1.230383
100
AcDbArc
50
0.000000
51
90.000000
0
LWPOLYLINE
5
86
100
AcDbEntity
8
COPPER_TOP
62
3
100
AcDbPolyline
90
2
70
0
43
0.254000
39
0.254000
10
3.526924
20
22.613049
10
3.526924
20
22.083967
0
ARC
5
87
100
AcDbEntity
8
COPPER_TOP
62
3
100
AcDbCircle
39
0.254000
10
2.296541
20
22.083967
30
0.0
40
1.230383
100
AcDbArc
50
301.792385
51
0.000000
0
ARC
5
88
100
AcDbEntity
8
COPPER_TOP
62
3
100
AcDbCircle
39
0.254000
10
2.032000
20
19.808508
30
0.0
40
1.531418
100
AcDbArc
50
303.973433
51
53.414447
0
ARC
5
89
100
AcDbEntity
8
COPPER_TOP
62
3
100
AcDbCircle
39
0.254000
10
2.032000
20
17.268508
30
0.0
40
1.531418
100
AcDbArc
50
303.973433
51
56.026567
0
ARC
5
8A
100
AcDbEntity
8
COPPER_TOP
62
3
100
AcDbCircle
39
0.254000
10
2.032000
20
14.728508
30
0.0
40
1.531418
100
AcDbArc
50
303.973433
51
56.026567
0
ARC
5
8B
100
AcDbEntity
8
COPPER_TOP
62
3
100
AcDbCircle
39
0.254000
10
2.032000
20
12.188508
30
0.0
40
1.531418
100
AcDbArc
50
211.804115
51
56.026567
0
LWPOLYLINE
5
8C
100
AcDbEntity
8
COPPER_TOP
62
3
100
AcDbPolyline
90
2
70
0
43
0.254000
39
0.254000
10
0.730517
20
11.381425
10
0.730517
20
5.789137
0
ARC
5
8D
100
AcDbEntity
8
COPPER_TOP
62
3
100
AcDbCircle
39
0.254000
10
4.000000
20
4.000000
30
0.0
40
3.727000
100
AcDbArc
50
300.311949
51
151.311503
0
LWPOLYLINE
5
8E
100
AcDbEntity
8
COPPER_TOP
62
3
100
AcDbPolyline
90
2
70
0
43
0.254000
39
0.254000
10
5.881045
20
0.782517
10
34.609738
20
0.782517
0
ARC
5
8F
100
AcDbEntity
8
COPPER_TOP
62
3
100
AcDbCircle
39
0.254000
10
36.000000
20
4.000000
30
0.0
40
3.505000
100
AcDbArc
50
21.123561
51
246.631015
0
LWPOLYLINE
5
90
100
AcDbEntity
8
COPPER_TOP
62
3
100
AcDbPolyline
90
2
70
0
43
0.254000
39
0.254000
10
39.269483
20
5.263133
10
39.269483
20
11.199796
0
ARC
5
91
100
AcDbEntity
8
COPPER_TOP
62
3
100
AcDbCircle
39
0.254000
10
38.100000
20
12.188508
30
0.0
40
1.531418
100
AcDbArc
50
123.973433
51
319.787946
0
ARC
5
92
100
AcDbEntity
8
COPPER_TOP
62
3
100
AcDbCircle
39
0.254000
10
38.100000
20
14.728508
30
0.0
40
1.531418
100
AcDbArc
50
123.973433
51
236.026567
0
ARC
5
93
100
AcDbEntity
8
COPPER_TOP
62
3
100
AcDbCircle
39
0.254000
10
38.100000
20
17.268508
30
0.0
40
1.531418
100
AcDbArc
50
123.973433
51
236.026567
0
ARC
5
94
100
AcDbEntity
8
COPPER_TOP
62
3
100
AcDbCircle
39
0.254000
10
38.100000
20
19.808508
30
0.0
40
1.531418
100
AcDbArc
50
126.585553
51
236.026567
0
ARC
5
95
100
AcDbEntity
8
COPPER_TOP
62
3
100
AcDbCircle
39
0.254000
10
37.835459
20
22.083967
30
0.0
40
1.230383
100
AcDbArc
50
180.000000
51
238.207615
0
LWPOLYLINE
5
96
100
AcDbEntity
8
COPPER_TOP
62
3
100
AcDbPolyline
90
2
70
0
43
0.254000
39
0.254000
10
36.605076
20
22.083967
10
36.605076
20
22.613049
0
ARC
5
97
100
AcDbEntity
8
COPPER_TOP
62
3
100
AcDbCircle
39
0.254000
10
37.835459
20
22.613049
30
0.0
40
1.230383
100
AcDbArc
50
90.000000
51
180.000000
0
LWPOLYLINE
5
98
100
AcDbEntity
8
COPPER_TOP
62
3
100
AcDbPolyline
90
2
70
0
43
0.254000
39
0.254000
10
37.835459
20
23.843432
10
38.364541
20
23.843432
0
ARC
5
99
100
AcDbEntity
8
COPPER_TOP
62
3
100
AcDbCircle
39
0.254000
10
38.364541
20
22.613049
30
0.0
40
1.230383
100
AcDbArc
50
42.650840
51
90.000000
0
LWPOLYLINE
5
9A
100
AcDbEntity
8
COPPER_TOP
62
3
100
AcDbPolyline
90
2
70
0
43
0.254000
39
0.254000
10
39.269483
20
23.446669
10
39.269483
20
29.736867
0
ARC
5
9B
100
AcDbEntity
8
COPPER_TOP
62
3
100
AcDbCircle
39
0.254000
10
36.000000
20
31.000000
30
0.0
40
3.505000
100
AcDbArc
50
108.622807
51
338.876439
0
HATCH
5
9C
100
AcDbEntity
8
COPPER_TOP
62
3
100
AcDbHatch
10
0.0
20
0.0
30
0.0
210
0.0
220
0.0
230
1.0
2
SOLID
70
1
71
0
91
1
92
1
93
3
72
1
10
0.730517
20
2.210863
11
0.730517
21
0.782517
72
1
10
0.730517
20
0.782517
11
2.118955
21
0.782517
72
2
10
4.000000
20
4.000000
40
3.727000
50
120.311949
51
151.311503
73
0
97
0
75
0
76
0
98
1
10
0.0
20
0.0
0
LWPOLYLINE
5
9D
100
AcDbEntity
8
COPPER_TOP
62
3
100
AcDbPolyline
90
3
70
0
43
0.254000
39
0.254000
10
0.730517
20
2.210863
10
0.730517
20
0.782517
10
2.118955
20
0.782517
0
ARC
5
9E
100
AcDbEntity
8
COPPER_TOP
62
3
100
AcDbCircle
39
0.254000
10
4.000000
20
4.000000
30
0.0
40
3.727000
100
AcDbArc
50
208.688497
51
239.688051
0
HATCH
5
9F
100
AcDbEntity
8
COPPER_TOP
62
3
100
AcDbHatch
10
0.0
20
0.0
30
0.0
210
0.0
220
0.0
230
1.0
2
SOLID
70
1
71
0
91
1
92
1
93
3
72
1
10
39.269483
20
2.736867
11
39.269483
21
0.782517
72
1
10
39.269483
20
0.782517
11
37.390262
21
0.782517
72
2
10
36.000000
20
4.000000
40
3.505000
50
293.368985
51
338.876439
73
1
97
0
75
0
76
0
98
1
10
0.0
20
0.0
0
LWPOLYLINE
5
A0
100
AcDbEntity
8
COPPER_TOP
62
3
100
AcDbPolyline
90
3
70
0
43
0.254000
39
0.254000
10
39.269483
20
2.736867
10
39.269483
20
0.782517
10
37.390262
20
0.782517
0
ARC
5
A1
100
AcDbEntity
8
COPPER_TOP
62
3
100
AcDbCircle
39
0.254000
10
36.000000
20
4.000000
30
0.0
40
3.505000
100
AcDbArc
50
293.368985
51
338.876439
0
HATCH
5
A2
100
AcDbEntity
8
COPPER_TOP
62
3
100
AcDbHatch
10
0.0
20
0.0
30
0.0
210
0.0
220
0.0
230
1.0
2
SOLID
70
1
71
0
91
1
92
1
93
3
72
2
10
2.032000
20
14.728508
40
1.531418
50
123.973433
51
148.195885
73
0
72
1
10
0.730517
20
13.921425
11
0.730517
21
12.995591
72
2
10
2.032000
20
12.188508
40
1.531418
50
211.804115
51
236.026567
73
0
97
0
75
0
76
0
98
1
10
0.0
20
0.0
0
ARC
5
A3
100
AcDbEntity
8
COPPER_TOP
62
3
100
AcDbCircle
39
0.254000
10
2.032000
20
14.728508
30
0.0
40
1.531418
100
AcDbArc
50
211.804115
51
236.026567
0
LWPOLYLINE
5
A4
100
AcDbEntity
8
COPPER_TOP
62
3
100
AcDbPolyline
90
2
70
0
43
0.254000
39
0.254000
10
0.730517
20
13.921425
10
0.730517
20
12.995591
0
ARC
5
A5
100
AcDbEntity
8
COPPER_TOP
62
3
100
AcDbCircle
39
0.254000
10
2.032000
20
12.188508
30
0.0
40
1.531418
100
AcDbArc
50
123.973433
51
148.195885
0
HATCH
5
A6
100
AcDbEntity
8
COPPER_TOP
62
3
100
AcDbHatch
10
0.0
20
0.0
30
0.0
210
0.0
220
0.0
230
1.0
2
SOLID
70
1
71
0
91
1
92
1
93
3
72
2
10
38.100000
20
14.728508
40
1.531418
50
303.973433
51
319.787946
73
1
72
1
10
39.269483
20
13.739796
11
39.269483
21
13.177220
72
2
10
38.100000
20
12.188508
40
1.531418
50
40.212054
51
56.026567
73
1
97
0
75
0
76
0
98
1
10
0.0
20
0.0
0
ARC
5
A7
100
AcDbEntity
8
COPPER_TOP
62
3
100
AcDbCircle
39
0.254000
10
38.100000
20
14.728508
30
0.0
40
1.531418
100
AcDbArc
50
303.973433
51
319.787946
0
LWPOLYLINE
5
A8
100
AcDbEntity
8
COPPER_TOP
62
3
100
AcDbPolyline
90
2
70
0
43
0.254000
39
0.254000
10
39.269483
20
13.739796
10
39.269483
20
13.177220
0
ARC
5
A9
100
AcDbEntity
8
COPPER_TOP
62
3
100
AcDbCircle
39
0.254000
10
38.100000
20
12.188508
30
0.0
40
1.531418
100
AcDbArc
50
40.212054
51
56.026567
0
HATCH
5
AA
100
AcDbEntity
8
COPPER_TOP
62
3
100
AcDbHatch
10
0.0
20
0.0
30
0.0
210
0.0
220
0.0
230
1.0
2
SOLID
70
1
71
0
91
1
92
1
93
3
72
2
10
2.032000
20
17.268508
40
1.531418
50
123.973433
51
148.195885
73
0
72
1
10
0.730517
20
16.461425
11
0.730517
21
15.535591
72
2
10
2.032000
20
14.728508
40
1.531418
50
211.804115
51
236.026567
73
0
97
0
75
0
76
0
98
1
10
0.0
20
0.0
0
ARC
5
AB
100
AcDbEntity
8
COPPER_TOP
62
3
100
AcDbCircle
39
0.254000
10
2.032000
20
17.268508
30
0.0
40
1.531418
100
AcDbArc
50
211.804115
51
236.026567
0
LWPOLYLINE
5
AC
100
AcDbEntity
8
COPPER_TOP
62
3
100
AcDbPolyline
90
2
70
0
43
0.254000
39
0.254000
10
0.730517
20
16.461425
10
0.730517
20
15.535591
0
ARC
5
AD
100
AcDbEntity
8
COPPER_TOP
62
3
100
AcDbCircle
39
0.254000
10
2.032000
20
14.728508
30
0.0
40
1.531418
100
AcDbArc
50
123.973433
51
148.195885
0
HATCH
5
AE
100
AcDbEntity
8
COPPER_TOP
62
3
100
AcDbHatch
10
0.0
20
0.0
30
0.0
210
0.0
220
0.0
230
1.0
2
SOLID
70
1
71
0
91
1
92
1
93
3
72
2
10
38.100000
20
17.268508
40
1.531418
50
303.973433
51
319.787946
73
1
72
1
10
39.269483
20
16.279796
11
39.269483
21
15.717220
72
2
10
38.100000
20
14.728508
40
1.531418
50
40.212054
51
56.026567
73
1
97
0
75
0
76
0
98
1
10
0.0
20
0.0
0
ARC
5
AF
100
AcDbEntity
8
COPPER_TOP
62
3
100
AcDbCircle
39
0.254000
10
38.100000
20
17.268508
30
0.0
40
1.531418
100
AcDbArc
50
303.973433
51
319.787946
0
LWPOLYLINE
5
B0
100
AcDbEntity
8
COPPER_TOP
62
3
100
AcDbPolyline
90
2
70
0
43
0.254000
39
0.254000
10
39.269483
20
16.279796
10
39.269483
20
15.717220
0
ARC
5
B1
100
AcDbEntity
8
COPPER_TOP
62
3
100
AcDbCircle
39
0.254000
10
38.100000
20
14.728508
30
0.0
40
1.531418
100
AcDbArc
50
40.212054
51
56.026567
0
HATCH
5
B2
100
AcDbEntity
8
COPPER_TOP
62
3
100
AcDbHatch
10
0.0
20
0.0
30
0.0
210
0.0
220
0.0
230
1.0
2
SOLID
70
1
71
0
91
1
92
1
93
3
72
2
10
2.032000
20
19.808508
40
1.531418
50
123.973433
51
148.195885
73
0
72
1
10
0.730517
20
19.001425
11
0.730517
21
18.075591
72
2
10
2.032000
20
17.268508
40
1.531418
50
211.804115
51
236.026567
73
0
97
0
75
0
76
0
98
1
10
0.0
20
0.0
0
ARC
5
B3
100
AcDbEntity
8
COPPER_TOP
62
3
100
AcDbCircle
39
0.254000
10
2.032000
20
19.808508
30
0.0
40
1.531418
100
AcDbArc
50
211.804115
51
236.026567
0
LWPOLYLINE
5
B4
100
AcDbEntity
8
COPPER_TOP
62
3
100
AcDbPolyline
90
2
70
0
43
0.254000
39
0.254000
10
0.730517
20
19.001425
10
0.730517
20
18.075591
0
ARC
5
B5
100
AcDbEntity
8
COPPER_TOP
62
3
100
AcDbCircle
39
0.254000
10
2.032000
20
17.268508
30
0.0
40
1.531418
100
AcDbArc
50
123.973433
51
148.195885
0
HATCH
5
B6
100
AcDbEntity
8
COPPER_TOP
62
3
100
AcDbHatch
10
0.0
20
0.0
30
0.0
210
0.0
220
0.0
230
1.0
2
SOLID
70
1
71
0
91
1
92
1
93
3
72
2
10
38.100000
20
19.808508
40
1.531418
50
303.973433
51
319.787946
73
1
72
1
10
39.269483
20
18.819796
11
39.269483
21
18.257220
72
2
10
38.100000
20
17.268508
40
1.531418
50
40.212054
51
56.026567
73
1
97
0
75
0
76
0
98
1
10
0.0
20
0.0
0
ARC
5
B7
100
AcDbEntity
8
COPPER_TOP
62
3
100
AcDbCircle
39
0.254000
10
38.100000
20
19.808508
30
0.0
40
1.531418
100
AcDbArc
50
303.973433
51
319.787946
0
LWPOLYLINE
5
B8
100
AcDbEntity
8
COPPER_TOP
62
3
100
AcDbPolyline
90
2
70
0
43
0.254000
39
0.254000
10
39.269483
20
18.819796
10
39.269483
20
18.257220
0
ARC
5
B9
100
AcDbEntity
8
COPPER_TOP
62
3
100
AcDbCircle
39
0.254000
10
38.100000
20
17.268508
30
0.0
40
1.531418
100
AcDbArc
50
40.212054
51
56.026567
0
HATCH
5
BA
100
AcDbEntity
8
COPPER_TOP
62
3
100
AcDbHatch
10
0.0
20
0.0
30
0.0
210
0.0
220
0.0
230
1.0
2
SOLID
70
1
71
0
91
1
92
1
93
3
72
2
10
1.767459
20
22.083967
40
1.230383
50
121.792385
51
147.434840
73
0
72
1
10
0.730517
20
21.421703
11
0.730517
21
20.615591
72
2
10
2.032000
20
19.808508
40
1.531418
50
211.804115
51
233.414447
73
0
97
0
75
0
76
0
98
1
10
0.0
20
0.0
0
ARC
5
BB
100
AcDbEntity
8
COPPER_TOP
62
3
100
AcDbCircle
39
0.254000
10
1.767459
20
22.083967
30
0.0
40
1.230383
100
AcDbArc
50
212.565160
51
238.207615
0
LWPOLYLINE
5
BC
100
AcDbEntity
8
COPPER_TOP
62
3
100
AcDbPolyline
90
2
70
0
43
0.254000
39
0.254000
10
0.730517
20
21.421703
10
0.730517
20
20.615591
0
ARC
5
BD
100
AcDbEntity
8
COPPER_TOP
62
3
100
AcDbCircle
39
0.254000
10
2.032000
20
19.808508
30
0.0
40
1.531418
100
AcDbArc
50
126.585553
51
148.195885
0
HATCH
5
BE
100
AcDbEntity
8
COPPER_TOP
62
3
100
AcDbHatch
10
0.0
20
0.0
30
0.0
210
0.0
220
0.0
230
1.0
2
SOLID
70
1
71
0
91
1
92
1
93
3
72
2
10
38.364541
20
22.083967
40
1.230383
50
301.792385
51
317.349160
73
1
72
1
10
39.269483
20
21.250347
11
39.269483
21
20.797220
72
2
10
38.100000
20
19.808508
40
1.531418
50
40.212054
51
53.414447
73
1
97
0
75
0
76
0
98
1
10
0.0
20
0.0
0
ARC
5
BF
100
AcDbEntity
8
COPPER_TOP
62
3
100
AcDbCircle
39
0.254000
10
38.364541
20
22.083967
30
0.0
40
1.230383
100
AcDbArc
50
301.792385
51
317.349160
0
LWPOLYLINE
5
C0
100
AcDbEntity
8
COPPER_TOP
62
3
100
AcDbPolyline
90
2
70
0
43
0.254000
39
0.254000
10
39.269483
20
21.250347
10
39.269483
20
20.797220
0
ARC
5
C1
100
AcDbEntity
8
COPPER_TOP
62
3
100
AcDbCircle
39
0.254000
10
38.100000
20
19.808508
30
0.0
40
1.531418
100
AcDbArc
50
40.212054
51
53.414447
0
HATCH
5
C2
100
AcDbEntity
8
COPPER_TOP
62
3
100
AcDbHatch
10
0.0
20
0.0
30
0.0
210
0.0
220
0.0
230
1.0
2
SOLID
70
1
71
0
91
1
92
1
93
3
72
1
10
0.730517
20
32.263133
11
0.730517
21
34.321483
72
1
10
0.730517
20
34.321483
11
2.880725
21
34.321483
72
2
10
4.000000
20
31.000000
40
3.505000
50
108.622807
51
158.876439
73
1
97
0
75
0
76
0
98
1
10
0.0
20
0.0
0
LWPOLYLINE
5
C3
100
AcDbEntity
8
COPPER_TOP
62
3
100
AcDbPolyline
90
3
70
0
43
0.254000
39
0.254000
10
0.730517
20
32.263133
10
0.730517
20
34.321483
10
2.880725
20
34.321483
0
ARC
5
C4
100
AcDbEntity
8
COPPER_TOP
62
3
100
AcDbCircle
39
0.254000
10
4.000000
20
31.000000
30
0.0
40
3.505000
100
AcDbArc
50
108.622807
51
158.876439
0
HATCH
5
C5
100
AcDbEntity
8
COPPER_TOP
62
3
100
AcDbHatch
10
0.0
20
0.0
30
0.0
210
0.0
220
0.0
230
1.0
2
SOLID
70
1
71
0
91
1
92
1
93
3
72
1
10
37.119275
20
34.321483
11
39.269483
21
34.321483
72
1
10
39.269483
20
34.321483
11
39.269483
21
32.263133
72
2
10
36.000000
20
31.000000
40
3.505000
50
21.123561
51
71.377193
73
1
97
0
75
0
76
0
98
1
10
0.0
20
0.0
0
LWPOLYLINE
5
C6
100
AcDbEntity
8
COPPER_TOP
62
3
100
AcDbPolyline
90
3
70
0
43
0.254000
39
0.254000
10
37.119275
20
34.321483
10
39.269483
20
34.321483
10
39.269483
20
32.263133
0
ARC
5
C7
100
AcDbEntity
8
COPPER_TOP
62
3
100
AcDbCircle
39
0.254000
10
36.000000
20
31.000000
30
0.0
40
3.505000
100
AcDbArc
50
21.123561
51
71.377193
0
HATCH
5
C8
100
AcDbEntity
8
COPPER_BOTTOM
100
AcDbHatch
10
0.0
20
0.0
30
0.0
210
0.0
220
0.0
230
1.0
2
SOLID
70
1
71
0
91
2
92
1
93
1
72
2
10
14.184000
20
24.525492
40
0.750000
50
0.000000
51
360.000000
73
1
97
0
92
1
93
1
72
2
10
14.184000
20
24.525492
40
0.500000
50
0.000000
51
360.000000
73
1
97
0
75
0
76
0
98
1
10
0.0
20
0.0
0
HATCH
5
C9
100
AcDbEntity
8
COPPER_BOTTOM
100
AcDbHatch
10
0.0
20
0.0
30
0.0
210
0.0
220
0.0
230
1.0
2
SOLID
70
1
71
0
91
2
92
1
93
1
72
2
10
11.684000
20
24.525492
40
0.750000
50
0.000000
51
360.000000
73
1
97
0
92
1
93
1
72
2
10
11.684000
20
24.525492
40
0.500000
50
0.000000
51
360.000000
73
1
97
0
75
0
76
0
98
1
10
0.0
20
0.0
0
HATCH
5
CA
100
AcDbEntity
8
COPPER_BOTTOM
100
AcDbHatch
10
0.0
20
0.0
30
0.0
210
0.0
220
0.0
230
1.0
2
SOLID
70
1
71
0
91
2
92
1
93
1
72
2
10
9.184000
20
24.525492
40
0.750000
50
0.000000
51
360.000000
73
1
97
0
92
1
93
1
72
2
10
9.184000
20
24.525492
40
0.500000
50
0.000000
51
360.000000
73
1
97
0
75
0
76
0
98
1
10
0.0
20
0.0
0
HATCH
5
CB
100
AcDbEntity
8
COPPER_BOTTOM
100
AcDbHatch
10
0.0
20
0.0
30
0.0
210
0.0
220
0.0
230
1.0
2
SOLID
70
1
71
0
91
2
92
1
93
1
72
2
10
9.184000
20
10.025492
40
0.750000
50
0.000000
51
360.000000
73
1
97
0
92
1
93
1
72
2
10
9.184000
20
10.025492
40
0.500000
50
0.000000
51
360.000000
73
1
97
0
75
0
76
0
98
1
10
0.0
20
0.0
0
HATCH
5
CC
100
AcDbEntity
8
COPPER_BOTTOM
100
AcDbHatch
10
0.0
20
0.0
30
0.0
210
0.0
220
0.0
230
1.0
2
SOLID
70
1
71
0
91
2
92
1
93
1
72
2
10
11.684000
20
10.025492
40
0.750000
50
0.000000
51
360.000000
73
1
97
0
92
1
93
1
72
2
10
11.684000
20
10.025492
40
0.500000
50
0.000000
51
360.000000
73
1
97
0
75
0
76
0
98
1
10
0.0
20
0.0
0
HATCH
5
CD
100
AcDbEntity
8
COPPER_BOTTOM
100
AcDbHatch
10
0.0
20
0.0
30
0.0
210
0.0
220
0.0
230
1.0
2
SOLID
70
1
71
0
91
2
92
1
93
1
72
2
10
14.184000
20
10.025492
40
0.750000
50
0.000000
51
360.000000
73
1
97
0
92
1
93
1
72
2
10
14.184000
20
10.025492
40
0.500000
50
0.000000
51
360.000000
73
1
97
0
75
0
76
0
98
1
10
0.0
20
0.0
0
HATCH
5
CE
100
AcDbEntity
8
COPPER_BOTTOM
100
AcDbHatch
10
0.0
20
0.0
30
0.0
210
0.0
220
0.0
230
1.0
2
SOLID
70
1
71
0
91
2
92
1
93
4
72
1
10
7.184000
20
15.925492
11
4.484000
21
15.925492
72
1
10
4.484000
20
15.925492
11
4.484000
21
18.625492
72
1
10
4.484000
20
18.625492
11
7.184000
21
18.625492
72
1
10
7.184000
20
18.625492
11
7.184000
21
15.925492
97
0
92
1
93
1
72
2
10
5.834000
20
17.275492
40
1.050000
50
0.000000
51
360.000000
73
1
97
0
75
0
76
0
98
1
10
0.0
20
0.0
0
HATCH
5
CF
100
AcDbEntity
8
COPPER_BOTTOM
100
AcDbHatch
10
0.0
20
0.0
30
0.0
210
0.0
220
0.0
230
1.0
2
SOLID
70
1
71
0
91
2
92
1
93
4
72
1
10
18.884000
20
15.925492
11
16.184000
21
15.925492
72
1
10
16.184000
20
15.925492
11
16.184000
21
18.625492
72
1
10
16.184000
20
18.625492
11
18.884000
21
18.625492
72
1
10
18.884000
20
18.625492
11
18.884000
21
15.925492
97
0
92
1
93
1
72
2
10
17.534000
20
17.275492
40
1.050000
50
0.000000
51
360.000000
73
1
97
0
75
0
76
0
98
1
10
0.0
20
0.0
0
LWPOLYLINE
5
D0
100
AcDbEntity
8
COPPER_BOTTOM
62
1
100
AcDbPolyline
90
2
70
0
43
0.500000
39
0.500000
10
11.684000
20
10.025492
10
11.549492
20
10.160000
0
LWPOLYLINE
5
D1
100
AcDbEntity
8
COPPER_BOTTOM
62
1
100
AcDbPolyline
90
2
70
0
43
0.500000
39
0.500000
10
14.184000
20
10.279490
10
14.184000
20
10.025492
0
HATCH
5
D2
100
AcDbEntity
8
COPPER_BOTTOM
100
AcDbHatch
10
0.0
20
0.0
30
0.0
210
0.0
220
0.0
230
1.0
2
SOLID
70
1
71
0
91
2
92
1
93
1
72
2
10
30.948000
20
24.525492
40
0.750000
50
0.000000
51
360.000000
73
1
97
0
92
1
93
1
72
2
10
30.948000
20
24.525492
40
0.500000
50
0.000000
51
360.000000
73
1
97
0
75
0
76
0
98
1
10
0.0
20
0.0
0
HATCH
5
D3
100
AcDbEntity
8
COPPER_BOTTOM
100
AcDbHatch
10
0.0
20
0.0
30
0.0
210
0.0
220
0.0
230
1.0
2
SOLID
70
1
71
0
91
2
92
1
93
1
72
2
10
28.448000
20
24.525492
40
0.750000
50
0.000000
51
360.000000
73
1
97
0
92
1
93
1
72
2
10
28.448000
20
24.525492
40
0.500000
50
0.000000
51
360.000000
73
1
97
0
75
0
76
0
98
1
10
0.0
20
0.0
0
HATCH
5
D4
100
AcDbEntity
8
COPPER_BOTTOM
100
AcDbHatch
10
0.0
20
0.0
30
0.0
210
0.0
220
0.0
230
1.0
2
SOLID
70
1
71
0
91
2
92
1
93
1
72
2
10
25.948000
20
24.525492
40
0.750000
50
0.000000
51
360.000000
73
1
97
0
92
1
93
1
72
2
10
25.948000
20
24.525492
40
0.500000
50
0.000000
51
360.000000
73
1
97
0
75
0
76
0
98
1
10
0.0
20
0.0
0
HATCH
5
D5
100
AcDbEntity
8
COPPER_BOTTOM
100
AcDbHatch
10
0.0
20
0.0
30
0.0
210
0.0
220
0.0
230
1.0
2
SOLID
70
1
71
0
91
2
92
1
93
1
72
2
10
25.948000
20
10.025492
40
0.750000
50
0.000000
51
360.000000
73
1
97
0
92
1
93
1
72
2
10
25.948000
20
10.025492
40
0.500000
50
0.000000
51
360.000000
73
1
97
0
75
0
76
0
98
1
10
0.0
20
0.0
0
HATCH
5
D6
100
AcDbEntity
8
COPPER_BOTTOM
100
AcDbHatch
10
0.0
20
0.0
30
0.0
210
0.0
220
0.0
230
1.0
2
SOLID
70
1
71
0
91
2
92
1
93
1
72
2
10
28.448000
20
10.025492
40
0.750000
50
0.000000
51
360.000000
73
1
97
0
92
1
93
1
72
2
10
28.448000
20
10.025492
40
0.500000
50
0.000000
51
360.000000
73
1
97
0
75
0
76
0
98
1
10
0.0
20
0.0
0
HATCH
5
D7
100
AcDbEntity
8
COPPER_BOTTOM
100
AcDbHatch
10
0.0
20
0.0
30
0.0
210
0.0
220
0.0
230
1.0
2
SOLID
70
1
71
0
91
2
92
1
93
1
72
2
10
30.948000
20
10.025492
40
0.750000
50
0.000000
51
360.000000
73
1
97
0
92
1
93
1
72
2
10
30.948000
20
10.025492
40
0.500000
50
0.000000
51
360.000000
73
1
97
0
75
0
76
0
98
1
10
0.0
20
0.0
0
HATCH
5
D8
100
AcDbEntity
8
COPPER_BOTTOM
100
AcDbHatch
10
0.0
20
0.0
30
0.0
210
0.0
220
0.0
230
1.0
2
SOLID
70
1
71
0
91
2
92
1
93
4
72
1
10
23.948000
20
15.925492
11
21.248000
21
15.925492
72
1
10
21.248000
20
15.925492
11
21.248000
21
18.625492
72
1
10
21.248000
20
18.625492
11
23.948000
21
18.625492
72
1
10
23.948000
20
18.625492
11
23.948000
21
15.925492
97
0
92
1
93
1
72
2
10
22.598000
20
17.275492
40
1.050000
50
0.000000
51
360.000000
73
1
97
0
75
0
76
0
98
1
10
0.0
20
0.0
0
HATCH
5
D9
100
AcDbEntity
8
COPPER_BOTTOM
100
AcDbHatch
10
0.0
20
0.0
30
0.0
210
0.0
220
0.0
230
1.0
2
SOLID
70
1
71
0
91
2
92
1
93
4
72
1
10
35.648000
20
15.925492
11
32.948000
21
15.925492
72
1
10
32.948000
20
15.925492
11
32.948000
21
18.625492
72
1
10
32.948000
20
18.625492
11
35.648000
21
18.625492
72
1
10
35.648000
20
18.625492
11
35.648000
21
15.925492
97
0
92
1
93
1
72
2
10
34.298000
20
17.275492
40
1.050000
50
0.000000
51
360.000000
73
1
97
0
75
0
76
0
98
1
10
0.0
20
0.0
0
LWPOLYLINE
5
DA
100
AcDbEntity
8
COPPER_BOTTOM
62
1
100
AcDbPolyline
90
2
70
0
43
0.500000
39
0.500000
10
29.714510
20
13.712510
10
25.936104
20
9.934104
0
LWPOLYLINE
5
DB
100
AcDbEntity
8
COPPER_BOTTOM
62
1
100
AcDbPolyline
90
2
70
0
43
0.500000
39
0.500000
10
28.448000
20
10.025492
10
28.582508
20
10.160000
0
HATCH
5
DC
100
AcDbEntity
8
COPPER_BOTTOM
100
AcDbHatch
10
0.0
20
0.0
30
0.0
210
0.0
220
0.0
230
1.0
2
SOLID
70
1
71
0
91
2
92
1
93
8
72
1
10
1.270000
20
22.613049
11
1.270000
21
22.083967
72
2
10
1.767459
20
22.083967
40
0.497459
50
180.000000
51
270.000000
73
1
72
1
10
1.767459
20
21.586508
11
2.296541
21
21.586508
72
2
10
2.296541
20
22.083967
40
0.497459
50
270.000000
51
0.000000
73
1
72
1
10
2.794000
20
22.083967
11
2.794000
21
22.613049
72
2
10
2.296541
20
22.613049
40
0.497459
50
0.000000
51
90.000000
73
1
72
1
10
2.296541
20
23.110508
11
1.767459
21
23.110508
72
2
10
1.767459
20
22.613049
40
0.497459
50
90.000000
51
180.000000
73
1
97
0
92
1
93
1
72
2
10
2.032000
20
22.348508
40
0.497459
50
0.000000
51
360.000000
73
1
97
0
75
0
76
0
98
1
10
0.0
20
0.0
0
HATCH
5
DD
100
AcDbEntity
8
COPPER_BOTTOM
100
AcDbHatch
10
0.0
20
0.0
30
0.0
210
0.0
220
0.0
230
1.0
2
SOLID
70
1
71
0
91
2
92
1
93
1
72
2
10
2.032000
20
19.808508
40
0.804418
50
0.000000
51
360.000000
73
1
97
0
92
1
93
1
72
2
10
2.032000
20
19.808508
40
0.444500
50
0.000000
51
360.000000
73
1
97
0
75
0
76
0
98
1
10
0.0
20
0.0
0
HATCH
5
DE
100
AcDbEntity
8
COPPER_BOTTOM
100
AcDbHatch
10
0.0
20
0.0
30
0.0
210
0.0
220
0.0
230
1.0
2
SOLID
70
1
71
0
91
2
92
1
93
1
72
2
10
2.032000
20
17.268508
40
0.804418
50
0.000000
51
360.000000
73
1
97
0
92
1
93
1
72
2
10
2.032000
20
17.268508
40
0.444500
50
0.000000
51
360.000000
73
1
97
0
75
0
76
0
98
1
10
0.0
20
0.0
0
HATCH
5
DF
100
AcDbEntity
8
COPPER_BOTTOM
100
AcDbHatch
10
0.0
20
0.0
30
0.0
210
0.0
220
0.0
230
1.0
2
SOLID
70
1
71
0
91
2
92
1
93
1
72
2
10
2.032000
20
14.728508
40
0.804418
50
0.000000
51
360.000000
73
1
97
0
92
1
93
1
72
2
10
2.032000
20
14.728508
40
0.444500
50
0.000000
51
360.000000
73
1
97
0
75
0
76
0
98
1
10
0.0
20
0.0
0
HATCH
5
E0
100
AcDbEntity
8
COPPER_BOTTOM
100
AcDbHatch
10
0.0
20
0.0
30
0.0
210
0.0
220
0.0
230
1.0
2
SOLID
70
1
71
0
91
2
92
1
93
1
72
2
10
2.032000
20
12.188508
40
0.804418
50
0.000000
51
360.000000
73
1
97
0
92
1
93
1
72
2
10
2.032000
20
12.188508
40
0.444500
50
0.000000
51
360.000000
73
1
97
0
75
0
76
0
98
1
10
0.0
20
0.0
0
LWPOLYLINE
5
E1
100
AcDbEntity
8
COPPER_BOTTOM
62
1
100
AcDbPolyline
90
2
70
0
43
0.500000
39
0.500000
10
7.112000
20
12.188510
10
9.096750
20
10.203760
0
LWPOLYLINE
5
E2
100
AcDbEntity
8
COPPER_BOTTOM
62
1
100
AcDbPolyline
90
2
70
0
43
0.500000
39
0.500000
10
11.549492
20
10.160000
10
9.191254
20
10.160000
0
LWPOLYLINE
5
E3
100
AcDbEntity
8
COPPER_BOTTOM
62
1
100
AcDbPolyline
90
2
70
0
43
0.500000
39
0.500000
10
14.184000
20
10.279490
10
10.747490
20
13.716000
0
LWPOLYLINE
5
E4
100
AcDbEntity
8
COPPER_BOTTOM
62
1
100
AcDbPolyline
90
2
70
0
43
0.500000
39
0.500000
10
9.096750
20
10.203760
10
9.096750
20
10.160000
0
LWPOLYLINE
5
E5
100
AcDbEntity
8
COPPER_BOTTOM
62
1
100
AcDbPolyline
90
2
70
0
43
0.500000
39
0.500000
10
28.582508
20
10.160000
10
30.940746
20
10.160000
0
LWPOLYLINE
5
E6
100
AcDbEntity
8
COPPER_BOTTOM
62
1
100
AcDbPolyline
90
2
70
0
43
0.500000
39
0.500000
10
30.940746
20
10.160000
10
32.972746
20
12.192000
0
HATCH
5
E7
100
AcDbEntity
8
COPPER_BOTTOM
100
AcDbHatch
10
0.0
20
0.0
30
0.0
210
0.0
220
0.0
230
1.0
2
SOLID
70
1
71
0
91
2
92
1
93
8
72
1
10
37.338000
20
22.613049
11
37.338000
21
22.083967
72
2
10
37.835459
20
22.083967
40
0.497459
50
180.000000
51
270.000000
73
1
72
1
10
37.835459
20
21.586508
11
38.364541
21
21.586508
72
2
10
38.364541
20
22.083967
40
0.497459
50
270.000000
51
0.000000
73
1
72
1
10
38.862000
20
22.083967
11
38.862000
21
22.613049
72
2
10
38.364541
20
22.613049
40
0.497459
50
0.000000
51
90.000000
73
1
72
1
10
38.364541
20
23.110508
11
37.835459
21
23.110508
72
2
10
37.835459
20
22.613049
40
0.497459
50
90.000000
51
180.000000
73
1
97
0
92
1
93
1
72
2
10
38.100000
20
22.348508
40
0.497459
50
0.000000
51
360.000000
73
1
97
0
75
0
76
0
98
1
10
0.0
20
0.0
0
HATCH
5
E8
100
AcDbEntity
8
COPPER_BOTTOM
100
AcDbHatch
10
0.0
20
0.0
30
0.0
210
0.0
220
0.0
230
1.0
2
SOLID
70
1
71
0
91
2
92
1
93
1
72
2
10
38.100000
20
19.808508
40
0.804418
50
0.000000
51
360.000000
73
1
97
0
92
1
93
1
72
2
10
38.100000
20
19.808508
40
0.444500
50
0.000000
51
360.000000
73
1
97
0
75
0
76
0
98
1
10
0.0
20
0.0
0
HATCH
5
E9
100
AcDbEntity
8
COPPER_BOTTOM
100
AcDbHatch
10
0.0
20
0.0
30
0.0
210
0.0
220
0.0
230
1.0
2
SOLID
70
1
71
0
91
2
92
1
93
1
72
2
10
38.100000
20
17.268508
40
0.804418
50
0.000000
51
360.000000
73
1
97
0
92
1
93
1
72
2
10
38.100000
20
17.268508
40
0.444500
50
0.000000
51
360.000000
73
1
97
0
75
0
76
0
98
1
10
0.0
20
0.0
0
HATCH
5
EA
100
AcDbEntity
8
COPPER_BOTTOM
100
AcDbHatch
10
0.0
20
0.0
30
0.0
210
0.0
220
0.0
230
1.0
2
SOLID
70
1
71
0
91
2
92
1
93
1
72
2
10
38.100000
20
14.728508
40
0.804418
50
0.000000
51
360.000000
73
1
97
0
92
1
93
1
72
2
10
38.100000
20
14.728508
40
0.444500
50
0.000000
51
360.000000
73
1
97
0
75
0
76
0
98
1
10
0.0
20
0.0
0
HATCH
5
EB
100
AcDbEntity
8
COPPER_BOTTOM
100
AcDbHatch
10
0.0
20
0.0
30
0.0
210
0.0
220
0.0
230
1.0
2
SOLID
70
1
71
0
91
2
92
1
93
1
72
2
10
38.100000
20
12.188508
40
0.804418
50
0.000000
51
360.000000
73
1
97
0
92
1
93
1
72
2
10
38.100000
20
12.188508
40
0.444500
50
0.000000
51
360.000000
73
1
97
0
75
0
76
0
98
1
10
0.0
20
0.0
0
LWPOLYLINE
5
EC
100
AcDbEntity
8
COPPER_BOTTOM
62
1
100
AcDbPolyline
90
2
70
0
43
0.500000
39
0.500000
10
7.112000
20
12.188510
10
2.032000
20
12.188508
0
LWPOLYLINE
5
ED
100
AcDbEntity
8
COPPER_BOTTOM
62
1
100
AcDbPolyline
90
2
70
0
43
0.500000
39
0.500000
10
3.049750
20
13.716000
10
2.033746
20
14.732000
0
LWPOLYLINE
5
EE
100
AcDbEntity
8
COPPER_BOTTOM
62
1
100
AcDbPolyline
90
2
70
0
43
0.500000
39
0.500000
10
10.747490
20
13.716000
10
3.049750
20
13.716000
0
LWPOLYLINE
5
EF
100
AcDbEntity
8
COPPER_BOTTOM
62
1
100
AcDbPolyline
90
2
70
0
43
0.500000
39
0.500000
10
37.084000
20
13.712510
10
29.714510
20
13.712510
0
LWPOLYLINE
5
F0
100
AcDbEntity
8
COPPER_BOTTOM
62
1
100
AcDbPolyline
90
2
70
0
43
0.500000
39
0.500000
10
32.972746
20
12.192000
10
38.098254
20
12.192000
0
LWPOLYLINE
5
F1
100
AcDbEntity
8
COPPER_BOTTOM
62
1
100
AcDbPolyline
90
2
70
0
43
0.500000
39
0.500000
10
37.084000
20
13.712510
10
38.100000
20
14.728508
0
LWPOLYLINE
5
F2
100
AcDbEntity
8
COPPER_BOTTOM
62
1
100
AcDbPolyline
90
2
70
0
43
0.500000
39
0.500000
10
2.032000
20
17.522510
10
5.080000
20
20.570510
0
LWPOLYLINE
5
F3
100
AcDbEntity
8
COPPER_BOTTOM
62
1
100
AcDbPolyline
90
2
70
0
43
0.500000
39
0.500000
10
2.032000
20
17.522510
10
2.032000
20
17.268510
0
LWPOLYLINE
5
F4
100
AcDbEntity
8
COPPER_BOTTOM
62
1
100
AcDbPolyline
90
2
70
0
43
0.500000
39
0.500000
10
34.798000
20
20.828000
10
38.100000
20
17.526000
0
LWPOLYLINE
5
F5
100
AcDbEntity
8
COPPER_BOTTOM
62
1
100
AcDbPolyline
90
2
70
0
43
0.500000
39
0.500000
10
38.100000
20
17.526000
10
38.100000
20
17.272000
0
LWPOLYLINE
5
F6
100
AcDbEntity
8
COPPER_BOTTOM
62
1
100
AcDbPolyline
90
2
70
0
43
0.500000
39
0.500000
10
4.572000
20
22.348510
10
2.032000
20
19.808508
0
LWPOLYLINE
5
F7
100
AcDbEntity
8
COPPER_BOTTOM
62
1
100
AcDbPolyline
90
2
70
0
43
0.500000
39
0.500000
10
35.435230
20
22.475000
10
38.098254
20
19.812000
0
LWPOLYLINE
5
F8
100
AcDbEntity
8
COPPER_BOTTOM
62
1
100
AcDbPolyline
90
2
70
0
43
0.500000
39
0.500000
10
5.080000
20
20.570510
10
10.156510
20
20.570510
0
LWPOLYLINE
5
F9
100
AcDbEntity
8
COPPER_BOTTOM
62
1
100
AcDbPolyline
90
2
70
0
43
0.500000
39
0.500000
10
10.156510
20
20.570510
10
14.198365
20
24.612365
0
LWPOLYLINE
5
FA
100
AcDbEntity
8
COPPER_BOTTOM
62
1
100
AcDbPolyline
90
2
70
0
43
0.500000
39
0.500000
10
25.948000
20
24.390250
10
29.510250
20
20.828000
0
LWPOLYLINE
5
FB
100
AcDbEntity
8
COPPER_BOTTOM
62
1
100
AcDbPolyline
90
2
70
0
43
0.500000
39
0.500000
10
29.510250
20
20.828000
10
34.798000
20
20.828000
0
LWPOLYLINE
5
FC
100
AcDbEntity
8
COPPER_BOTTOM
62
1
100
AcDbPolyline
90
2
70
0
43
0.500000
39
0.500000
10
2.032000
20
22.348508
10
4.067492
20
24.384000
0
LWPOLYLINE
5
FD
100
AcDbEntity
8
COPPER_BOTTOM
62
1
100
AcDbPolyline
90
2
70
0
43
0.500000
39
0.500000
10
4.572000
20
22.348510
10
9.648510
20
22.348510
0
LWPOLYLINE
5
FE
100
AcDbEntity
8
COPPER_BOTTOM
62
1
100
AcDbPolyline
90
2
70
0
43
0.500000
39
0.500000
10
9.648510
20
22.348510
10
11.684000
20
24.384000
0
LWPOLYLINE
5
FF
100
AcDbEntity
8
COPPER_BOTTOM
62
1
100
AcDbPolyline
90
2
70
0
43
0.500000
39
0.500000
10
28.448000
20
24.525492
10
30.498490
20
22.475000
0
LWPOLYLINE
5
100
100
AcDbEntity
8
COPPER_BOTTOM
62
1
100
AcDbPolyline
90
2
70
0
43
0.500000
39
0.500000
10
30.498490
20
22.475000
10
35.435230
20
22.475000
0
LWPOLYLINE
5
101
100
AcDbEntity
8
COPPER_BOTTOM
62
1
100
AcDbPolyline
90
2
70
0
43
0.500000
39
0.500000
10
35.951260
20
24.499010
10
38.098254
20
22.352000
0
LWPOLYLINE
5
102
100
AcDbEntity
8
COPPER_BOTTOM
62
1
100
AcDbPolyline
90
2
70
0
43
0.500000
39
0.500000
10
4.067492
20
24.384000
10
9.093254
20
24.384000
0
LWPOLYLINE
5
103
100
AcDbEntity
8
COPPER_BOTTOM
62
1
100
AcDbPolyline
90
2
70
0
43
0.500000
39
0.500000
10
25.948000
20
24.390250
10
25.948000
20
24.525490
0
LWPOLYLINE
5
104
100
AcDbEntity
8
COPPER_BOTTOM
62
1
100
AcDbPolyline
90
2
70
0
43
0.500000
39
0.500000
10
30.974480
20
24.499010
10
35.951260
20
24.499010
0
LWPOLYLINE
5
105
100
AcDbEntity
8
COPPER_BOTTOM
62
1
100
AcDbPolyline
90
2
70
0
43
0.500000
39
0.500000
10
30.948000
20
24.525492
10
30.974480
20
24.499010
0
HATCH
5
106
100
AcDbEntity
8
COPPER_BOTTOM
62
255
100
AcDbHatch
10
0.0
20
0.0
30
0.0
210
0.0
220
0.0
230
1.0
2
SOLID
70
1
71
0
91
1
92
1
93
1
72
2
10
4.000000
20
31.000000
40
1.600000
50
0.000000
51
360.000000
73
1
97
0
75
0
76
0
98
1
10
0.0
20
0.0
0
CIRCLE
5
107
100
AcDbEntity
8
COPPER_BOTTOM
62
255
100
AcDbCircle
39
0.000001
10
4.000000
20
31.000000
30
0
40
1.600000
0
HATCH
5
108
100
AcDbEntity
8
COPPER_BOTTOM
62
255
100
AcDbHatch
10
0.0
20
0.0
30
0.0
210
0.0
220
0.0
230
1.0
2
SOLID
70
1
71
0
91
1
92
1
93
1
72
2
10
4.000000
20
4.000000
40
1.600000
50
0.000000
51
360.000000
73
1
97
0
75
0
76
0
98
1
10
0.0
20
0.0
0
CIRCLE
5
109
100
AcDbEntity
8
COPPER_BOTTOM
62
255
100
AcDbCircle
39
0.000001
10
4.000000
20
4.000000
30
0
40
1.600000
0
HATCH
5
10A
100
AcDbEntity
8
COPPER_BOTTOM
62
255
100
AcDbHatch
10
0.0
20
0.0
30
0.0
210
0.0
220
0.0
230
1.0
2
SOLID
70
1
71
0
91
1
92
1
93
1
72
2
10
36.000000
20
31.000000
40
1.600000
50
0.000000
51
360.000000
73
1
97
0
75
0
76
0
98
1
10
0.0
20
0.0
0
CIRCLE
5
10B
100
AcDbEntity
8
COPPER_BOTTOM
62
255
100
AcDbCircle
39
0.000001
10
36.000000
20
31.000000
30
0
40
1.600000
0
HATCH
5
10C
100
AcDbEntity
8
COPPER_BOTTOM
62
255
100
AcDbHatch
10
0.0
20
0.0
30
0.0
210
0.0
220
0.0
230
1.0
2
SOLID
70
1
71
0
91
1
92
1
93
1
72
2
10
36.000000
20
4.000000
40
1.600000
50
0.000000
51
360.000000
73
1
97
0
75
0
76
0
98
1
10
0.0
20
0.0
0
CIRCLE
5
10D
100
AcDbEntity
8
COPPER_BOTTOM
62
255
100
AcDbCircle
39
0.000001
10
36.000000
20
4.000000
30
0
40
1.600000
0
HATCH
5
10E
100
AcDbEntity
8
COPPER_BOTTOM
62
1
100
AcDbHatch
10
0.0
20
0.0
30
0.0
210
0.0
220
0.0
230
1.0
2
SOLID
70
1
71
0
91
3
92
1
93
77
72
1
10
5.119275
20
34.321483
11
34.880725
21
34.321483
72
2
10
36.000000
20
31.000000
40
3.505000
50
108.622807
51
338.876439
73
1
72
1
10
39.269483
20
29.736867
11
39.269483
21
23.446669
72
2
10
38.364541
20
22.613049
40
1.230383
50
42.650840
51
90.000000
73
1
72
1
10
38.364541
20
23.843432
11
37.995199
21
23.843432
72
1
10
37.995199
20
23.843432
11
36.646281
21
25.192360
72
2
10
35.951260
20
24.499010
40
0.981727
50
44.931019
51
90.000000
73
1
72
1
10
35.951260
20
25.480737
11
32.074515
21
25.480737
72
2
10
30.948000
20
24.525492
40
1.477000
50
40.296770
51
147.812574
73
1
72
2
10
28.448000
20
24.525492
40
1.477000
50
32.187426
51
147.812574
73
1
72
2
10
25.948000
20
24.525492
40
1.477000
50
32.187426
51
268.161929
73
1
72
1
10
25.900625
20
23.049252
11
28.816064
21
20.133814
72
2
10
29.510250
20
20.827999
40
0.981727
50
225.000000
51
270.064095
73
1
72
1
10
29.511348
20
19.846273
11
34.391354
21
19.846273
72
1
10
34.391354
20
19.846273
11
34.881618
21
19.356009
72
1
10
34.881618
20
19.356009
11
32.948000
21
19.356009
72
2
10
32.948000
20
18.625492
40
0.730517
50
90.000000
51
180.000000
73
1
72
1
10
32.217483
20
18.625492
11
32.217483
21
15.925492
72
2
10
32.948000
20
15.925492
40
0.730517
50
180.000000
51
270.000000
73
1
72
1
10
32.948000
20
15.194975
11
35.648000
21
15.194975
72
2
10
35.648000
20
15.925492
40
0.730517
50
270.000000
51
0.000000
73
1
72
1
10
36.378517
20
15.925492
11
36.378517
21
17.859110
72
1
10
36.378517
20
17.859110
11
36.611035
21
17.626592
72
2
10
38.100000
20
17.268508
40
1.531418
50
166.477609
51
236.026567
73
1
72
2
10
38.100000
20
14.728508
40
1.531418
50
123.973433
51
181.282307
73
1
72
1
10
36.568966
20
14.694237
11
29.714510
21
14.694237
72
2
10
29.714510
20
13.712510
40
0.981727
50
90.000000
51
104.735366
73
1
72
2
10
29.714509
20
13.712510
40
0.981727
50
104.735284
51
135.000000
73
1
72
1
10
29.020323
20
14.406695
11
26.107484
21
11.493856
72
2
10
25.948000
20
10.025492
40
1.477000
50
83.801222
51
327.812574
73
1
72
2
10
28.448000
20
10.025492
40
1.477000
50
212.187426
51
324.997793
73
1
72
1
10
29.657855
20
9.178273
11
29.738145
21
9.178273
72
2
10
30.948000
20
10.025492
40
1.477000
50
215.002207
51
8.358372
73
1
72
1
10
32.409312
20
10.240195
11
33.379390
21
11.210273
72
1
10
33.379390
20
11.210273
11
36.921740
21
11.210273
72
2
10
38.100000
20
12.188508
40
1.531418
50
219.700703
51
319.787946
73
1
72
1
10
39.269483
20
11.199796
11
39.269483
21
5.263133
72
2
10
36.000000
20
4.000000
40
3.505000
50
21.123561
51
246.631015
73
1
72
1
10
34.609738
20
0.782517
11
5.881045
21
0.782517
72
2
10
4.000000
20
4.000000
40
3.727000
50
300.311949
51
151.311503
73
1
72
1
10
0.730517
20
5.789137
11
0.730517
21
11.381425
72
2
10
2.032000
20
12.188508
40
1.531418
50
211.804115
51
320.129302
73
1
72
1
10
3.207353
20
11.206781
11
6.705355
21
11.206783
72
1
10
6.705355
20
11.206783
11
7.716798
21
10.195339
72
2
10
9.184000
20
10.025492
40
1.477000
50
173.396683
51
324.997793
73
1
72
1
10
10.393855
20
9.178273
11
10.474145
21
9.178273
72
2
10
11.684000
20
10.025492
40
1.477000
50
215.002207
51
327.812574
73
1
72
2
10
14.184000
20
10.025492
40
1.477000
50
212.187426
51
83.161131
73
1
72
1
10
14.359878
20
11.491983
11
11.442508
21
14.409352
72
2
10
10.747490
20
13.716000
40
0.981727
50
44.931232
51
75.878640
73
1
72
2
10
10.747489
20
13.716000
40
0.981727
50
75.878560
51
90.047414
73
1
72
1
10
10.746676
20
14.697727
11
3.563109
21
14.697727
72
2
10
2.032000
20
14.728508
40
1.531418
50
358.848296
51
56.026567
73
1
72
2
10
2.032000
20
17.268508
40
1.531418
50
303.973433
51
13.414130
73
1
72
1
10
3.521639
20
17.623778
11
3.753483
21
17.855622
72
1
10
3.753483
20
17.855622
11
3.753483
21
15.925492
72
2
10
4.484000
20
15.925492
40
0.730517
50
180.000000
51
270.000000
73
1
72
1
10
4.484000
20
15.194975
11
7.184000
21
15.194975
72
2
10
7.184000
20
15.925492
40
0.730517
50
270.000000
51
0.000000
73
1
72
1
10
7.914517
20
15.925492
11
7.914517
21
18.625492
72
2
10
7.184000
20
18.625492
40
0.730517
50
0.000000
51
90.000000
73
1
72
1
10
7.184000
20
19.356009
11
5.253870
21
19.356009
72
1
10
5.253870
20
19.356009
11
5.486644
21
19.588783
72
1
10
5.486644
20
19.588783
11
10.155575
21
19.588783
72
2
10
10.156509
20
20.570510
40
0.981727
50
269.945503
51
287.093807
73
1
72
2
10
10.156510
20
20.570510
40
0.981727
50
287.093718
51
315.068768
73
1
72
1
10
10.851528
20
19.877158
11
14.030827
21
23.056456
72
2
10
14.184000
20
24.525492
40
1.477000
50
264.047395
51
147.812574
73
1
72
2
10
11.684000
20
24.525492
40
1.477000
50
32.187426
51
147.812574
73
1
72
2
10
9.184000
20
24.525492
40
1.477000
50
32.187426
51
145.327874
73
1
72
1
10
7.969284
20
25.365727
11
4.068548
21
25.365727
72
2
10
4.067492
20
24.384001
40
0.981727
50
89.938348
51
135.000000
73
1
72
1
10
3.373306
20
25.078186
11
2.138551
21
23.843432
72
1
10
2.138551
20
23.843432
11
1.767459
21
23.843432
72
2
10
1.767459
20
22.613049
40
1.230383
50
90.000000
51
147.434840
73
1
72
1
10
0.730517
20
23.275313
11
0.730517
21
29.736867
72
2
10
4.000000
20
31.000000
40
3.505000
50
201.123561
51
71.377193
73
1
97
0
92
1
93
8
72
2
10
21.248000
20
18.625492
40
0.730517
50
90.000000
51
180.000000
73
1
72
1
10
20.517483
20
18.625492
11
20.517483
21
15.925492
72
2
10
21.248000
20
15.925492
40
0.730517
50
180.000000
51
270.000000
73
1
72
1
10
21.248000
20
15.194975
11
23.948000
21
15.194975
72
2
10
23.948000
20
15.925492
40
0.730517
50
270.000000
51
0.000000
73
1
72
1
10
24.678517
20
15.925492
11
24.678517
21
18.625492
72
2
10
23.948000
20
18.625492
40
0.730517
50
0.000000
51
90.000000
73
1
72
1
10
23.948000
20
19.356009
11
21.248000
21
19.356009
97
0
92
1
93
8
72
1
10
16.184000
20
15.194975
11
18.884000
21
15.194975
72
2
10
18.884000
20
15.925492
40
0.730517
50
270.000000
51
0.000000
73
1
72
1
10
19.614517
20
15.925492
11
19.614517
21
18.625492
72
2
10
18.884000
20
18.625492
40
0.730517
50
0.000000
51
90.000000
73
1
72
1
10
18.884000
20
19.356009
11
16.184000
21
19.356009
72
2
10
16.184000
20
18.625492
40
0.730517
50
90.000000
51
180.000000
73
1
72
1
10
15.453483
20
18.625492
11
15.453483
21
15.925492
72
2
10
16.184000
20
15.925492
40
0.730517
50
180.000000
51
270.000000
73
1
97
0
75
0
76
0
98
1
10
0.0
20
0.0
0
ARC
5
10F
100
AcDbEntity
8
COPPER_BOTTOM
62
1
100
AcDbCircle
39
0.254000
10
21.248000
20
18.625492
30
0.0
40
0.730517
100
AcDbArc
50
90.000000
51
180.000000
0
LWPOLYLINE
5
110
100
AcDbEntity
8
COPPER_BOTTOM
62
1
100
AcDbPolyline
90
2
70
0
43
0.254000
39
0.254000
10
20.517483
20
18.625492
10
20.517483
20
15.925492
0
ARC
5
111
100
AcDbEntity
8
COPPER_BOTTOM
62
1
100
AcDbCircle
39
0.254000
10
21.248000
20
15.925492
30
0.0
40
0.730517
100
AcDbArc
50
180.000000
51
270.000000
0
LWPOLYLINE
5
112
100
AcDbEntity
8
COPPER_BOTTOM
62
1
100
AcDbPolyline
90
2
70
0
43
0.254000
39
0.254000
10
21.248000
20
15.194975
10
23.948000
20
15.194975
0
ARC
5
113
100
AcDbEntity
8
COPPER_BOTTOM
62
1
100
AcDbCircle
39
0.254000
10
23.948000
20
15.925492
30
0.0
40
0.730517
100
AcDbArc
50
270.000000
51
0.000000
0
LWPOLYLINE
5
114
100
AcDbEntity
8
COPPER_BOTTOM
62
1
100
AcDbPolyline
90
2
70
0
43
0.254000
39
0.254000
10
24.678517
20
15.925492
10
24.678517
20
18.625492
0
ARC
5
115
100
AcDbEntity
8
COPPER_BOTTOM
62
1
100
AcDbCircle
39
0.254000
10
23.948000
20
18.625492
30
0.0
40
0.730517
100
AcDbArc
50
0.000000
51
90.000000
0
LWPOLYLINE
5
116
100
AcDbEntity
8
COPPER_BOTTOM
62
1
100
AcDbPolyline
90
2
70
0
43
0.254000
39
0.254000
10
23.948000
20
19.356009
10
21.248000
20
19.356009
0
LWPOLYLINE
5
117
100
AcDbEntity
8
COPPER_BOTTOM
62
1
100
AcDbPolyline
90
2
70
0
43
0.254000
39
0.254000
10
16.184000
20
15.194975
10
18.884000
20
15.194975
0
ARC
5
118
100
AcDbEntity
8
COPPER_BOTTOM
62
1
100
AcDbCircle
39
0.254000
10
18.884000
20
15.925492
30
0.0
40
0.730517
100
AcDbArc
50
270.000000
51
0.000000
0
LWPOLYLINE
5
119
100
AcDbEntity
8
COPPER_BOTTOM
62
1
100
AcDbPolyline
90
2
70
0
43
0.254000
39
0.254000
10
19.614517
20
15.925492
10
19.614517
20
18.625492
0
ARC
5
11A
100
AcDbEntity
8
COPPER_BOTTOM
62
1
100
AcDbCircle
39
0.254000
10
18.884000
20
18.625492
30
0.0
40
0.730517
100
AcDbArc
50
0.000000
51
90.000000
0
LWPOLYLINE
5
11B
100
AcDbEntity
8
COPPER_BOTTOM
62
1
100
AcDbPolyline
90
2
70
0
43
0.254000
39
0.254000
10
18.884000
20
19.356009
10
16.184000
20
19.356009
0
ARC
5
11C
100
AcDbEntity
8
COPPER_BOTTOM
62
1
100
AcDbCircle
39
0.254000
10
16.184000
20
18.625492
30
0.0
40
0.730517
100
AcDbArc
50
90.000000
51
180.000000
0
LWPOLYLINE
5
11D
100
AcDbEntity
8
COPPER_BOTTOM
62
1
100
AcDbPolyline
90
2
70
0
43
0.254000
39
0.254000
10
15.453483
20
18.625492
10
15.453483
20
15.925492
0
ARC
5
11E
100
AcDbEntity
8
COPPER_BOTTOM
62
1
100
AcDbCircle
39
0.254000
10
16.184000
20
15.925492
30
0.0
40
0.730517
100
AcDbArc
50
180.000000
51
270.000000
0
LWPOLYLINE
5
11F
100
AcDbEntity
8
COPPER_BOTTOM
62
1
100
AcDbPolyline
90
2
70
0
43
0.254000
39
0.254000
10
5.119275
20
34.321483
10
34.880725
20
34.321483
0
ARC
5
120
100
AcDbEntity
8
COPPER_BOTTOM
62
1
100
AcDbCircle
39
0.254000
10
36.000000
20
31.000000
30
0.0
40
3.505000
100
AcDbArc
50
108.622807
51
338.876439
0
LWPOLYLINE
5
121
100
AcDbEntity
8
COPPER_BOTTOM
62
1
100
AcDbPolyline
90
2
70
0
43
0.254000
39
0.254000
10
39.269483
20
29.736867
10
39.269483
20
23.446669
0
ARC
5
122
100
AcDbEntity
8
COPPER_BOTTOM
62
1
100
AcDbCircle
39
0.254000
10
38.364541
20
22.613049
30
0.0
40
1.230383
100
AcDbArc
50
42.650840
51
90.000000
0
LWPOLYLINE
5
123
100
AcDbEntity
8
COPPER_BOTTOM
62
1
100
AcDbPolyline
90
3
70
0
43
0.254000
39
0.254000
10
38.364541
20
23.843432
10
37.995199
20
23.843432
10
36.646281
20
25.192360
0
ARC
5
124
100
AcDbEntity
8
COPPER_BOTTOM
62
1
100
AcDbCircle
39
0.254000
10
35.951260
20
24.499010
30
0.0
40
0.981727
100
AcDbArc
50
44.931019
51
90.000000
0
LWPOLYLINE
5
125
100
AcDbEntity
8
COPPER_BOTTOM
62
1
100
AcDbPolyline
90
2
70
0
43
0.254000
39
0.254000
10
35.951260
20
25.480737
10
32.074515
20
25.480737
0
ARC
5
126
100
AcDbEntity
8
COPPER_BOTTOM
62
1
100
AcDbCircle
39
0.254000
10
30.948000
20
24.525492
30
0.0
40
1.477000
100
AcDbArc
50
40.296770
51
147.812574
0
ARC
5
127
100
AcDbEntity
8
COPPER_BOTTOM
62
1
100
AcDbCircle
39
0.254000
10
28.448000
20
24.525492
30
0.0
40
1.477000
100
AcDbArc
50
32.187426
51
147.812574
0
ARC
5
128
100
AcDbEntity
8
COPPER_BOTTOM
62
1
100
AcDbCircle
39
0.254000
10
25.948000
20
24.525492
30
0.0
40
1.477000
100
AcDbArc
50
32.187426
51
268.161929
0
LWPOLYLINE
5
129
100
AcDbEntity
8
COPPER_BOTTOM
62
1
100
AcDbPolyline
90
2
70
0
43
0.254000
39
0.254000
10
25.900625
20
23.049252
10
28.816064
20
20.133814
0
ARC
5
12A
100
AcDbEntity
8
COPPER_BOTTOM
62
1
100
AcDbCircle
39
0.254000
10
29.510250
20
20.827999
30
0.0
40
0.981727
100
AcDbArc
50
225.000000
51
270.064095
0
LWPOLYLINE
5
12B
100
AcDbEntity
8
COPPER_BOTTOM
62
1
100
AcDbPolyline
90
4
70
0
43
0.254000
39
0.254000
10
29.511348
20
19.846273
10
34.391354
20
19.846273
10
34.881618
20
19.356009
10
32.948000
20
19.356009
0
ARC
5
12C
100
AcDbEntity
8
COPPER_BOTTOM
62
1
100
AcDbCircle
39
0.254000
10
32.948000
20
18.625492
30
0.0
40
0.730517
100
AcDbArc
50
90.000000
51
180.000000
0
LWPOLYLINE
5
12D
100
AcDbEntity
8
COPPER_BOTTOM
62
1
100
AcDbPolyline
90
2
70
0
43
0.254000
39
0.254000
10
32.217483
20
18.625492
10
32.217483
20
15.925492
0
ARC
5
12E
100
AcDbEntity
8
COPPER_BOTTOM
62
1
100
AcDbCircle
39
0.254000
10
32.948000
20
15.925492
30
0.0
40
0.730517
100
AcDbArc
50
180.000000
51
270.000000
0
LWPOLYLINE
5
12F
100
AcDbEntity
8
COPPER_BOTTOM
62
1
100
AcDbPolyline
90
2
70
0
43
0.254000
39
0.254000
10
32.948000
20
15.194975
10
35.648000
20
15.194975
0
ARC
5
130
100
AcDbEntity
8
COPPER_BOTTOM
62
1
100
AcDbCircle
39
0.254000
10
35.648000
20
15.925492
30
0.0
40
0.730517
100
AcDbArc
50
270.000000
51
0.000000
0
LWPOLYLINE
5
131
100
AcDbEntity
8
COPPER_BOTTOM
62
1
100
AcDbPolyline
90
3
70
0
43
0.254000
39
0.254000
10
36.378517
20
15.925492
10
36.378517
20
17.859110
10
36.611035
20
17.626592
0
ARC
5
132
100
AcDbEntity
8
COPPER_BOTTOM
62
1
100
AcDbCircle
39
0.254000
10
38.100000
20
17.268508
30
0.0
40
1.531418
100
AcDbArc
50
166.477609
51
236.026567
0
ARC
5
133
100
AcDbEntity
8
COPPER_BOTTOM
62
1
100
AcDbCircle
39
0.254000
10
38.100000
20
14.728508
30
0.0
40
1.531418
100
AcDbArc
50
123.973433
51
181.282307
0
LWPOLYLINE
5
134
100
AcDbEntity
8
COPPER_BOTTOM
62
1
100
AcDbPolyline
90
2
70
0
43
0.254000
39
0.254000
10
36.568966
20
14.694237
10
29.714510
20
14.694237
0
ARC
5
135
100
AcDbEntity
8
COPPER_BOTTOM
62
1
100
AcDbCircle
39
0.254000
10
29.714510
20
13.712510
30
0.0
40
0.981727
100
AcDbArc
50
90.000000
51
104.735366
0
ARC
5
136
100
AcDbEntity
8
COPPER_BOTTOM
62
1
100
AcDbCircle
39
0.254000
10
29.714509
20
13.712510
30
0.0
40
0.981727
100
AcDbArc
50
104.735284
51
135.000000
0
LWPOLYLINE
5
137
100
AcDbEntity
8
COPPER_BOTTOM
62
1
100
AcDbPolyline
90
2
70
0
43
0.254000
39
0.254000
10
29.020323
20
14.406695
10
26.107484
20
11.493856
0
ARC
5
138
100
AcDbEntity
8
COPPER_BOTTOM
62
1
100
AcDbCircle
39
0.254000
10
25.948000
20
10.025492
30
0.0
40
1.477000
100
AcDbArc
50
83.801222
51
327.812574
0
ARC
5
139
100
AcDbEntity
8
COPPER_BOTTOM
62
1
100
AcDbCircle
39
0.254000
10
28.448000
20
10.025492
30
0.0
40
1.477000
100
AcDbArc
50
212.187426
51
324.997793
0
LWPOLYLINE
5
13A
100
AcDbEntity
8
COPPER_BOTTOM
62
1
100
AcDbPolyline
90
2
70
0
43
0.254000
39
0.254000
10
29.657855
20
9.178273
10
29.738145
20
9.178273
0
ARC
5
13B
100
AcDbEntity
8
COPPER_BOTTOM
62
1
100
AcDbCircle
39
0.254000
10
30.948000
20
10.025492
30
0.0
40
1.477000
100
AcDbArc
50
215.002207
51
8.358372
0
LWPOLYLINE
5
13C
100
AcDbEntity
8
COPPER_BOTTOM
62
1
100
AcDbPolyline
90
3
70
0
43
0.254000
39
0.254000
10
32.409312
20
10.240195
10
33.379390
20
11.210273
10
36.921740
20
11.210273
0
ARC
5
13D
100
AcDbEntity
8
COPPER_BOTTOM
62
1
100
AcDbCircle
39
0.254000
10
38.100000
20
12.188508
30
0.0
40
1.531418
100
AcDbArc
50
219.700703
51
319.787946
0
LWPOLYLINE
5
13E
100
AcDbEntity
8
COPPER_BOTTOM
62
1
100
AcDbPolyline
90
2
70
0
43
0.254000
39
0.254000
10
39.269483
20
11.199796
10
39.269483
20
5.263133
0
ARC
5
13F
100
AcDbEntity
8
COPPER_BOTTOM
62
1
100
AcDbCircle
39
0.254000
10
36.000000
20
4.000000
30
0.0
40
3.505000
100
AcDbArc
50
21.123561
51
246.631015
0
LWPOLYLINE
5
140
100
AcDbEntity
8
COPPER_BOTTOM
62
1
100
AcDbPolyline
90
2
70
0
43
0.254000
39
0.254000
10
34.609738
20
0.782517
10
5.881045
20
0.782517
0
ARC
5
141
100
AcDbEntity
8
COPPER_BOTTOM
62
1
100
AcDbCircle
39
0.254000
10
4.000000
20
4.000000
30
0.0
40
3.727000
100
AcDbArc
50
300.311949
51
151.311503
0
LWPOLYLINE
5
142
100
AcDbEntity
8
COPPER_BOTTOM
62
1
100
AcDbPolyline
90
2
70
0
43
0.254000
39
0.254000
10
0.730517
20
5.789137
10
0.730517
20
11.381425
0
ARC
5
143
100
AcDbEntity
8
COPPER_BOTTOM
62
1
100
AcDbCircle
39
0.254000
10
2.032000
20
12.188508
30
0.0
40
1.531418
100
AcDbArc
50
211.804115
51
320.129302
0
LWPOLYLINE
5
144
100
AcDbEntity
8
COPPER_BOTTOM
62
1
100
AcDbPolyline
90
3
70
0
43
0.254000
39
0.254000
10
3.207353
20
11.206781
10
6.705355
20
11.206783
10
7.716798
20
10.195339
0
ARC
5
145
100
AcDbEntity
8
COPPER_BOTTOM
62
1
100
AcDbCircle
39
0.254000
10
9.184000
20
10.025492
30
0.0
40
1.477000
100
AcDbArc
50
173.396683
51
324.997793
0
LWPOLYLINE
5
146
100
AcDbEntity
8
COPPER_BOTTOM
62
1
100
AcDbPolyline
90
2
70
0
43
0.254000
39
0.254000
10
10.393855
20
9.178273
10
10.474145
20
9.178273
0
ARC
5
147
100
AcDbEntity
8
COPPER_BOTTOM
62
1
100
AcDbCircle
39
0.254000
10
11.684000
20
10.025492
30
0.0
40
1.477000
100
AcDbArc
50
215.002207
51
327.812574
0
ARC
5
148
100
AcDbEntity
8
COPPER_BOTTOM
62
1
100
AcDbCircle
39
0.254000
10
14.184000
20
10.025492
30
0.0
40
1.477000
100
AcDbArc
50
212.187426
51
83.161131
0
LWPOLYLINE
5
149
100
AcDbEntity
8
COPPER_BOTTOM
62
1
100
AcDbPolyline
90
2
70
0
43
0.254000
39
0.254000
10
14.359878
20
11.491983
10
11.442508
20
14.409352
0
ARC
5
14A
100
AcDbEntity
8
COPPER_BOTTOM
62
1
100
AcDbCircle
39
0.254000
10
10.747490
20
13.716000
30
0.0
40
0.981727
100
AcDbArc
50
44.931232
51
75.878640
0
ARC
5
14B
100
AcDbEntity
8
COPPER_BOTTOM
62
1
100
AcDbCircle
39
0.254000
10
10.747489
20
13.716000
30
0.0
40
0.981727
100
AcDbArc
50
75.878560
51
90.047414
0
LWPOLYLINE
5
14C
100
AcDbEntity
8
COPPER_BOTTOM
62
1
100
AcDbPolyline
90
2
70
0
43
0.254000
39
0.254000
10
10.746676
20
14.697727
10
3.563109
20
14.697727
0
ARC
5
14D
100
AcDbEntity
8
COPPER_BOTTOM
62
1
100
AcDbCircle
39
0.254000
10
2.032000
20
14.728508
30
0.0
40
1.531418
100
AcDbArc
50
358.848296
51
56.026567
0
ARC
5
14E
100
AcDbEntity
8
COPPER_BOTTOM
62
1
100
AcDbCircle
39
0.254000
10
2.032000
20
17.268508
30
0.0
40
1.531418
100
AcDbArc
50
303.973433
51
13.414130
0
LWPOLYLINE
5
14F
100
AcDbEntity
8
COPPER_BOTTOM
62
1
100
AcDbPolyline
90
3
70
0
43
0.254000
39
0.254000
10
3.521639
20
17.623778
10
3.753483
20
17.855622
10
3.753483
20
15.925492
0
ARC
5
150
100
AcDbEntity
8
COPPER_BOTTOM
62
1
100
AcDbCircle
39
0.254000
10
4.484000
20
15.925492
30
0.0
40
0.730517
100
AcDbArc
50
180.000000
51
270.000000
0
LWPOLYLINE
5
151
100
AcDbEntity
8
COPPER_BOTTOM
62
1
100
AcDbPolyline
90
2
70
0
43
0.254000
39
0.254000
10
4.484000
20
15.194975
10
7.184000
20
15.194975
0
ARC
5
152
100
AcDbEntity
8
COPPER_BOTTOM
62
1
100
AcDbCircle
39
0.254000
10
7.184000
20
15.925492
30
0.0
40
0.730517
100
AcDbArc
50
270.000000
51
0.000000
0
LWPOLYLINE
5
153
100
AcDbEntity
8
COPPER_BOTTOM
62
1
100
AcDbPolyline
90
2
70
0
43
0.254000
39
0.254000
10
7.914517
20
15.925492
10
7.914517
20
18.625492
0
ARC
5
154
100
AcDbEntity
8
COPPER_BOTTOM
62
1
100
AcDbCircle
39
0.254000
10
7.184000
20
18.625492
30
0.0
40
0.730517
100
AcDbArc
50
0.000000
51
90.000000
0
LWPOLYLINE
5
155
100
AcDbEntity
8
COPPER_BOTTOM
62
1
100
AcDbPolyline
90
4
70
0
43
0.254000
39
0.254000
10
7.184000
20
19.356009
10
5.253870
20
19.356009
10
5.486644
20
19.588783
10
10.155575
20
19.588783
0
ARC
5
156
100
AcDbEntity
8
COPPER_BOTTOM
62
1
100
AcDbCircle
39
0.254000
10
10.156509
20
20.570510
30
0.0
40
0.981727
100
AcDbArc
50
269.945503
51
287.093807
0
ARC
5
157
100
AcDbEntity
8
COPPER_BOTTOM
62
1
100
AcDbCircle
39
0.254000
10
10.156510
20
20.570510
30
0.0
40
0.981727
100
AcDbArc
50
287.093718
51
315.068768
0
LWPOLYLINE
5
158
100
AcDbEntity
8
COPPER_BOTTOM
62
1
100
AcDbPolyline
90
2
70
0
43
0.254000
39
0.254000
10
10.851528
20
19.877158
10
14.030827
20
23.056456
0
ARC
5
159
100
AcDbEntity
8
COPPER_BOTTOM
62
1
100
AcDbCircle
39
0.254000
10
14.184000
20
24.525492
30
0.0
40
1.477000
100
AcDbArc
50
264.047395
51
147.812574
0
ARC
5
15A
100
AcDbEntity
8
COPPER_BOTTOM
62
1
100
AcDbCircle
39
0.254000
10
11.684000
20
24.525492
30
0.0
40
1.477000
100
AcDbArc
50
32.187426
51
147.812574
0
ARC
5
15B
100
AcDbEntity
8
COPPER_BOTTOM
62
1
100
AcDbCircle
39
0.254000
10
9.184000
20
24.525492
30
0.0
40
1.477000
100
AcDbArc
50
32.187426
51
145.327874
0
LWPOLYLINE
5
15C
100
AcDbEntity
8
COPPER_BOTTOM
62
1
100
AcDbPolyline
90
2
70
0
43
0.254000
39
0.254000
10
7.969284
20
25.365727
10
4.068548
20
25.365727
0
ARC
5
15D
100
AcDbEntity
8
COPPER_BOTTOM
62
1
100
AcDbCircle
39
0.254000
10
4.067492
20
24.384001
30
0.0
40
0.981727
100
AcDbArc
50
89.938348
51
135.000000
0
LWPOLYLINE
5
15E
100
AcDbEntity
8
COPPER_BOTTOM
62
1
100
AcDbPolyline
90
3
70
0
43
0.254000
39
0.254000
10
3.373306
20
25.078186
10
2.138551
20
23.843432
10
1.767459
20
23.843432
0
ARC
5
15F
100
AcDbEntity
8
COPPER_BOTTOM
62
1
100
AcDbCircle
39
0.254000
10
1.767459
20
22.613049
30
0.0
40
1.230383
100
AcDbArc
50
90.000000
51
147.434840
0
LWPOLYLINE
5
160
100
AcDbEntity
8
COPPER_BOTTOM
62
1
100
AcDbPolyline
90
2
70
0
43
0.254000
39
0.254000
10
0.730517
20
23.275313
10
0.730517
20
29.736867
0
ARC
5
161
100
AcDbEntity
8
COPPER_BOTTOM
62
1
100
AcDbCircle
39
0.254000
10
4.000000
20
31.000000
30
0.0
40
3.505000
100
AcDbArc
50
201.123561
51
71.377193
0
HATCH
5
162
100
AcDbEntity
8
COPPER_BOTTOM
62
1
100
AcDbHatch
10
0.0
20
0.0
30
0.0
210
0.0
220
0.0
230
1.0
2
SOLID
70
1
71
0
91
1
92
1
93
3
72
2
10
4.000000
20
4.000000
40
3.727000
50
208.688497
51
239.688051
73
1
72
1
10
2.118955
20
0.782517
11
0.730517
21
0.782517
72
1
10
0.730517
20
0.782517
11
0.730517
21
2.210863
97
0
75
0
76
0
98
1
10
0.0
20
0.0
0
ARC
5
163
100
AcDbEntity
8
COPPER_BOTTOM
62
1
100
AcDbCircle
39
0.254000
10
4.000000
20
4.000000
30
0.0
40
3.727000
100
AcDbArc
50
208.688497
51
239.688051
0
LWPOLYLINE
5
164
100
AcDbEntity
8
COPPER_BOTTOM
62
1
100
AcDbPolyline
90
3
70
0
43
0.254000
39
0.254000
10
2.118955
20
0.782517
10
0.730517
20
0.782517
10
0.730517
20
2.210863
0
HATCH
5
165
100
AcDbEntity
8
COPPER_BOTTOM
62
1
100
AcDbHatch
10
0.0
20
0.0
30
0.0
210
0.0
220
0.0
230
1.0
2
SOLID
70
1
71
0
91
1
92
1
93
3
72
2
10
36.000000
20
4.000000
40
3.505000
50
293.368985
51
338.876439
73
1
72
1
10
39.269483
20
2.736867
11
39.269483
21
0.782517
72
1
10
39.269483
20
0.782517
11
37.390262
21
0.782517
97
0
75
0
76
0
98
1
10
0.0
20
0.0
0
ARC
5
166
100
AcDbEntity
8
COPPER_BOTTOM
62
1
100
AcDbCircle
39
0.254000
10
36.000000
20
4.000000
30
0.0
40
3.505000
100
AcDbArc
50
293.368985
51
338.876439
0
LWPOLYLINE
5
167
100
AcDbEntity
8
COPPER_BOTTOM
62
1
100
AcDbPolyline
90
3
70
0
43
0.254000
39
0.254000
10
39.269483
20
2.736867
10
39.269483
20
0.782517
10
37.390262
20
0.782517
0
HATCH
5
168
100
AcDbEntity
8
COPPER_BOTTOM
62
1
100
AcDbHatch
10
0.0
20
0.0
30
0.0
210
0.0
220
0.0
230
1.0
2
SOLID
70
1
71
0
91
1
92
1
93
6
72
1
10
10.716762
20
11.141727
11
10.151238
21
11.141727
72
2
10
9.184000
20
10.025492
40
1.477000
50
49.090487
51
89.907265
73
1
72
1
10
9.186391
20
11.502490
11
7.954608
21
12.734273
72
1
10
7.954608
20
12.734273
11
10.340844
21
12.734273
72
1
10
10.340844
20
12.734273
11
11.576540
21
11.498578
72
2
10
11.684000
20
10.025492
40
1.477000
50
94.172285
51
130.909513
73
1
97
0
75
0
76
0
98
1
10
0.0
20
0.0
0
LWPOLYLINE
5
169
100
AcDbEntity
8
COPPER_BOTTOM
62
1
100
AcDbPolyline
90
2
70
0
43
0.254000
39
0.254000
10
10.716762
20
11.141727
10
10.151238
20
11.141727
0
ARC
5
16A
100
AcDbEntity
8
COPPER_BOTTOM
62
1
100
AcDbCircle
39
0.254000
10
9.184000
20
10.025492
30
0.0
40
1.477000
100
AcDbArc
50
49.090487
51
89.907265
0
LWPOLYLINE
5
16B
100
AcDbEntity
8
COPPER_BOTTOM
62
1
100
AcDbPolyline
90
4
70
0
43
0.254000
39
0.254000
10
9.186391
20
11.502490
10
7.954608
20
12.734273
10
10.340844
20
12.734273
10
11.576540
20
11.498578
0
ARC
5
16C
100
AcDbEntity
8
COPPER_BOTTOM
62
1
100
AcDbCircle
39
0.254000
10
11.684000
20
10.025492
30
0.0
40
1.477000
100
AcDbArc
50
94.172285
51
130.909513
0
HATCH
5
16D
100
AcDbEntity
8
COPPER_BOTTOM
62
1
100
AcDbHatch
10
0.0
20
0.0
30
0.0
210
0.0
220
0.0
230
1.0
2
SOLID
70
1
71
0
91
1
92
1
93
6
72
1
10
29.980762
20
11.141727
11
29.415238
21
11.141727
72
2
10
28.448000
20
10.025492
40
1.477000
50
49.090487
51
74.612457
73
1
72
1
10
28.839917
20
11.449546
11
30.121154
21
12.730783
72
1
10
30.121154
20
12.730783
11
32.123156
21
12.730783
72
1
10
32.123156
20
12.730783
11
30.893873
21
11.501500
72
2
10
30.948000
20
10.025492
40
1.477000
50
92.100155
51
130.909513
73
1
97
0
75
0
76
0
98
1
10
0.0
20
0.0
0
LWPOLYLINE
5
16E
100
AcDbEntity
8
COPPER_BOTTOM
62
1
100
AcDbPolyline
90
2
70
0
43
0.254000
39
0.254000
10
29.980762
20
11.141727
10
29.415238
20
11.141727
0
ARC
5
16F
100
AcDbEntity
8
COPPER_BOTTOM
62
1
100
AcDbCircle
39
0.254000
10
28.448000
20
10.025492
30
0.0
40
1.477000
100
AcDbArc
50
49.090487
51
74.612457
0
LWPOLYLINE
5
170
100
AcDbEntity
8
COPPER_BOTTOM
62
1
100
AcDbPolyline
90
4
70
0
43
0.254000
39
0.254000
10
28.839917
20
11.449546
10
30.121154
20
12.730783
10
32.123156
20
12.730783
10
30.893873
20
11.501500
0
ARC
5
171
100
AcDbEntity
8
COPPER_BOTTOM
62
1
100
AcDbCircle
39
0.254000
10
30.948000
20
10.025492
30
0.0
40
1.477000
100
AcDbArc
50
92.100155
51
130.909513
0
HATCH
5
172
100
AcDbEntity
8
COPPER_BOTTOM
62
1
100
AcDbHatch
10
0.0
20
0.0
30
0.0
210
0.0
220
0.0
230
1.0
2
SOLID
70
1
71
0
91
1
92
1
93
3
72
2
10
2.032000
20
12.188508
40
1.531418
50
123.973433
51
148.195885
73
1
72
1
10
0.730517
20
12.995591
11
0.730517
21
13.921425
72
2
10
2.032000
20
14.728508
40
1.531418
50
211.804115
51
236.026567
73
1
97
0
75
0
76
0
98
1
10
0.0
20
0.0
0
ARC
5
173
100
AcDbEntity
8
COPPER_BOTTOM
62
1
100
AcDbCircle
39
0.254000
10
2.032000
20
12.188508
30
0.0
40
1.531418
100
AcDbArc
50
123.973433
51
148.195885
0
LWPOLYLINE
5
174
100
AcDbEntity
8
COPPER_BOTTOM
62
1
100
AcDbPolyline
90
2
70
0
43
0.254000
39
0.254000
10
0.730517
20
12.995591
10
0.730517
20
13.921425
0
ARC
5
175
100
AcDbEntity
8
COPPER_BOTTOM
62
1
100
AcDbCircle
39
0.254000
10
2.032000
20
14.728508
30
0.0
40
1.531418
100
AcDbArc
50
211.804115
51
236.026567
0
HATCH
5
176
100
AcDbEntity
8
COPPER_BOTTOM
62
1
100
AcDbHatch
10
0.0
20
0.0
30
0.0
210
0.0
220
0.0
230
1.0
2
SOLID
70
1
71
0
91
1
92
1
93
3
72
2
10
38.100000
20
14.728508
40
1.531418
50
303.973433
51
319.787946
73
1
72
1
10
39.269483
20
13.739796
11
39.269483
21
13.177220
72
2
10
38.100000
20
12.188508
40
1.531418
50
40.212054
51
56.026567
73
1
97
0
75
0
76
0
98
1
10
0.0
20
0.0
0
ARC
5
177
100
AcDbEntity
8
COPPER_BOTTOM
62
1
100
AcDbCircle
39
0.254000
10
38.100000
20
14.728508
30
0.0
40
1.531418
100
AcDbArc
50
303.973433
51
319.787946
0
LWPOLYLINE
5
178
100
AcDbEntity
8
COPPER_BOTTOM
62
1
100
AcDbPolyline
90
2
70
0
43
0.254000
39
0.254000
10
39.269483
20
13.739796
10
39.269483
20
13.177220
0
ARC
5
179
100
AcDbEntity
8
COPPER_BOTTOM
62
1
100
AcDbCircle
39
0.254000
10
38.100000
20
12.188508
30
0.0
40
1.531418
100
AcDbArc
50
40.212054
51
56.026567
0
HATCH
5
17A
100
AcDbEntity
8
COPPER_BOTTOM
62
1
100
AcDbHatch
10
0.0
20
0.0
30
0.0
210
0.0
220
0.0
230
1.0
2
SOLID
70
1
71
0
91
1
92
1
93
3
72
1
10
0.730517
20
15.535591
11
0.730517
21
16.461425
72
2
10
2.032000
20
17.268508
40
1.531418
50
211.804115
51
236.026567
73
1
72
2
10
2.032000
20
14.728508
40
1.531418
50
123.973433
51
148.195885
73
1
97
0
75
0
76
0
98
1
10
0.0
20
0.0
0
LWPOLYLINE
5
17B
100
AcDbEntity
8
COPPER_BOTTOM
62
1
100
AcDbPolyline
90
2
70
0
43
0.254000
39
0.254000
10
0.730517
20
15.535591
10
0.730517
20
16.461425
0
ARC
5
17C
100
AcDbEntity
8
COPPER_BOTTOM
62
1
100
AcDbCircle
39
0.254000
10
2.032000
20
17.268508
30
0.0
40
1.531418
100
AcDbArc
50
211.804115
51
236.026567
0
ARC
5
17D
100
AcDbEntity
8
COPPER_BOTTOM
62
1
100
AcDbCircle
39
0.254000
10
2.032000
20
14.728508
30
0.0
40
1.531418
100
AcDbArc
50
123.973433
51
148.195885
0
HATCH
5
17E
100
AcDbEntity
8
COPPER_BOTTOM
62
1
100
AcDbHatch
10
0.0
20
0.0
30
0.0
210
0.0
220
0.0
230
1.0
2
SOLID
70
1
71
0
91
1
92
1
93
3
72
1
10
39.269483
20
16.279796
11
39.269483
21
15.717220
72
2
10
38.100000
20
14.728508
40
1.531418
50
40.212054
51
56.026567
73
1
72
2
10
38.100000
20
17.268508
40
1.531418
50
303.973433
51
319.787946
73
1
97
0
75
0
76
0
98
1
10
0.0
20
0.0
0
LWPOLYLINE
5
17F
100
AcDbEntity
8
COPPER_BOTTOM
62
1
100
AcDbPolyline
90
2
70
0
43
0.254000
39
0.254000
10
39.269483
20
16.279796
10
39.269483
20
15.717220
0
ARC
5
180
100
AcDbEntity
8
COPPER_BOTTOM
62
1
100
AcDbCircle
39
0.254000
10
38.100000
20
14.728508
30
0.0
40
1.531418
100
AcDbArc
50
40.212054
51
56.026567
0
ARC
5
181
100
AcDbEntity
8
COPPER_BOTTOM
62
1
100
AcDbCircle
39
0.254000
10
38.100000
20
17.268508
30
0.0
40
1.531418
100
AcDbArc
50
303.973433
51
319.787946
0
HATCH
5
182
100
AcDbEntity
8
COPPER_BOTTOM
62
1
100
AcDbHatch
10
0.0
20
0.0
30
0.0
210
0.0
220
0.0
230
1.0
2
SOLID
70
1
71
0
91
1
92
1
93
3
72
1
10
0.730517
20
18.075591
11
0.730517
21
19.001425
72
2
10
2.032000
20
19.808508
40
1.531418
50
211.804115
51
236.026567
73
1
72
2
10
2.032000
20
17.268508
40
1.531418
50
123.973433
51
148.195885
73
1
97
0
75
0
76
0
98
1
10
0.0
20
0.0
0
LWPOLYLINE
5
183
100
AcDbEntity
8
COPPER_BOTTOM
62
1
100
AcDbPolyline
90
2
70
0
43
0.254000
39
0.254000
10
0.730517
20
18.075591
10
0.730517
20
19.001425
0
ARC
5
184
100
AcDbEntity
8
COPPER_BOTTOM
62
1
100
AcDbCircle
39
0.254000
10
2.032000
20
19.808508
30
0.0
40
1.531418
100
AcDbArc
50
211.804115
51
236.026567
0
ARC
5
185
100
AcDbEntity
8
COPPER_BOTTOM
62
1
100
AcDbCircle
39
0.254000
10
2.032000
20
17.268508
30
0.0
40
1.531418
100
AcDbArc
50
123.973433
51
148.195885
0
HATCH
5
186
100
AcDbEntity
8
COPPER_BOTTOM
62
1
100
AcDbHatch
10
0.0
20
0.0
30
0.0
210
0.0
220
0.0
230
1.0
2
SOLID
70
1
71
0
91
1
92
1
93
3
72
2
10
38.100000
20
19.808508
40
1.531418
50
303.973433
51
319.787946
73
1
72
1
10
39.269483
20
18.819796
11
39.269483
21
18.257220
72
2
10
38.100000
20
17.268508
40
1.531418
50
40.212054
51
56.026567
73
1
97
0
75
0
76
0
98
1
10
0.0
20
0.0
0
ARC
5
187
100
AcDbEntity
8
COPPER_BOTTOM
62
1
100
AcDbCircle
39
0.254000
10
38.100000
20
19.808508
30
0.0
40
1.531418
100
AcDbArc
50
303.973433
51
319.787946
0
LWPOLYLINE
5
188
100
AcDbEntity
8
COPPER_BOTTOM
62
1
100
AcDbPolyline
90
2
70
0
43
0.254000
39
0.254000
10
39.269483
20
18.819796
10
39.269483
20
18.257220
0
ARC
5
189
100
AcDbEntity
8
COPPER_BOTTOM
62
1
100
AcDbCircle
39
0.254000
10
38.100000
20
17.268508
30
0.0
40
1.531418
100
AcDbArc
50
40.212054
51
56.026567
0
HATCH
5
18A
100
AcDbEntity
8
COPPER_BOTTOM
62
1
100
AcDbHatch
10
0.0
20
0.0
30
0.0
210
0.0
220
0.0
230
1.0
2
SOLID
70
1
71
0
91
1
92
1
93
3
72
1
10
0.730517
20
20.615591
11
0.730517
21
21.421703
72
2
10
1.767459
20
22.083967
40
1.230383
50
212.565160
51
238.207615
73
1
72
2
10
2.032000
20
19.808508
40
1.531418
50
126.585553
51
148.195885
73
1
97
0
75
0
76
0
98
1
10
0.0
20
0.0
0
LWPOLYLINE
5
18B
100
AcDbEntity
8
COPPER_BOTTOM
62
1
100
AcDbPolyline
90
2
70
0
43
0.254000
39
0.254000
10
0.730517
20
20.615591
10
0.730517
20
21.421703
0
ARC
5
18C
100
AcDbEntity
8
COPPER_BOTTOM
62
1
100
AcDbCircle
39
0.254000
10
1.767459
20
22.083967
30
0.0
40
1.230383
100
AcDbArc
50
212.565160
51
238.207615
0
ARC
5
18D
100
AcDbEntity
8
COPPER_BOTTOM
62
1
100
AcDbCircle
39
0.254000
10
2.032000
20
19.808508
30
0.0
40
1.531418
100
AcDbArc
50
126.585553
51
148.195885
0
HATCH
5
18E
100
AcDbEntity
8
COPPER_BOTTOM
62
1
100
AcDbHatch
10
0.0
20
0.0
30
0.0
210
0.0
220
0.0
230
1.0
2
SOLID
70
1
71
0
91
1
92
1
93
3
72
2
10
38.100000
20
19.808508
40
1.531418
50
40.212054
51
53.414447
73
1
72
2
10
38.364541
20
22.083967
40
1.230383
50
301.792385
51
317.349160
73
1
72
1
10
39.269483
20
21.250347
11
39.269483
21
20.797220
97
0
75
0
76
0
98
1
10
0.0
20
0.0
0
ARC
5
18F
100
AcDbEntity
8
COPPER_BOTTOM
62
1
100
AcDbCircle
39
0.254000
10
38.100000
20
19.808508
30
0.0
40
1.531418
100
AcDbArc
50
40.212054
51
53.414447
0
ARC
5
190
100
AcDbEntity
8
COPPER_BOTTOM
62
1
100
AcDbCircle
39
0.254000
10
38.364541
20
22.083967
30
0.0
40
1.230383
100
AcDbArc
50
301.792385
51
317.349160
0
LWPOLYLINE
5
191
100
AcDbEntity
8
COPPER_BOTTOM
62
1
100
AcDbPolyline
90
2
70
0
43
0.254000
39
0.254000
10
39.269483
20
21.250347
10
39.269483
20
20.797220
0
HATCH
5
192
100
AcDbEntity
8
COPPER_BOTTOM
62
1
100
AcDbHatch
10
0.0
20
0.0
30
0.0
210
0.0
220
0.0
230
1.0
2
SOLID
70
1
71
0
91
1
92
1
93
5
72
2
10
9.184000
20
24.525492
40
1.477000
50
229.505937
51
234.022240
73
1
72
1
10
8.316305
20
23.330237
11
4.572000
21
23.330237
72
2
10
4.572000
20
22.348510
40
0.981727
50
90.000000
51
101.045422
73
1
72
1
10
4.383914
20
23.312051
11
4.474136
21
23.402273
72
1
10
4.474136
20
23.402273
11
8.224882
21
23.402273
97
0
75
0
76
0
98
1
10
0.0
20
0.0
0
ARC
5
193
100
AcDbEntity
8
COPPER_BOTTOM
62
1
100
AcDbCircle
39
0.254000
10
9.184000
20
24.525492
30
0.0
40
1.477000
100
AcDbArc
50
229.505937
51
234.022240
0
LWPOLYLINE
5
194
100
AcDbEntity
8
COPPER_BOTTOM
62
1
100
AcDbPolyline
90
2
70
0
43
0.254000
39
0.254000
10
8.316305
20
23.330237
10
4.572000
20
23.330237
0
ARC
5
195
100
AcDbEntity
8
COPPER_BOTTOM
62
1
100
AcDbCircle
39
0.254000
10
4.572000
20
22.348510
30
0.0
40
0.981727
100
AcDbArc
50
90.000000
51
101.045422
0
LWPOLYLINE
5
196
100
AcDbEntity
8
COPPER_BOTTOM
62
1
100
AcDbPolyline
90
3
70
0
43
0.254000
39
0.254000
10
4.383914
20
23.312051
10
4.474136
20
23.402273
10
8.224882
20
23.402273
0
HATCH
5
197
100
AcDbEntity
8
COPPER_BOTTOM
62
1
100
AcDbHatch
10
0.0
20
0.0
30
0.0
210
0.0
220
0.0
230
1.0
2
SOLID
70
1
71
0
91
1
92
1
93
5
72
2
10
35.435230
20
22.475000
40
0.981727
50
78.951824
51
90.000000
73
1
72
1
10
35.435230
20
23.456727
11
31.967446
21
23.456727
72
2
10
30.948000
20
24.525492
40
1.477000
50
313.647053
51
316.952381
73
1
72
1
10
32.027372
20
23.517283
11
35.544612
21
23.517283
72
1
10
35.544612
20
23.517283
11
35.623363
21
23.438532
97
0
75
0
76
0
98
1
10
0.0
20
0.0
0
ARC
5
198
100
AcDbEntity
8
COPPER_BOTTOM
62
1
100
AcDbCircle
39
0.254000
10
35.435230
20
22.475000
30
0.0
40
0.981727
100
AcDbArc
50
78.951824
51
90.000000
0
LWPOLYLINE
5
199
100
AcDbEntity
8
COPPER_BOTTOM
62
1
100
AcDbPolyline
90
2
70
0
43
0.254000
39
0.254000
10
35.435230
20
23.456727
10
31.967446
20
23.456727
0
ARC
5
19A
100
AcDbEntity
8
COPPER_BOTTOM
62
1
100
AcDbCircle
39
0.254000
10
30.948000
20
24.525492
30
0.0
40
1.477000
100
AcDbArc
50
313.647053
51
316.952381
0
LWPOLYLINE
5
19B
100
AcDbEntity
8
COPPER_BOTTOM
62
1
100
AcDbPolyline
90
3
70
0
43
0.254000
39
0.254000
10
32.027372
20
23.517283
10
35.544612
20
23.517283
10
35.623363
20
23.438532
0
HATCH
5
19C
100
AcDbEntity
8
COPPER_BOTTOM
62
1
100
AcDbHatch
10
0.0
20
0.0
30
0.0
210
0.0
220
0.0
230
1.0
2
SOLID
70
1
71
0
91
1
92
1
93
3
72
1
10
0.730517
20
32.263133
11
0.730517
21
34.321483
72
1
10
0.730517
20
34.321483
11
2.880725
21
34.321483
72
2
10
4.000000
20
31.000000
40
3.505000
50
108.622807
51
158.876439
73
1
97
0
75
0
76
0
98
1
10
0.0
20
0.0
0
LWPOLYLINE
5
19D
100
AcDbEntity
8
COPPER_BOTTOM
62
1
100
AcDbPolyline
90
3
70
0
43
0.254000
39
0.254000
10
0.730517
20
32.263133
10
0.730517
20
34.321483
10
2.880725
20
34.321483
0
ARC
5
19E
100
AcDbEntity
8
COPPER_BOTTOM
62
1
100
AcDbCircle
39
0.254000
10
4.000000
20
31.000000
30
0.0
40
3.505000
100
AcDbArc
50
108.622807
51
158.876439
0
HATCH
5
19F
100
AcDbEntity
8
COPPER_BOTTOM
62
1
100
AcDbHatch
10
0.0
20
0.0
30
0.0
210
0.0
220
0.0
230
1.0
2
SOLID
70
1
71
0
91
1
92
1
93
3
72
1
10
37.119275
20
34.321483
11
39.269483
21
34.321483
72
1
10
39.269483
20
34.321483
11
39.269483
21
32.263133
72
2
10
36.000000
20
31.000000
40
3.505000
50
21.123561
51
71.377193
73
1
97
0
75
0
76
0
98
1
10
0.0
20
0.0
0
LWPOLYLINE
5
1A0
100
AcDbEntity
8
COPPER_BOTTOM
62
1
100
AcDbPolyline
90
3
70
0
43
0.254000
39
0.254000
10
37.119275
20
34.321483
10
39.269483
20
34.321483
10
39.269483
20
32.263133
0
ARC
5
1A1
100
AcDbEntity
8
COPPER_BOTTOM
62
1
100
AcDbCircle
39
0.254000
10
36.000000
20
31.000000
30
0.0
40
3.505000
100
AcDbArc
50
21.123561
51
71.377193
0
LWPOLYLINE
5
1A2
100
AcDbEntity
8
SIEBDRUCK_OBEN
62
4
100
AcDbPolyline
90
2
70
0
43
0.203200
39
0.203200
10
17.884000
20
23.875492
10
5.484000
20
23.875492
0
LWPOLYLINE
5
1A3
100
AcDbEntity
8
SIEBDRUCK_OBEN
62
4
100
AcDbPolyline
90
2
70
0
43
0.203200
39
0.203200
10
5.484000
20
23.875492
10
5.484000
20
10.675492
0
LWPOLYLINE
5
1A4
100
AcDbEntity
8
SIEBDRUCK_OBEN
62
4
100
AcDbPolyline
90
2
70
0
43
0.203200
39
0.203200
10
5.484000
20
10.675492
10
17.884000
20
10.675492
0
LWPOLYLINE
5
1A5
100
AcDbEntity
8
SIEBDRUCK_OBEN
62
4
100
AcDbPolyline
90
2
70
0
43
0.203200
39
0.203200
10
17.884000
20
10.675492
10
17.884000
20
23.875492
0
CIRCLE
5
1A6
100
AcDbEntity
8
SIEBDRUCK_OBEN
62
4
100
AcDbCircle
39
0.300000
10
11.684000
20
17.275492
30
0
40
3.150000
0
LWPOLYLINE
5
1A7
100
AcDbEntity
8
SIEBDRUCK_OBEN
62
4
100
AcDbPolyline
90
2
70
0
43
0.203200
39
0.203200
10
34.648000
20
23.875492
10
22.248000
20
23.875492
0
LWPOLYLINE
5
1A8
100
AcDbEntity
8
SIEBDRUCK_OBEN
62
4
100
AcDbPolyline
90
2
70
0
43
0.203200
39
0.203200
10
22.248000
20
23.875492
10
22.248000
20
10.675492
0
LWPOLYLINE
5
1A9
100
AcDbEntity
8
SIEBDRUCK_OBEN
62
4
100
AcDbPolyline
90
2
70
0
43
0.203200
39
0.203200
10
22.248000
20
10.675492
10
34.648000
20
10.675492
0
LWPOLYLINE
5
1AA
100
AcDbEntity
8
SIEBDRUCK_OBEN
62
4
100
AcDbPolyline
90
2
70
0
43
0.203200
39
0.203200
10
34.648000
20
10.675492
10
34.648000
20
23.875492
0
CIRCLE
5
1AB
100
AcDbEntity
8
SIEBDRUCK_OBEN
62
4
100
AcDbCircle
39
0.300000
10
28.448000
20
17.275492
30
0
40
3.150000
0
LWPOLYLINE
5
1AC
100
AcDbEntity
8
SIEBDRUCK_OBEN
62
4
100
AcDbPolyline
90
2
70
0
43
0.203200
39
0.203200
10
3.302000
20
10.918506
10
3.302000
20
21.078508
0
LWPOLYLINE
5
1AD
100
AcDbEntity
8
SIEBDRUCK_OBEN
62
4
100
AcDbPolyline
90
2
70
0
43
0.203200
39
0.203200
10
3.302000
20
21.713506
10
3.302000
20
23.618508
0
LWPOLYLINE
5
1AE
100
AcDbEntity
8
SIEBDRUCK_OBEN
62
4
100
AcDbPolyline
90
2
70
0
43
0.203200
39
0.203200
10
3.302000
20
23.618508
10
0.762000
20
23.618508
0
LWPOLYLINE
5
1AF
100
AcDbEntity
8
SIEBDRUCK_OBEN
62
4
100
AcDbPolyline
90
2
70
0
43
0.203200
39
0.203200
10
3.302000
20
21.290176
10
2.455333
20
21.290176
0
LWPOLYLINE
5
1B0
100
AcDbEntity
8
SIEBDRUCK_OBEN
62
4
100
AcDbPolyline
90
2
70
0
43
0.203200
39
0.203200
10
3.090333
20
21.501840
10
3.302000
20
21.290176
0
LWPOLYLINE
5
1B1
100
AcDbEntity
8
SIEBDRUCK_OBEN
62
4
100
AcDbPolyline
90
2
70
0
43
0.203200
39
0.203200
10
3.302000
20
10.918506
10
0.762000
20
10.918508
0
LWPOLYLINE
5
1B2
100
AcDbEntity
8
SIEBDRUCK_OBEN
62
4
100
AcDbPolyline
90
2
70
0
43
0.203200
39
0.203200
10
0.762000
20
10.918508
10
0.762000
20
23.618508
0
TEXT
5
1B3
100
AcDbEntity
8
SIEBDRUCK_OBEN
100
AcDbText
39
0.203200
10
2.010833
20
25.146000
30
0.0
40
0.705555
1
J1
41
1.866667
7
MONOTxtStyle
50
270.000000
72
1
11
2.010833
21
25.146000
31
0.0
100
AcDbText
73
2
0
LWPOLYLINE
5
1B4
100
AcDbEntity
8
SIEBDRUCK_OBEN
62
4
100
AcDbPolyline
90
2
70
0
43
0.203200
39
0.203200
10
39.370000
20
10.918506
10
39.370000
20
21.078508
0
LWPOLYLINE
5
1B5
100
AcDbEntity
8
SIEBDRUCK_OBEN
62
4
100
AcDbPolyline
90
2
70
0
43
0.203200
39
0.203200
10
39.370000
20
21.713506
10
39.370000
20
23.618508
0
LWPOLYLINE
5
1B6
100
AcDbEntity
8
SIEBDRUCK_OBEN
62
4
100
AcDbPolyline
90
2
70
0
43
0.203200
39
0.203200
10
39.370000
20
23.618508
10
36.830000
20
23.618508
0
LWPOLYLINE
5
1B7
100
AcDbEntity
8
SIEBDRUCK_OBEN
62
4
100
AcDbPolyline
90
2
70
0
43
0.203200
39
0.203200
10
39.370000
20
21.290176
10
38.523333
20
21.290176
0
LWPOLYLINE
5
1B8
100
AcDbEntity
8
SIEBDRUCK_OBEN
62
4
100
AcDbPolyline
90
2
70
0
43
0.203200
39
0.203200
10
39.158333
20
21.501840
10
39.370000
20
21.290176
0
LWPOLYLINE
5
1B9
100
AcDbEntity
8
SIEBDRUCK_OBEN
62
4
100
AcDbPolyline
90
2
70
0
43
0.203200
39
0.203200
10
39.370000
20
10.918506
10
36.830000
20
10.918508
0
LWPOLYLINE
5
1BA
100
AcDbEntity
8
SIEBDRUCK_OBEN
62
4
100
AcDbPolyline
90
2
70
0
43
0.203200
39
0.203200
10
36.830000
20
10.918508
10
36.830000
20
23.618508
0
TEXT
5
1BB
100
AcDbEntity
8
SIEBDRUCK_OBEN
100
AcDbText
39
0.203200
10
38.078833
20
25.400000
30
0.0
40
0.705555
1
J2
41
1.866667
7
MONOTxtStyle
50
270.000000
72
1
11
38.078833
21
25.400000
31
0.0
100
AcDbText
73
2
0
HATCH
5
1BC
100
AcDbEntity
8
SIEBDRUCK_OBEN
62
255
100
AcDbHatch
10
0.0
20
0.0
30
0.0
210
0.0
220
0.0
230
1.0
2
SOLID
70
1
71
0
91
1
92
1
93
1
72
2
10
4.000000
20
31.000000
40
1.600000
50
0.000000
51
360.000000
73
1
97
0
75
0
76
0
98
1
10
0.0
20
0.0
0
CIRCLE
5
1BD
100
AcDbEntity
8
SIEBDRUCK_OBEN
62
255
100
AcDbCircle
39
0.000001
10
4.000000
20
31.000000
30
0
40
1.600000
0
HATCH
5
1BE
100
AcDbEntity
8
SIEBDRUCK_OBEN
62
255
100
AcDbHatch
10
0.0
20
0.0
30
0.0
210
0.0
220
0.0
230
1.0
2
SOLID
70
1
71
0
91
1
92
1
93
1
72
2
10
4.000000
20
4.000000
40
1.600000
50
0.000000
51
360.000000
73
1
97
0
75
0
76
0
98
1
10
0.0
20
0.0
0
CIRCLE
5
1BF
100
AcDbEntity
8
SIEBDRUCK_OBEN
62
255
100
AcDbCircle
39
0.000001
10
4.000000
20
4.000000
30
0
40
1.600000
0
HATCH
5
1C0
100
AcDbEntity
8
SIEBDRUCK_OBEN
62
255
100
AcDbHatch
10
0.0
20
0.0
30
0.0
210
0.0
220
0.0
230
1.0
2
SOLID
70
1
71
0
91
1
92
1
93
1
72
2
10
36.000000
20
31.000000
40
1.600000
50
0.000000
51
360.000000
73
1
97
0
75
0
76
0
98
1
10
0.0
20
0.0
0
CIRCLE
5
1C1
100
AcDbEntity
8
SIEBDRUCK_OBEN
62
255
100
AcDbCircle
39
0.000001
10
36.000000
20
31.000000
30
0
40
1.600000
0
HATCH
5
1C2
100
AcDbEntity
8
SIEBDRUCK_OBEN
62
255
100
AcDbHatch
10
0.0
20
0.0
30
0.0
210
0.0
220
0.0
230
1.0
2
SOLID
70
1
71
0
91
1
92
1
93
1
72
2
10
36.000000
20
4.000000
40
1.600000
50
0.000000
51
360.000000
73
1
97
0
75
0
76
0
98
1
10
0.0
20
0.0
0
CIRCLE
5
1C3
100
AcDbEntity
8
SIEBDRUCK_OBEN
62
255
100
AcDbCircle
39
0.000001
10
36.000000
20
4.000000
30
0
40
1.600000
0
HATCH
5
1C4
100
AcDbEntity
8
SIEBDRUCK_UNTEN
62
255
100
AcDbHatch
10
0.0
20
0.0
30
0.0
210
0.0
220
0.0
230
1.0
2
SOLID
70
1
71
0
91
1
92
1
93
1
72
2
10
4.000000
20
31.000000
40
1.600000
50
0.000000
51
360.000000
73
1
97
0
75
0
76
0
98
1
10
0.0
20
0.0
0
CIRCLE
5
1C5
100
AcDbEntity
8
SIEBDRUCK_UNTEN
62
255
100
AcDbCircle
39
0.000001
10
4.000000
20
31.000000
30
0
40
1.600000
0
HATCH
5
1C6
100
AcDbEntity
8
SIEBDRUCK_UNTEN
62
255
100
AcDbHatch
10
0.0
20
0.0
30
0.0
210
0.0
220
0.0
230
1.0
2
SOLID
70
1
71
0
91
1
92
1
93
1
72
2
10
4.000000
20
4.000000
40
1.600000
50
0.000000
51
360.000000
73
1
97
0
75
0
76
0
98
1
10
0.0
20
0.0
0
CIRCLE
5
1C7
100
AcDbEntity
8
SIEBDRUCK_UNTEN
62
255
100
AcDbCircle
39
0.000001
10
4.000000
20
4.000000
30
0
40
1.600000
0
HATCH
5
1C8
100
AcDbEntity
8
SIEBDRUCK_UNTEN
62
255
100
AcDbHatch
10
0.0
20
0.0
30
0.0
210
0.0
220
0.0
230
1.0
2
SOLID
70
1
71
0
91
1
92
1
93
1
72
2
10
36.000000
20
31.000000
40
1.600000
50
0.000000
51
360.000000
73
1
97
0
75
0
76
0
98
1
10
0.0
20
0.0
0
CIRCLE
5
1C9
100
AcDbEntity
8
SIEBDRUCK_UNTEN
62
255
100
AcDbCircle
39
0.000001
10
36.000000
20
31.000000
30
0
40
1.600000
0
HATCH
5
1CA
100
AcDbEntity
8
SIEBDRUCK_UNTEN
62
255
100
AcDbHatch
10
0.0
20
0.0
30
0.0
210
0.0
220
0.0
230
1.0
2
SOLID
70
1
71
0
91
1
92
1
93
1
72
2
10
36.000000
20
4.000000
40
1.600000
50
0.000000
51
360.000000
73
1
97
0
75
0
76
0
98
1
10
0.0
20
0.0
0
CIRCLE
5
1CB
100
AcDbEntity
8
SIEBDRUCK_UNTEN
62
255
100
AcDbCircle
39
0.000001
10
36.000000
20
4.000000
30
0
40
1.600000
0
ENDSEC
0
SECTION
2
OBJECTS
0
DICTIONARY
5
1CC
100
AcDbDictionary
3
ACAD_GROUP
350
1CD
3
ACAD_LAYOUT
350
1CE
3
ACAD_MLINESTYLE
350
1CF
0
DICTIONARY
5
1CD
100
AcDbDictionary
0
DICTIONARY
5
1CE
100
AcDbDictionary
0
DICTIONARY
5
1CF
100
AcDbDictionary
3
STANDARD
350
1D0
0
MLINESTYLE
5
1D0
100
AcDbMlineStyle
2
Standard
70
0
3

62
256
51
90.0
52
90.0
71
2
49
0.5
62
256
6
BYLAYER
49
-0.5
62
256
6
BYLAYER
0
ENDSEC
0
EOF
